Playwrite-Rg18ShortFast.ufo
<glyph name="percent" format="2">
  <advance width="825"/>
  <unicode hex="0025"/>
  <outline>
    <contour>
      <point x="299" y="505" type="curve" smooth="yes"/>
      <point x="429" y="505"/>
      <point x="510" y="651"/>
      <point x="510" y="751" type="curve" smooth="yes"/>
      <point x="510" y="830"/>
      <point x="458" y="890"/>
      <point x="364" y="890" type="curve" smooth="yes"/>
      <point x="235" y="890"/>
      <point x="153" y="750"/>
      <point x="153" y="650" type="curve" smooth="yes"/>
      <point x="153" y="569"/>
      <point x="205" y="505"/>
    </contour>
    <contour>
      <point x="308" y="581" type="curve" smooth="yes"/>
      <point x="266" y="581"/>
      <point x="238" y="605"/>
      <point x="238" y="655" type="curve" smooth="yes"/>
      <point x="238" y="716"/>
      <point x="279" y="814"/>
      <point x="358" y="814" type="curve" smooth="yes"/>
      <point x="395" y="814"/>
      <point x="424" y="794"/>
      <point x="424" y="743" type="curve" smooth="yes"/>
      <point x="424" y="676"/>
      <point x="380" y="581"/>
    </contour>
    <contour>
      <point x="108" y="-9" type="curve" smooth="yes"/>
      <point x="873" y="838" type="line" smooth="yes"/>
      <point x="888" y="854"/>
      <point x="886" y="864"/>
      <point x="866" y="880" type="curve" smooth="yes"/>
      <point x="846" y="896"/>
      <point x="834" y="895"/>
      <point x="820" y="880" type="curve" smooth="yes"/>
      <point x="55" y="34" type="line" smooth="yes"/>
      <point x="40" y="18"/>
      <point x="41" y="8"/>
      <point x="61" y="-9" type="curve" smooth="yes"/>
      <point x="81" y="-25"/>
      <point x="94" y="-24"/>
    </contour>
    <contour>
      <point x="579" y="-19" type="curve" smooth="yes"/>
      <point x="709" y="-19"/>
      <point x="790" y="128"/>
      <point x="790" y="228" type="curve" smooth="yes"/>
      <point x="790" y="306"/>
      <point x="738" y="366"/>
      <point x="644" y="366" type="curve" smooth="yes"/>
      <point x="515" y="366"/>
      <point x="433" y="226"/>
      <point x="433" y="126" type="curve" smooth="yes"/>
      <point x="433" y="45"/>
      <point x="485" y="-19"/>
    </contour>
    <contour>
      <point x="588" y="58" type="curve" smooth="yes"/>
      <point x="546" y="58"/>
      <point x="518" y="81"/>
      <point x="518" y="131" type="curve" smooth="yes"/>
      <point x="518" y="193"/>
      <point x="559" y="290"/>
      <point x="638" y="290" type="curve" smooth="yes"/>
      <point x="675" y="290"/>
      <point x="704" y="270"/>
      <point x="704" y="219" type="curve" smooth="yes"/>
      <point x="704" y="153"/>
      <point x="660" y="58"/>
    </contour>
  </outline>
</glyph>
<glyph name="slash" format="2">
  <advance width="323"/>
  <unicode hex="002F"/>
  <outline>
    <contour>
      <point x="-70" y="-75" type="curve" smooth="yes"/>
      <point x="-44" y="-82"/>
      <point x="-21" y="-77"/>
      <point x="-10" y="-59" type="curve" smooth="yes"/>
      <point x="540" y="911" type="line" smooth="yes"/>
      <point x="551" y="930"/>
      <point x="538" y="943"/>
      <point x="513" y="950" type="curve" smooth="yes"/>
      <point x="486" y="958"/>
      <point x="464" y="953"/>
      <point x="453" y="934" type="curve" smooth="yes"/>
      <point x="-97" y="-36" type="line" smooth="yes"/>
      <point x="-109" y="-55"/>
      <point x="-95" y="-67"/>
    </contour>
  </outline>
</glyph>
<glyph name="six" format="2">
  <advance width="713"/>
  <unicode hex="0036"/>
  <outline>
    <contour>
      <point x="343" y="-19" type="curve" smooth="yes"/>
      <point x="550" y="-19"/>
      <point x="691" y="129"/>
      <point x="691" y="340" type="curve" smooth="yes"/>
      <point x="691" y="463"/>
      <point x="598" y="553"/>
      <point x="474" y="553" type="curve" smooth="yes"/>
      <point x="340" y="553"/>
      <point x="221" y="455"/>
      <point x="153" y="335" type="curve"/>
      <point x="184" y="283" type="line"/>
      <point x="236" y="361"/>
      <point x="345" y="473"/>
      <point x="453" y="473" type="curve" smooth="yes"/>
      <point x="535" y="473"/>
      <point x="600" y="416"/>
      <point x="600" y="320" type="curve" smooth="yes"/>
      <point x="600" y="180"/>
      <point x="505" y="61"/>
      <point x="358" y="61" type="curve" smooth="yes"/>
      <point x="271" y="61"/>
      <point x="196" y="118"/>
      <point x="196" y="271" type="curve" smooth="yes"/>
      <point x="196" y="518"/>
      <point x="388" y="764"/>
      <point x="710" y="811" type="curve" smooth="yes"/>
      <point x="741" y="816"/>
      <point x="755" y="820"/>
      <point x="753" y="855" type="curve" smooth="yes"/>
      <point x="750" y="886"/>
      <point x="738" y="891"/>
      <point x="701" y="886" type="curve" smooth="yes"/>
      <point x="366" y="840"/>
      <point x="105" y="584"/>
      <point x="105" y="263" type="curve" smooth="yes"/>
      <point x="105" y="81"/>
      <point x="203" y="-19"/>
    </contour>
  </outline>
</glyph>
<glyph name="D" format="2">
  <advance width="870"/>
  <unicode hex="0044"/>
  <anchor x="348" y="0" name="bottom"/>
  <anchor x="294" y="444" name="center"/>
  <anchor x="580" y="838" name="top"/>
  <outline>
    <contour>
      <point x="88" y="0" type="curve" smooth="yes"/>
      <point x="275" y="0" type="line" smooth="yes"/>
      <point x="593" y="0"/>
      <point x="875" y="248"/>
      <point x="875" y="598" type="curve" smooth="yes"/>
      <point x="875" y="748"/>
      <point x="763" y="875"/>
      <point x="526" y="875" type="curve" smooth="yes"/>
      <point x="373" y="875" type="line" smooth="yes"/>
      <point x="344" y="875"/>
      <point x="326" y="866"/>
      <point x="320" y="848" type="curve" smooth="yes"/>
      <point x="53" y="28" type="line" smooth="yes"/>
      <point x="46" y="9"/>
      <point x="59" y="0"/>
    </contour>
    <contour>
      <point x="159" y="85" type="line"/>
      <point x="389" y="790" type="line"/>
      <point x="525" y="790" type="line" smooth="yes"/>
      <point x="675" y="790"/>
      <point x="776" y="719"/>
      <point x="776" y="598" type="curve" smooth="yes"/>
      <point x="776" y="280"/>
      <point x="525" y="85"/>
      <point x="275" y="85" type="curve" smooth="yes"/>
    </contour>
  </outline>
</glyph>
<glyph name="I" format="2">
  <advance width="338"/>
  <unicode hex="0049"/>
  <anchor x="88" y="0" name="bottom"/>
  <anchor x="104" y="-6" name="ogonek"/>
  <anchor x="353" y="838" name="top"/>
  <outline>
    <contour>
      <point x="88" y="-14" type="curve" smooth="yes"/>
      <point x="118" y="-14"/>
      <point x="133" y="-5"/>
      <point x="139" y="14" type="curve" smooth="yes"/>
      <point x="411" y="860" type="line" smooth="yes"/>
      <point x="418" y="881"/>
      <point x="403" y="890"/>
      <point x="373" y="890" type="curve" smooth="yes"/>
      <point x="343" y="890"/>
      <point x="328" y="881"/>
      <point x="321" y="863" type="curve" smooth="yes"/>
      <point x="49" y="16" type="line" smooth="yes"/>
      <point x="43" y="-5"/>
      <point x="58" y="-14"/>
    </contour>
  </outline>
</glyph>
<glyph name="L" format="2">
  <advance width="625"/>
  <unicode hex="004C"/>
  <anchor x="408" y="450" name="CAT"/>
  <anchor x="294" y="0" name="bottom"/>
  <anchor x="230" y="450" name="center"/>
  <anchor x="359" y="838" name="top"/>
  <anchor x="416" y="875" name="topright"/>
  <outline>
    <contour>
      <point x="91" y="0" type="curve" smooth="yes"/>
      <point x="500" y="0" type="line" smooth="yes"/>
      <point x="515" y="0"/>
      <point x="529" y="14"/>
      <point x="536" y="40" type="curve" smooth="yes"/>
      <point x="544" y="68"/>
      <point x="538" y="80"/>
      <point x="523" y="80" type="curve" smooth="yes"/>
      <point x="159" y="80" type="line"/>
      <point x="410" y="860" type="line" smooth="yes"/>
      <point x="418" y="881"/>
      <point x="401" y="890"/>
      <point x="371" y="890" type="curve" smooth="yes"/>
      <point x="341" y="890"/>
      <point x="330" y="881"/>
      <point x="324" y="863" type="curve" smooth="yes"/>
      <point x="59" y="40" type="line" smooth="yes"/>
      <point x="50" y="13"/>
      <point x="63" y="0"/>
    </contour>
  </outline>
</glyph>
<glyph name="N" format="2">
  <advance width="888"/>
  <unicode hex="004E"/>
  <anchor x="363" y="0" name="bottom"/>
  <anchor x="636" y="838" name="top"/>
  <outline>
    <contour>
      <point x="84" y="-14" type="curve" smooth="yes"/>
      <point x="113" y="-14"/>
      <point x="130" y="-5"/>
      <point x="136" y="14" type="curve" smooth="yes"/>
      <point x="369" y="729" type="line"/>
      <point x="599" y="14" type="line" smooth="yes"/>
      <point x="606" y="-10"/>
      <point x="614" y="-14"/>
      <point x="635" y="-14" type="curve" smooth="yes"/>
      <point x="663" y="-14"/>
      <point x="680" y="-5"/>
      <point x="686" y="14" type="curve" smooth="yes"/>
      <point x="961" y="863" type="line" smooth="yes"/>
      <point x="968" y="881"/>
      <point x="955" y="890"/>
      <point x="926" y="890" type="curve" smooth="yes"/>
      <point x="898" y="890"/>
      <point x="880" y="881"/>
      <point x="874" y="863" type="curve" smooth="yes"/>
      <point x="645" y="158" type="line"/>
      <point x="418" y="863" type="line" smooth="yes"/>
      <point x="411" y="881"/>
      <point x="400" y="890"/>
      <point x="376" y="890" type="curve" smooth="yes"/>
      <point x="348" y="890"/>
      <point x="330" y="881"/>
      <point x="324" y="863" type="curve" smooth="yes"/>
      <point x="49" y="14" type="line" smooth="yes"/>
      <point x="43" y="-5"/>
      <point x="55" y="-14"/>
    </contour>
  </outline>
</glyph>
<glyph name="P" format="2">
  <advance width="700"/>
  <unicode hex="0050"/>
  <outline>
    <contour>
      <point x="89" y="-14" type="curve" smooth="yes"/>
      <point x="119" y="-14"/>
      <point x="131" y="-5"/>
      <point x="138" y="14" type="curve" smooth="yes"/>
      <point x="245" y="345" type="line"/>
      <point x="291" y="345"/>
      <point x="351" y="348"/>
      <point x="401" y="354" type="curve" smooth="yes"/>
      <point x="636" y="384"/>
      <point x="804" y="476"/>
      <point x="804" y="679" type="curve" smooth="yes"/>
      <point x="804" y="809"/>
      <point x="710" y="875"/>
      <point x="525" y="875" type="curve" smooth="yes"/>
      <point x="370" y="875" type="line" smooth="yes"/>
      <point x="340" y="875"/>
      <point x="325" y="866"/>
      <point x="319" y="848" type="curve" smooth="yes"/>
      <point x="50" y="16" type="line" smooth="yes"/>
      <point x="44" y="-5"/>
      <point x="59" y="-14"/>
    </contour>
    <contour>
      <point x="270" y="425" type="curve"/>
      <point x="390" y="795" type="line"/>
      <point x="511" y="795" type="line" smooth="yes"/>
      <point x="654" y="795"/>
      <point x="714" y="758"/>
      <point x="714" y="668" type="curve" smooth="yes"/>
      <point x="714" y="536"/>
      <point x="611" y="464"/>
      <point x="428" y="435" type="curve" smooth="yes"/>
      <point x="378" y="428"/>
      <point x="318" y="425"/>
    </contour>
  </outline>
</glyph>
<glyph name="S" format="2">
  <advance width="688"/>
  <unicode hex="0053"/>
  <anchor x="286" y="0" name="bottom"/>
  <anchor x="484" y="838" name="top"/>
  <outline>
    <contour>
      <point x="300" y="-19" type="curve" smooth="yes"/>
      <point x="484" y="-19"/>
      <point x="618" y="85"/>
      <point x="618" y="236" type="curve" smooth="yes"/>
      <point x="618" y="346"/>
      <point x="555" y="421"/>
      <point x="439" y="480" type="curve" smooth="yes"/>
      <point x="328" y="536"/>
      <point x="294" y="578"/>
      <point x="294" y="659" type="curve" smooth="yes"/>
      <point x="294" y="758"/>
      <point x="375" y="805"/>
      <point x="491" y="805" type="curve" smooth="yes"/>
      <point x="580" y="805"/>
      <point x="624" y="771"/>
      <point x="671" y="736" type="curve" smooth="yes"/>
      <point x="685" y="726"/>
      <point x="701" y="728"/>
      <point x="716" y="743" type="curve" smooth="yes"/>
      <point x="734" y="759"/>
      <point x="738" y="774"/>
      <point x="724" y="788" type="curve" smooth="yes"/>
      <point x="669" y="840"/>
      <point x="594" y="890"/>
      <point x="491" y="890" type="curve" smooth="yes"/>
      <point x="313" y="890"/>
      <point x="201" y="793"/>
      <point x="201" y="659" type="curve" smooth="yes"/>
      <point x="201" y="529"/>
      <point x="283" y="463"/>
      <point x="390" y="405" type="curve" smooth="yes"/>
      <point x="480" y="358"/>
      <point x="525" y="309"/>
      <point x="525" y="236" type="curve" smooth="yes"/>
      <point x="525" y="120"/>
      <point x="429" y="66"/>
      <point x="300" y="66" type="curve" smooth="yes"/>
      <point x="210" y="66"/>
      <point x="135" y="114"/>
      <point x="90" y="168" type="curve" smooth="yes"/>
      <point x="78" y="183"/>
      <point x="63" y="176"/>
      <point x="45" y="161" type="curve" smooth="yes"/>
      <point x="31" y="149"/>
      <point x="21" y="135"/>
      <point x="33" y="119" type="curve" smooth="yes"/>
      <point x="88" y="45"/>
      <point x="179" y="-19"/>
    </contour>
  </outline>
</glyph>
<glyph name="T" format="2">
  <advance width="690"/>
  <unicode hex="0054"/>
  <anchor x="263" y="0" name="bottom"/>
  <anchor x="413" y="438" name="center"/>
  <anchor x="533" y="838" name="top"/>
  <outline>
    <contour>
      <point x="259" y="-15" type="curve" smooth="yes"/>
      <point x="288" y="-15"/>
      <point x="306" y="-6"/>
      <point x="311" y="13" type="curve" smooth="yes"/>
      <point x="566" y="795" type="line"/>
      <point x="825" y="795" type="line" smooth="yes"/>
      <point x="845" y="795"/>
      <point x="855" y="805"/>
      <point x="865" y="835" type="curve" smooth="yes"/>
      <point x="875" y="865"/>
      <point x="871" y="875"/>
      <point x="851" y="875" type="curve" smooth="yes"/>
      <point x="246" y="875" type="line" smooth="yes"/>
      <point x="226" y="875"/>
      <point x="215" y="865"/>
      <point x="205" y="835" type="curve" smooth="yes"/>
      <point x="195" y="805"/>
      <point x="200" y="795"/>
      <point x="220" y="795" type="curve" smooth="yes"/>
      <point x="479" y="795" type="line"/>
      <point x="224" y="13" type="line" smooth="yes"/>
      <point x="219" y="-6"/>
      <point x="230" y="-15"/>
    </contour>
  </outline>
</glyph>
<glyph name="X" format="2">
  <advance width="687"/>
  <unicode hex="0058"/>
  <outline>
    <contour>
      <point x="536" y="-14" type="curve" smooth="yes"/>
      <point x="565" y="-14"/>
      <point x="581" y="9"/>
      <point x="571" y="45" type="curve" smooth="yes"/>
      <point x="458" y="440" type="line"/>
      <point x="831" y="831" type="line" smooth="yes"/>
      <point x="865" y="868"/>
      <point x="839" y="890"/>
      <point x="813" y="890" type="curve" smooth="yes"/>
      <point x="788" y="890"/>
      <point x="770" y="884"/>
      <point x="744" y="856" type="curve" smooth="yes"/>
      <point x="433" y="528" type="line"/>
      <point x="338" y="856" type="line" smooth="yes"/>
      <point x="329" y="885"/>
      <point x="316" y="890"/>
      <point x="290" y="890" type="curve" smooth="yes"/>
      <point x="261" y="890"/>
      <point x="245" y="868"/>
      <point x="255" y="831" type="curve" smooth="yes"/>
      <point x="364" y="453" type="line"/>
      <point x="-22" y="45" type="line" smooth="yes"/>
      <point x="-56" y="9"/>
      <point x="-30" y="-14"/>
      <point x="-4" y="-14" type="curve" smooth="yes"/>
      <point x="21" y="-14"/>
      <point x="39" y="-7"/>
      <point x="65" y="20" type="curve" smooth="yes"/>
      <point x="390" y="365" type="line"/>
      <point x="489" y="20" type="line" smooth="yes"/>
      <point x="498" y="-9"/>
      <point x="510" y="-14"/>
    </contour>
  </outline>
</glyph>
<glyph name="Z" format="2">
  <advance width="613"/>
  <unicode hex="005A"/>
  <anchor x="238" y="0" name="bottom"/>
  <anchor x="368" y="461" name="center"/>
  <anchor x="459" y="838" name="top"/>
  <outline>
    <contour>
      <point x="-37" y="0" type="curve" smooth="yes"/>
      <point x="498" y="0" type="line" smooth="yes"/>
      <point x="513" y="0"/>
      <point x="526" y="14"/>
      <point x="534" y="40" type="curve" smooth="yes"/>
      <point x="541" y="68"/>
      <point x="535" y="80"/>
      <point x="520" y="80" type="curve" smooth="yes"/>
      <point x="89" y="80" type="line"/>
      <point x="771" y="818" type="line" smooth="yes"/>
      <point x="793" y="840"/>
      <point x="784" y="875"/>
      <point x="760" y="875" type="curve" smooth="yes"/>
      <point x="268" y="875" type="line" smooth="yes"/>
      <point x="253" y="875"/>
      <point x="239" y="861"/>
      <point x="231" y="835" type="curve" smooth="yes"/>
      <point x="224" y="808"/>
      <point x="230" y="795"/>
      <point x="245" y="795" type="curve" smooth="yes"/>
      <point x="634" y="795" type="line"/>
      <point x="-49" y="58" type="line" smooth="yes"/>
      <point x="-70" y="35"/>
      <point x="-61" y="0"/>
    </contour>
  </outline>
</glyph>
<glyph name="backslash" format="2">
  <advance width="323"/>
  <unicode hex="005C"/>
  <outline>
    <contour>
      <point x="264" y="-76" type="curve" smooth="yes"/>
      <point x="293" y="-74"/>
      <point x="308" y="-64"/>
      <point x="306" y="-44" type="curve" smooth="yes"/>
      <point x="230" y="925" type="line" smooth="yes"/>
      <point x="229" y="945"/>
      <point x="213" y="953"/>
      <point x="184" y="950" type="curve" smooth="yes"/>
      <point x="155" y="948"/>
      <point x="141" y="938"/>
      <point x="143" y="918" type="curve" smooth="yes"/>
      <point x="219" y="-51" type="line" smooth="yes"/>
      <point x="220" y="-71"/>
      <point x="235" y="-79"/>
    </contour>
  </outline>
</glyph>
<glyph name="a" format="2">
  <advance width="623"/>
  <unicode hex="0061"/>
  <anchor x="230" y="0" name="bottom"/>
  <anchor x="508" y="13" name="ogonek"/>
  <anchor x="371" y="500" name="top"/>
  <outline>
    <contour>
      <point x="148" y="-17" type="curve" smooth="yes"/>
      <point x="216" y="-17"/>
      <point x="295" y="40"/>
      <point x="380" y="158" type="curve"/>
      <point x="379" y="154"/>
      <point x="378" y="151"/>
      <point x="376" y="148" type="curve" smooth="yes"/>
      <point x="355" y="85"/>
      <point x="335" y="-15"/>
      <point x="435" y="-15" type="curve" smooth="yes"/>
      <point x="508" y="-15"/>
      <point x="559" y="50"/>
      <point x="578" y="81" type="curve" smooth="yes"/>
      <point x="585" y="94"/>
      <point x="581" y="108"/>
      <point x="560" y="121" type="curve" smooth="yes"/>
      <point x="545" y="131"/>
      <point x="535" y="129"/>
      <point x="525" y="116" type="curve" smooth="yes"/>
      <point x="496" y="81"/>
      <point x="475" y="61"/>
      <point x="455" y="61" type="curve" smooth="yes"/>
      <point x="444" y="61"/>
      <point x="436" y="66"/>
      <point x="449" y="103" type="curve" smooth="yes"/>
      <point x="574" y="476" type="line" smooth="yes"/>
      <point x="583" y="503"/>
      <point x="574" y="515"/>
      <point x="533" y="515" type="curve" smooth="yes"/>
      <point x="510" y="515"/>
      <point x="498" y="513"/>
      <point x="491" y="494" type="curve" smooth="yes"/>
      <point x="490" y="490" type="line"/>
      <point x="450" y="509"/>
      <point x="405" y="519"/>
      <point x="368" y="519" type="curve" smooth="yes"/>
      <point x="156" y="519"/>
      <point x="35" y="283"/>
      <point x="35" y="130" type="curve" smooth="yes"/>
      <point x="35" y="39"/>
      <point x="80" y="-17"/>
    </contour>
    <contour>
      <point x="126" y="146" type="curve" smooth="yes"/>
      <point x="126" y="253"/>
      <point x="210" y="440"/>
      <point x="354" y="440" type="curve" smooth="yes"/>
      <point x="385" y="440"/>
      <point x="423" y="436"/>
      <point x="466" y="419" type="curve"/>
      <point x="455" y="386" type="line"/>
      <point x="349" y="178"/>
      <point x="246" y="63"/>
      <point x="176" y="63" type="curve" smooth="yes"/>
      <point x="145" y="63"/>
      <point x="126" y="95"/>
    </contour>
  </outline>
</glyph>
<glyph name="c" format="2">
  <advance width="523"/>
  <unicode hex="0063"/>
  <anchor x="215" y="0" name="bottom"/>
  <anchor x="365" y="500" name="top"/>
  <outline>
    <contour>
      <point x="228" y="-19" type="curve" smooth="yes"/>
      <point x="303" y="-19"/>
      <point x="385" y="11"/>
      <point x="461" y="106" type="curve" smooth="yes"/>
      <point x="478" y="126"/>
      <point x="474" y="141"/>
      <point x="460" y="156" type="curve" smooth="yes"/>
      <point x="446" y="171"/>
      <point x="423" y="180"/>
      <point x="406" y="161" type="curve" smooth="yes"/>
      <point x="359" y="108"/>
      <point x="306" y="60"/>
      <point x="238" y="61" type="curve" smooth="yes"/>
      <point x="169" y="63"/>
      <point x="139" y="105"/>
      <point x="139" y="170" type="curve" smooth="yes"/>
      <point x="139" y="281"/>
      <point x="209" y="439"/>
      <point x="346" y="439" type="curve" smooth="yes"/>
      <point x="401" y="439"/>
      <point x="436" y="424"/>
      <point x="461" y="396" type="curve" smooth="yes"/>
      <point x="479" y="376"/>
      <point x="496" y="380"/>
      <point x="514" y="394" type="curve" smooth="yes"/>
      <point x="530" y="408"/>
      <point x="540" y="424"/>
      <point x="520" y="448" type="curve" smooth="yes"/>
      <point x="480" y="494"/>
      <point x="429" y="519"/>
      <point x="355" y="519" type="curve" smooth="yes"/>
      <point x="150" y="519"/>
      <point x="49" y="318"/>
      <point x="49" y="164" type="curve" smooth="yes"/>
      <point x="49" y="63"/>
      <point x="103" y="-19"/>
    </contour>
  </outline>
</glyph>
<glyph name="d" format="2">
  <advance width="629"/>
  <unicode hex="0064"/>
  <anchor x="171" y="0" name="bottom"/>
  <anchor x="583" y="698" name="center"/>
  <anchor x="343" y="500" name="top"/>
  <anchor x="689" y="908" name="topright"/>
  <outline>
    <contour>
      <point x="148" y="-17" type="curve" smooth="yes"/>
      <point x="216" y="-17"/>
      <point x="300" y="40"/>
      <point x="386" y="159" type="curve"/>
      <point x="385" y="155"/>
      <point x="384" y="150"/>
      <point x="383" y="146" type="curve" smooth="yes"/>
      <point x="350" y="40"/>
      <point x="370" y="-15"/>
      <point x="443" y="-15" type="curve" smooth="yes"/>
      <point x="496" y="-15"/>
      <point x="543" y="14"/>
      <point x="585" y="81" type="curve" smooth="yes"/>
      <point x="593" y="94"/>
      <point x="589" y="108"/>
      <point x="568" y="121" type="curve" smooth="yes"/>
      <point x="553" y="131"/>
      <point x="543" y="129"/>
      <point x="533" y="116" type="curve" smooth="yes"/>
      <point x="500" y="78"/>
      <point x="485" y="61"/>
      <point x="466" y="61" type="curve" smooth="yes"/>
      <point x="450" y="61"/>
      <point x="448" y="75"/>
      <point x="456" y="103" type="curve" smooth="yes"/>
      <point x="704" y="851" type="line" smooth="yes"/>
      <point x="713" y="878"/>
      <point x="704" y="890"/>
      <point x="663" y="890" type="curve" smooth="yes"/>
      <point x="636" y="890"/>
      <point x="626" y="885"/>
      <point x="618" y="858" type="curve" smooth="yes"/>
      <point x="495" y="488" type="line"/>
      <point x="454" y="508"/>
      <point x="406" y="519"/>
      <point x="368" y="519" type="curve" smooth="yes"/>
      <point x="156" y="519"/>
      <point x="35" y="283"/>
      <point x="35" y="130" type="curve" smooth="yes"/>
      <point x="35" y="39"/>
      <point x="80" y="-17"/>
    </contour>
    <contour>
      <point x="126" y="146" type="curve" smooth="yes"/>
      <point x="126" y="253"/>
      <point x="210" y="440"/>
      <point x="354" y="440" type="curve" smooth="yes"/>
      <point x="386" y="440"/>
      <point x="425" y="436"/>
      <point x="471" y="418" type="curve"/>
      <point x="459" y="379" type="line"/>
      <point x="353" y="174"/>
      <point x="246" y="63"/>
      <point x="176" y="63" type="curve" smooth="yes"/>
      <point x="145" y="63"/>
      <point x="126" y="95"/>
    </contour>
  </outline>
</glyph>
<glyph name="g" format="2">
  <advance width="598"/>
  <unicode hex="0067"/>
  <anchor x="359" y="500" name="top"/>
  <outline>
    <contour>
      <point x="120" y="-394" type="curve" smooth="yes"/>
      <point x="243" y="-394"/>
      <point x="309" y="-350"/>
      <point x="374" y="-150" type="curve" smooth="yes"/>
      <point x="579" y="476" type="line" smooth="yes"/>
      <point x="588" y="503"/>
      <point x="579" y="515"/>
      <point x="538" y="515" type="curve" smooth="yes"/>
      <point x="514" y="515"/>
      <point x="501" y="510"/>
      <point x="495" y="491" type="curve" smooth="yes"/>
      <point x="494" y="488" type="line"/>
      <point x="453" y="508"/>
      <point x="407" y="519"/>
      <point x="368" y="519" type="curve" smooth="yes"/>
      <point x="156" y="519"/>
      <point x="35" y="283"/>
      <point x="35" y="130" type="curve" smooth="yes"/>
      <point x="35" y="39"/>
      <point x="80" y="-17"/>
      <point x="148" y="-17" type="curve" smooth="yes"/>
      <point x="217" y="-17"/>
      <point x="302" y="42"/>
      <point x="390" y="164" type="curve"/>
      <point x="289" y="-147" type="line" smooth="yes"/>
      <point x="249" y="-271"/>
      <point x="210" y="-316"/>
      <point x="126" y="-316" type="curve" smooth="yes"/>
      <point x="78" y="-316"/>
      <point x="31" y="-295"/>
      <point x="-2" y="-266" type="curve" smooth="yes"/>
      <point x="-25" y="-246"/>
      <point x="-40" y="-241"/>
      <point x="-61" y="-262" type="curve" smooth="yes"/>
      <point x="-86" y="-286"/>
      <point x="-81" y="-306"/>
      <point x="-52" y="-330" type="curve" smooth="yes"/>
      <point x="-2" y="-371"/>
      <point x="59" y="-394"/>
    </contour>
    <contour>
      <point x="176" y="63" type="curve" smooth="yes"/>
      <point x="145" y="63"/>
      <point x="126" y="95"/>
      <point x="126" y="146" type="curve" smooth="yes"/>
      <point x="126" y="253"/>
      <point x="210" y="440"/>
      <point x="354" y="440" type="curve" smooth="yes"/>
      <point x="387" y="440"/>
      <point x="425" y="436"/>
      <point x="472" y="417" type="curve"/>
      <point x="459" y="378" type="line"/>
      <point x="352" y="174"/>
      <point x="246" y="63"/>
    </contour>
  </outline>
</glyph>
<glyph name="l" format="2">
  <advance width="306"/>
  <unicode hex="006C"/>
  <anchor x="236" y="436" name="CAT"/>
  <anchor x="119" y="0" name="bottom"/>
  <anchor x="204" y="438" name="center"/>
  <anchor x="327" y="838" name="top"/>
  <anchor x="356" y="874" name="topright"/>
  <outline>
    <contour>
      <point x="121" y="-15" type="curve" smooth="yes"/>
      <point x="175" y="-15"/>
      <point x="221" y="14"/>
      <point x="262" y="81" type="curve" smooth="yes"/>
      <point x="270" y="94"/>
      <point x="266" y="108"/>
      <point x="245" y="121" type="curve" smooth="yes"/>
      <point x="230" y="131"/>
      <point x="220" y="129"/>
      <point x="210" y="116" type="curve" smooth="yes"/>
      <point x="179" y="78"/>
      <point x="164" y="61"/>
      <point x="145" y="61" type="curve" smooth="yes"/>
      <point x="129" y="61"/>
      <point x="126" y="75"/>
      <point x="135" y="103" type="curve" smooth="yes"/>
      <point x="382" y="851" type="line" smooth="yes"/>
      <point x="391" y="878"/>
      <point x="382" y="890"/>
      <point x="341" y="890" type="curve" smooth="yes"/>
      <point x="315" y="890"/>
      <point x="305" y="885"/>
      <point x="296" y="858" type="curve" smooth="yes"/>
      <point x="65" y="159" type="line" smooth="yes"/>
      <point x="27" y="45"/>
      <point x="46" y="-15"/>
    </contour>
  </outline>
</glyph>
<glyph name="p" format="2">
  <advance width="599"/>
  <unicode hex="0070"/>
  <outline>
    <contour>
      <point x="-58" y="-390" type="curve" smooth="yes"/>
      <point x="-28" y="-390"/>
      <point x="-16" y="-382"/>
      <point x="-10" y="-364" type="curve" smooth="yes"/>
      <point x="114" y="16" type="line"/>
      <point x="152" y="-4"/>
      <point x="196" y="-17"/>
      <point x="237" y="-17" type="curve" smooth="yes"/>
      <point x="439" y="-17"/>
      <point x="564" y="219"/>
      <point x="564" y="371" type="curve" smooth="yes"/>
      <point x="564" y="463"/>
      <point x="519" y="519"/>
      <point x="451" y="519" type="curve" smooth="yes"/>
      <point x="381" y="519"/>
      <point x="304" y="464"/>
      <point x="222" y="353" type="curve"/>
      <point x="262" y="476" type="line" smooth="yes"/>
      <point x="271" y="503"/>
      <point x="262" y="515"/>
      <point x="221" y="515" type="curve" smooth="yes"/>
      <point x="195" y="515"/>
      <point x="185" y="510"/>
      <point x="176" y="483" type="curve" smooth="yes"/>
      <point x="-95" y="-357" type="line" smooth="yes"/>
      <point x="-104" y="-382"/>
      <point x="-79" y="-390"/>
    </contour>
    <contour>
      <point x="135" y="84" type="curve"/>
      <point x="152" y="139" type="line"/>
      <point x="255" y="333"/>
      <point x="350" y="439"/>
      <point x="422" y="439" type="curve" smooth="yes"/>
      <point x="454" y="439"/>
      <point x="472" y="406"/>
      <point x="472" y="355" type="curve" smooth="yes"/>
      <point x="472" y="250"/>
      <point x="387" y="61"/>
      <point x="247" y="61" type="curve" smooth="yes"/>
      <point x="214" y="61"/>
      <point x="177" y="66"/>
    </contour>
  </outline>
</glyph>
<glyph name="section" format="2">
  <advance width="666"/>
  <unicode hex="00A7"/>
  <outline>
    <contour>
      <point x="208" y="-394" type="curve" smooth="yes"/>
      <point x="363" y="-394"/>
      <point x="490" y="-282"/>
      <point x="490" y="-130" type="curve" smooth="yes"/>
      <point x="490" y="-73"/>
      <point x="472" y="-29"/>
      <point x="443" y="8" type="curve"/>
      <point x="553" y="50"/>
      <point x="643" y="116"/>
      <point x="643" y="244" type="curve" smooth="yes"/>
      <point x="643" y="455"/>
      <point x="319" y="494"/>
      <point x="319" y="666" type="curve" smooth="yes"/>
      <point x="319" y="758"/>
      <point x="374" y="805"/>
      <point x="463" y="805" type="curve" smooth="yes"/>
      <point x="546" y="805"/>
      <point x="618" y="761"/>
      <point x="656" y="724" type="curve" smooth="yes"/>
      <point x="668" y="711"/>
      <point x="685" y="713"/>
      <point x="701" y="726" type="curve" smooth="yes"/>
      <point x="720" y="741"/>
      <point x="725" y="756"/>
      <point x="713" y="771" type="curve" smooth="yes"/>
      <point x="668" y="826"/>
      <point x="560" y="890"/>
      <point x="463" y="890" type="curve" smooth="yes"/>
      <point x="311" y="890"/>
      <point x="226" y="793"/>
      <point x="226" y="666" type="curve" smooth="yes"/>
      <point x="226" y="611"/>
      <point x="246" y="566"/>
      <point x="277" y="527" type="curve"/>
      <point x="170" y="486"/>
      <point x="83" y="419"/>
      <point x="83" y="293" type="curve" smooth="yes"/>
      <point x="83" y="73"/>
      <point x="398" y="39"/>
      <point x="398" y="-130" type="curve" smooth="yes"/>
      <point x="398" y="-247"/>
      <point x="306" y="-309"/>
      <point x="208" y="-309" type="curve" smooth="yes"/>
      <point x="120" y="-309"/>
      <point x="33" y="-266"/>
      <point x="-6" y="-222" type="curve" smooth="yes"/>
      <point x="-19" y="-207"/>
      <point x="-32" y="-211"/>
      <point x="-51" y="-225" type="curve" smooth="yes"/>
      <point x="-66" y="-236"/>
      <point x="-79" y="-251"/>
      <point x="-67" y="-266" type="curve" smooth="yes"/>
      <point x="-16" y="-331"/>
      <point x="89" y="-394"/>
    </contour>
    <contour>
      <point x="394" y="60" type="curve"/>
      <point x="301" y="139"/>
      <point x="175" y="186"/>
      <point x="175" y="293" type="curve" smooth="yes"/>
      <point x="175" y="383"/>
      <point x="233" y="438"/>
      <point x="326" y="476" type="curve"/>
      <point x="421" y="391"/>
      <point x="550" y="336"/>
      <point x="550" y="244" type="curve" smooth="yes"/>
      <point x="550" y="152"/>
      <point x="490" y="98"/>
    </contour>
  </outline>
</glyph>
<glyph name="ordfeminine" format="2">
  <advance width="480"/>
  <unicode hex="00AA"/>
  <outline>
    <contour>
      <point x="254" y="486" type="curve" smooth="yes"/>
      <point x="303" y="486"/>
      <point x="359" y="524"/>
      <point x="422" y="598" type="curve"/>
      <point x="418" y="583"/>
      <point x="415" y="567"/>
      <point x="415" y="552" type="curve" smooth="yes"/>
      <point x="415" y="519"/>
      <point x="429" y="489"/>
      <point x="480" y="489" type="curve" smooth="yes"/>
      <point x="540" y="489"/>
      <point x="576" y="539"/>
      <point x="590" y="563" type="curve" smooth="yes"/>
      <point x="595" y="573"/>
      <point x="591" y="585"/>
      <point x="574" y="596" type="curve" smooth="yes"/>
      <point x="559" y="606"/>
      <point x="550" y="603"/>
      <point x="541" y="593" type="curve" smooth="yes"/>
      <point x="519" y="565"/>
      <point x="510" y="558"/>
      <point x="499" y="558" type="curve" smooth="yes"/>
      <point x="491" y="558"/>
      <point x="489" y="564"/>
      <point x="495" y="583" type="curve" smooth="yes"/>
      <point x="590" y="863" type="line" smooth="yes"/>
      <point x="598" y="885"/>
      <point x="589" y="896"/>
      <point x="555" y="896" type="curve" smooth="yes"/>
      <point x="538" y="896"/>
      <point x="526" y="891"/>
      <point x="518" y="883" type="curve" smooth="yes"/>
      <point x="515" y="880" type="line"/>
      <point x="485" y="893"/>
      <point x="451" y="900"/>
      <point x="424" y="900" type="curve" smooth="yes"/>
      <point x="260" y="900"/>
      <point x="168" y="716"/>
      <point x="168" y="600" type="curve" smooth="yes"/>
      <point x="168" y="530"/>
      <point x="203" y="486"/>
    </contour>
    <contour>
      <point x="251" y="616" type="curve" smooth="yes"/>
      <point x="251" y="689"/>
      <point x="308" y="828"/>
      <point x="411" y="828" type="curve" smooth="yes"/>
      <point x="441" y="828"/>
      <point x="468" y="824"/>
      <point x="494" y="815" type="curve"/>
      <point x="486" y="795" type="line"/>
      <point x="408" y="645"/>
      <point x="331" y="560"/>
      <point x="283" y="560" type="curve" smooth="yes"/>
      <point x="264" y="560"/>
      <point x="251" y="581"/>
    </contour>
  </outline>
</glyph>
<glyph name="registered" format="2">
  <advance width="683"/>
  <unicode hex="00AE"/>
  <outline>
    <contour>
      <point x="481" y="428" type="curve" smooth="yes"/>
      <point x="638" y="428"/>
      <point x="763" y="553"/>
      <point x="763" y="709" type="curve" smooth="yes"/>
      <point x="763" y="865"/>
      <point x="638" y="990"/>
      <point x="481" y="990" type="curve" smooth="yes"/>
      <point x="325" y="990"/>
      <point x="200" y="865"/>
      <point x="200" y="709" type="curve" smooth="yes"/>
      <point x="200" y="553"/>
      <point x="325" y="428"/>
    </contour>
    <contour>
      <point x="481" y="465" type="curve" smooth="yes"/>
      <point x="348" y="465"/>
      <point x="238" y="575"/>
      <point x="238" y="709" type="curve" smooth="yes"/>
      <point x="238" y="843"/>
      <point x="348" y="953"/>
      <point x="481" y="953" type="curve" smooth="yes"/>
      <point x="615" y="953"/>
      <point x="725" y="843"/>
      <point x="725" y="709" type="curve" smooth="yes"/>
      <point x="725" y="575"/>
      <point x="615" y="465"/>
    </contour>
    <contour>
      <point x="406" y="536" type="curve" smooth="yes"/>
      <point x="431" y="536"/>
      <point x="440" y="544"/>
      <point x="440" y="558" type="curve" smooth="yes"/>
      <point x="440" y="684" type="line"/>
      <point x="476" y="629"/>
      <point x="518" y="585"/>
      <point x="564" y="548" type="curve" smooth="yes"/>
      <point x="581" y="534"/>
      <point x="595" y="536"/>
      <point x="611" y="554" type="curve" smooth="yes"/>
      <point x="628" y="573"/>
      <point x="625" y="585"/>
      <point x="608" y="599" type="curve" smooth="yes"/>
      <point x="571" y="628"/>
      <point x="539" y="658"/>
      <point x="508" y="699" type="curve"/>
      <point x="565" y="714"/>
      <point x="605" y="746"/>
      <point x="605" y="799" type="curve" smooth="yes"/>
      <point x="605" y="868"/>
      <point x="556" y="891"/>
      <point x="473" y="891" type="curve" smooth="yes"/>
      <point x="413" y="891" type="line" smooth="yes"/>
      <point x="388" y="891"/>
      <point x="374" y="884"/>
      <point x="374" y="870" type="curve" smooth="yes"/>
      <point x="374" y="558" type="line" smooth="yes"/>
      <point x="374" y="544"/>
      <point x="383" y="536"/>
    </contour>
    <contour>
      <point x="440" y="744" type="curve"/>
      <point x="440" y="825" type="line"/>
      <point x="490" y="825" type="line" smooth="yes"/>
      <point x="515" y="825"/>
      <point x="538" y="815"/>
      <point x="538" y="793" type="curve" smooth="yes"/>
      <point x="538" y="759"/>
      <point x="498" y="744"/>
    </contour>
  </outline>
</glyph>
<glyph name="Thorn" format="2">
  <advance width="725"/>
  <unicode hex="00DE"/>
  <outline>
    <contour>
      <point x="89" y="-14" type="curve" smooth="yes"/>
      <point x="119" y="-14"/>
      <point x="131" y="-5"/>
      <point x="138" y="14" type="curve" smooth="yes"/>
      <point x="208" y="233" type="line"/>
      <point x="254" y="233"/>
      <point x="314" y="235"/>
      <point x="364" y="241" type="curve" smooth="yes"/>
      <point x="599" y="271"/>
      <point x="766" y="364"/>
      <point x="766" y="566" type="curve" smooth="yes"/>
      <point x="766" y="696"/>
      <point x="673" y="763"/>
      <point x="488" y="763" type="curve" smooth="yes"/>
      <point x="380" y="763" type="line"/>
      <point x="413" y="860" type="line" smooth="yes"/>
      <point x="419" y="881"/>
      <point x="404" y="890"/>
      <point x="374" y="890" type="curve" smooth="yes"/>
      <point x="344" y="890"/>
      <point x="331" y="881"/>
      <point x="325" y="863" type="curve" smooth="yes"/>
      <point x="50" y="16" type="line" smooth="yes"/>
      <point x="44" y="-5"/>
      <point x="59" y="-14"/>
    </contour>
    <contour>
      <point x="233" y="313" type="curve"/>
      <point x="353" y="683" type="line"/>
      <point x="474" y="683" type="line" smooth="yes"/>
      <point x="616" y="683"/>
      <point x="676" y="645"/>
      <point x="676" y="555" type="curve" smooth="yes"/>
      <point x="676" y="424"/>
      <point x="574" y="351"/>
      <point x="390" y="323" type="curve" smooth="yes"/>
      <point x="340" y="315"/>
      <point x="280" y="313"/>
    </contour>
  </outline>
</glyph>
<glyph name="eth" format="2">
  <advance width="603"/>
  <unicode hex="00F0"/>
  <outline>
    <contour>
      <point x="254" y="-19" type="curve" smooth="yes"/>
      <point x="428" y="-19"/>
      <point x="554" y="144"/>
      <point x="554" y="394" type="curve" smooth="yes"/>
      <point x="554" y="545"/>
      <point x="516" y="706"/>
      <point x="425" y="870" type="curve" smooth="yes"/>
      <point x="413" y="893"/>
      <point x="396" y="898"/>
      <point x="375" y="888" type="curve" smooth="yes"/>
      <point x="353" y="876"/>
      <point x="345" y="861"/>
      <point x="355" y="844" type="curve" smooth="yes"/>
      <point x="417" y="731"/>
      <point x="449" y="618"/>
      <point x="459" y="495" type="curve"/>
      <point x="425" y="511"/>
      <point x="387" y="519"/>
      <point x="345" y="519" type="curve" smooth="yes"/>
      <point x="164" y="519"/>
      <point x="63" y="318"/>
      <point x="63" y="176" type="curve" smooth="yes"/>
      <point x="63" y="63"/>
      <point x="129" y="-19"/>
    </contour>
    <contour>
      <point x="153" y="183" type="curve" smooth="yes"/>
      <point x="153" y="281"/>
      <point x="223" y="439"/>
      <point x="343" y="439" type="curve" smooth="yes"/>
      <point x="389" y="439"/>
      <point x="428" y="429"/>
      <point x="462" y="412" type="curve"/>
      <point x="463" y="409"/>
      <point x="463" y="406"/>
      <point x="463" y="404" type="curve" smooth="yes"/>
      <point x="463" y="179"/>
      <point x="379" y="61"/>
      <point x="264" y="61" type="curve" smooth="yes"/>
      <point x="195" y="61"/>
      <point x="153" y="105"/>
    </contour>
    <contour>
      <point x="331" y="620" type="curve" smooth="yes"/>
      <point x="610" y="725" type="line" smooth="yes"/>
      <point x="625" y="730"/>
      <point x="630" y="740"/>
      <point x="624" y="761" type="curve" smooth="yes"/>
      <point x="618" y="783"/>
      <point x="605" y="791"/>
      <point x="589" y="785" type="curve" smooth="yes"/>
      <point x="313" y="681" type="line" smooth="yes"/>
      <point x="299" y="676"/>
      <point x="293" y="666"/>
      <point x="296" y="649" type="curve" smooth="yes"/>
      <point x="303" y="624"/>
      <point x="318" y="615"/>
    </contour>
  </outline>
</glyph>
<glyph name="eng" format="2">
  <advance width="613"/>
  <unicode hex="014B"/>
  <outline>
    <contour>
      <point x="404" y="-109" type="curve" smooth="yes"/>
      <point x="548" y="321" type="line" smooth="yes"/>
      <point x="590" y="450"/>
      <point x="560" y="519"/>
      <point x="468" y="519" type="curve" smooth="yes"/>
      <point x="378" y="519"/>
      <point x="285" y="448"/>
      <point x="204" y="320" type="curve"/>
      <point x="255" y="476" type="line" smooth="yes"/>
      <point x="264" y="503"/>
      <point x="255" y="515"/>
      <point x="214" y="515" type="curve" smooth="yes"/>
      <point x="188" y="515"/>
      <point x="178" y="510"/>
      <point x="169" y="483" type="curve" smooth="yes"/>
      <point x="19" y="18" type="line" smooth="yes"/>
      <point x="10" y="-7"/>
      <point x="35" y="-15"/>
      <point x="56" y="-15" type="curve" smooth="yes"/>
      <point x="86" y="-15"/>
      <point x="98" y="-7"/>
      <point x="104" y="11" type="curve" smooth="yes"/>
      <point x="114" y="44" type="line"/>
      <point x="210" y="274"/>
      <point x="345" y="439"/>
      <point x="435" y="439" type="curve" smooth="yes"/>
      <point x="490" y="439"/>
      <point x="484" y="394"/>
      <point x="468" y="344" type="curve" smooth="yes"/>
      <point x="323" y="-87" type="line" smooth="yes"/>
      <point x="300" y="-156"/>
      <point x="290" y="-180"/>
      <point x="264" y="-180" type="curve" smooth="yes"/>
      <point x="246" y="-180"/>
      <point x="233" y="-170"/>
      <point x="209" y="-141" type="curve" smooth="yes"/>
      <point x="196" y="-125"/>
      <point x="180" y="-125"/>
      <point x="160" y="-140" type="curve" smooth="yes"/>
      <point x="135" y="-159"/>
      <point x="139" y="-172"/>
      <point x="153" y="-192" type="curve" smooth="yes"/>
      <point x="180" y="-232"/>
      <point x="218" y="-255"/>
      <point x="256" y="-255" type="curve" smooth="yes"/>
      <point x="319" y="-255"/>
      <point x="361" y="-237"/>
    </contour>
  </outline>
</glyph>
<glyph name="jdotless" format="2">
  <advance width="268"/>
  <unicode hex="0237"/>
  <anchor x="211" y="500" name="top"/>
  <outline>
    <contour>
      <point x="-115" y="-394" type="curve" smooth="yes"/>
      <point x="-65" y="-394"/>
      <point x="-26" y="-375"/>
      <point x="15" y="-247" type="curve" smooth="yes"/>
      <point x="254" y="489" type="line" smooth="yes"/>
      <point x="259" y="506"/>
      <point x="248" y="515"/>
      <point x="219" y="515" type="curve" smooth="yes"/>
      <point x="190" y="515"/>
      <point x="173" y="506"/>
      <point x="168" y="489" type="curve" smooth="yes"/>
      <point x="-72" y="-251" type="line" smooth="yes"/>
      <point x="-90" y="-305"/>
      <point x="-96" y="-319"/>
      <point x="-114" y="-319" type="curve" smooth="yes"/>
      <point x="-137" y="-319"/>
      <point x="-156" y="-306"/>
      <point x="-185" y="-280" type="curve" smooth="yes"/>
      <point x="-202" y="-265"/>
      <point x="-214" y="-266"/>
      <point x="-234" y="-284" type="curve" smooth="yes"/>
      <point x="-254" y="-300"/>
      <point x="-257" y="-321"/>
      <point x="-240" y="-339" type="curve" smooth="yes"/>
      <point x="-214" y="-366"/>
      <point x="-166" y="-394"/>
    </contour>
  </outline>
</glyph>
<glyph name="dieresiscomb" format="2">
  <unicode hex="0308"/>
  <anchor x="81" y="500" name="_top"/>
  <anchor x="139" y="706" name="top"/>
  <outline>
    <contour>
      <point x="26" y="669" type="curve" smooth="yes"/>
      <point x="76" y="669"/>
      <point x="99" y="708"/>
      <point x="99" y="744" type="curve" smooth="yes"/>
      <point x="99" y="778"/>
      <point x="78" y="795"/>
      <point x="50" y="795" type="curve" smooth="yes"/>
      <point x="0" y="795"/>
      <point x="-22" y="756"/>
      <point x="-22" y="720" type="curve" smooth="yes"/>
      <point x="-22" y="686"/>
      <point x="-1" y="669"/>
    </contour>
    <contour>
      <point x="263" y="669" type="curve" smooth="yes"/>
      <point x="313" y="669"/>
      <point x="335" y="708"/>
      <point x="335" y="744" type="curve" smooth="yes"/>
      <point x="335" y="778"/>
      <point x="314" y="795"/>
      <point x="286" y="795" type="curve" smooth="yes"/>
      <point x="236" y="795"/>
      <point x="214" y="756"/>
      <point x="214" y="720" type="curve" smooth="yes"/>
      <point x="214" y="686"/>
      <point x="235" y="669"/>
    </contour>
  </outline>
</glyph>
<glyph name="hookabovecomb" format="2">
  <unicode hex="0309"/>
  <anchor x="81" y="500" name="_top"/>
  <anchor x="170" y="774" name="top"/>
  <outline>
    <contour>
      <point x="160" y="860" type="curve" smooth="yes"/>
      <point x="121" y="860"/>
      <point x="90" y="853"/>
      <point x="58" y="838" type="curve" smooth="yes"/>
      <point x="38" y="828"/>
      <point x="33" y="815"/>
      <point x="41" y="794" type="curve" smooth="yes"/>
      <point x="50" y="774"/>
      <point x="64" y="768"/>
      <point x="81" y="775" type="curve" smooth="yes"/>
      <point x="103" y="783"/>
      <point x="121" y="788"/>
      <point x="134" y="788" type="curve" smooth="yes"/>
      <point x="150" y="788"/>
      <point x="158" y="783"/>
      <point x="158" y="771" type="curve" smooth="yes"/>
      <point x="158" y="761"/>
      <point x="146" y="748"/>
      <point x="124" y="731" type="curve" smooth="yes"/>
      <point x="98" y="713"/>
      <point x="88" y="693"/>
      <point x="88" y="660" type="curve" smooth="yes"/>
      <point x="88" y="633" type="line" smooth="yes"/>
      <point x="88" y="599"/>
      <point x="153" y="596"/>
      <point x="159" y="630" type="curve" smooth="yes"/>
      <point x="163" y="651" type="line" smooth="yes"/>
      <point x="165" y="665"/>
      <point x="174" y="675"/>
      <point x="195" y="690" type="curve" smooth="yes"/>
      <point x="236" y="719"/>
      <point x="255" y="749"/>
      <point x="255" y="785" type="curve" smooth="yes"/>
      <point x="255" y="833"/>
      <point x="220" y="860"/>
    </contour>
  </outline>
</glyph>
<glyph name="ringcomb" format="2">
  <unicode hex="030A"/>
  <anchor x="81" y="500" name="_top"/>
  <anchor x="184" y="818" name="top"/>
  <outline>
    <contour>
      <point x="135" y="601" type="curve" smooth="yes"/>
      <point x="225" y="601"/>
      <point x="293" y="665"/>
      <point x="293" y="748" type="curve" smooth="yes"/>
      <point x="293" y="821"/>
      <point x="250" y="860"/>
      <point x="173" y="860" type="curve" smooth="yes"/>
      <point x="88" y="860"/>
      <point x="20" y="796"/>
      <point x="20" y="715" type="curve" smooth="yes"/>
      <point x="20" y="641"/>
      <point x="61" y="601"/>
    </contour>
    <contour>
      <point x="140" y="661" type="curve" smooth="yes"/>
      <point x="109" y="661"/>
      <point x="93" y="680"/>
      <point x="93" y="716" type="curve" smooth="yes"/>
      <point x="93" y="760"/>
      <point x="129" y="800"/>
      <point x="169" y="800" type="curve" smooth="yes"/>
      <point x="204" y="800"/>
      <point x="220" y="783"/>
      <point x="220" y="746" type="curve" smooth="yes"/>
      <point x="220" y="701"/>
      <point x="183" y="661"/>
    </contour>
  </outline>
</glyph>
<glyph name="quoteleft" format="2">
  <advance width="214"/>
  <unicode hex="2018"/>
  <outline>
    <contour>
      <point x="240" y="650" type="curve" smooth="yes"/>
      <point x="273" y="650"/>
      <point x="292" y="669"/>
      <point x="293" y="694" type="curve" smooth="yes"/>
      <point x="295" y="755"/>
      <point x="314" y="798"/>
      <point x="369" y="870" type="curve" smooth="yes"/>
      <point x="374" y="878"/>
      <point x="377" y="884"/>
      <point x="377" y="890" type="curve" smooth="yes"/>
      <point x="377" y="904"/>
      <point x="357" y="920"/>
      <point x="343" y="920" type="curve" smooth="yes"/>
      <point x="335" y="920"/>
      <point x="325" y="916"/>
      <point x="314" y="908" type="curve" smooth="yes"/>
      <point x="244" y="854"/>
      <point x="193" y="756"/>
      <point x="193" y="690" type="curve" smooth="yes"/>
      <point x="193" y="668"/>
      <point x="208" y="650"/>
    </contour>
  </outline>
</glyph>
<glyph name="quoteright" format="2">
  <advance width="214"/>
  <unicode hex="2019"/>
  <outline>
    <contour>
      <point x="315" y="920" type="curve" smooth="yes"/>
      <point x="282" y="920"/>
      <point x="263" y="901"/>
      <point x="262" y="876" type="curve" smooth="yes"/>
      <point x="260" y="815"/>
      <point x="241" y="772"/>
      <point x="186" y="700" type="curve" smooth="yes"/>
      <point x="181" y="692"/>
      <point x="178" y="686"/>
      <point x="178" y="680" type="curve" smooth="yes"/>
      <point x="178" y="666"/>
      <point x="198" y="650"/>
      <point x="212" y="650" type="curve" smooth="yes"/>
      <point x="220" y="650"/>
      <point x="230" y="654"/>
      <point x="241" y="662" type="curve" smooth="yes"/>
      <point x="311" y="716"/>
      <point x="362" y="814"/>
      <point x="362" y="880" type="curve" smooth="yes"/>
      <point x="362" y="902"/>
      <point x="347" y="920"/>
    </contour>
  </outline>
</glyph>
<glyph name="euro" format="2">
  <advance width="775"/>
  <unicode hex="20AC"/>
  <outline>
    <contour>
      <point x="400" y="-19" type="curve" smooth="yes"/>
      <point x="493" y="-19"/>
      <point x="604" y="19"/>
      <point x="693" y="116" type="curve" smooth="yes"/>
      <point x="708" y="133"/>
      <point x="704" y="149"/>
      <point x="686" y="163" type="curve" smooth="yes"/>
      <point x="670" y="176"/>
      <point x="658" y="176"/>
      <point x="640" y="160" type="curve" smooth="yes"/>
      <point x="574" y="99"/>
      <point x="489" y="65"/>
      <point x="409" y="65" type="curve" smooth="yes"/>
      <point x="301" y="65"/>
      <point x="246" y="161"/>
      <point x="246" y="299" type="curve" smooth="yes"/>
      <point x="246" y="495"/>
      <point x="406" y="806"/>
      <point x="626" y="806" type="curve" smooth="yes"/>
      <point x="690" y="806"/>
      <point x="741" y="779"/>
      <point x="784" y="733" type="curve" smooth="yes"/>
      <point x="796" y="720"/>
      <point x="811" y="715"/>
      <point x="831" y="729" type="curve" smooth="yes"/>
      <point x="853" y="743"/>
      <point x="853" y="756"/>
      <point x="844" y="771" type="curve" smooth="yes"/>
      <point x="799" y="848"/>
      <point x="724" y="890"/>
      <point x="634" y="890" type="curve" smooth="yes"/>
      <point x="353" y="890"/>
      <point x="156" y="548"/>
      <point x="156" y="298" type="curve" smooth="yes"/>
      <point x="156" y="130"/>
      <point x="238" y="-19"/>
    </contour>
    <contour>
      <point x="130" y="483" type="curve" smooth="yes"/>
      <point x="629" y="483" type="line" smooth="yes"/>
      <point x="649" y="483"/>
      <point x="659" y="491"/>
      <point x="669" y="521" type="curve" smooth="yes"/>
      <point x="679" y="551"/>
      <point x="674" y="560"/>
      <point x="654" y="560" type="curve" smooth="yes"/>
      <point x="155" y="560" type="line" smooth="yes"/>
      <point x="135" y="560"/>
      <point x="125" y="551"/>
      <point x="115" y="521" type="curve" smooth="yes"/>
      <point x="105" y="491"/>
      <point x="110" y="483"/>
    </contour>
    <contour>
      <point x="81" y="333" type="curve" smooth="yes"/>
      <point x="580" y="333" type="line" smooth="yes"/>
      <point x="600" y="333"/>
      <point x="610" y="341"/>
      <point x="620" y="371" type="curve" smooth="yes"/>
      <point x="630" y="401"/>
      <point x="625" y="410"/>
      <point x="605" y="410" type="curve" smooth="yes"/>
      <point x="106" y="410" type="line" smooth="yes"/>
      <point x="86" y="410"/>
      <point x="76" y="401"/>
      <point x="66" y="371" type="curve" smooth="yes"/>
      <point x="56" y="341"/>
      <point x="61" y="333"/>
    </contour>
  </outline>
</glyph>
<glyph name="A.cur_locl" format="2">
  <advance width="979"/>
  <anchor x="309" y="0" name="bottom"/>
  <anchor x="805" y="13" name="ogonek"/>
  <anchor x="655" y="838" name="top"/>
  <outline>
    <contour>
      <point x="308" y="-17" type="curve" smooth="yes"/>
      <point x="434" y="-17"/>
      <point x="573" y="84"/>
      <point x="710" y="281" type="curve"/>
      <point x="678" y="181" type="line" smooth="yes"/>
      <point x="631" y="43"/>
      <point x="660" y="-17"/>
      <point x="736" y="-17" type="curve" smooth="yes"/>
      <point x="815" y="-17"/>
      <point x="885" y="73"/>
      <point x="913" y="111" type="curve" smooth="yes"/>
      <point x="926" y="130"/>
      <point x="923" y="151"/>
      <point x="901" y="165" type="curve" smooth="yes"/>
      <point x="884" y="176"/>
      <point x="869" y="175"/>
      <point x="854" y="154" type="curve" smooth="yes"/>
      <point x="804" y="89"/>
      <point x="779" y="68"/>
      <point x="760" y="68" type="curve" smooth="yes"/>
      <point x="736" y="68"/>
      <point x="739" y="100"/>
      <point x="763" y="171" type="curve" smooth="yes"/>
      <point x="990" y="860" type="line" smooth="yes"/>
      <point x="998" y="881"/>
      <point x="981" y="890"/>
      <point x="951" y="890" type="curve" smooth="yes"/>
      <point x="923" y="890"/>
      <point x="909" y="881"/>
      <point x="903" y="863" type="curve" smooth="yes"/>
      <point x="886" y="813" type="line"/>
      <point x="836" y="864"/>
      <point x="764" y="890"/>
      <point x="675" y="890" type="curve" smooth="yes"/>
      <point x="376" y="890"/>
      <point x="99" y="569"/>
      <point x="99" y="236" type="curve" smooth="yes"/>
      <point x="99" y="85"/>
      <point x="184" y="-17"/>
    </contour>
    <contour>
      <point x="190" y="234" type="curve" smooth="yes"/>
      <point x="190" y="506"/>
      <point x="421" y="805"/>
      <point x="661" y="805" type="curve" smooth="yes"/>
      <point x="758" y="805"/>
      <point x="816" y="781"/>
      <point x="858" y="728" type="curve"/>
      <point x="798" y="544" type="line"/>
      <point x="633" y="245"/>
      <point x="460" y="68"/>
      <point x="325" y="68" type="curve" smooth="yes"/>
      <point x="254" y="68"/>
      <point x="190" y="120"/>
    </contour>
  </outline>
</glyph>
<glyph name="A.dec" format="2">
  <advance width="931"/>
  <anchor x="481" y="0" name="bottom"/>
  <anchor x="750" y="0" name="ogonek"/>
  <anchor x="728" y="838" name="top"/>
  <outline>
    <contour>
      <point x="138" y="-17" type="curve" smooth="yes"/>
      <point x="242" y="-17"/>
      <point x="343" y="40"/>
      <point x="721" y="733" type="curve"/>
      <point x="695" y="497"/>
      <point x="678" y="261"/>
      <point x="691" y="9" type="curve" smooth="yes"/>
      <point x="693" y="-11"/>
      <point x="705" y="-19"/>
      <point x="733" y="-16" type="curve" smooth="yes"/>
      <point x="764" y="-14"/>
      <point x="776" y="-2"/>
      <point x="775" y="19" type="curve" smooth="yes"/>
      <point x="764" y="309"/>
      <point x="785" y="588"/>
      <point x="818" y="849" type="curve"/>
      <point x="820" y="878"/>
      <point x="799" y="890"/>
      <point x="761" y="890" type="curve" smooth="yes"/>
      <point x="734" y="890"/>
      <point x="715" y="880"/>
      <point x="703" y="858" type="curve" smooth="yes"/>
      <point x="304" y="125"/>
      <point x="218" y="64"/>
      <point x="143" y="64" type="curve" smooth="yes"/>
      <point x="114" y="64"/>
      <point x="88" y="76"/>
      <point x="61" y="103" type="curve" smooth="yes"/>
      <point x="48" y="116"/>
      <point x="33" y="118"/>
      <point x="14" y="100" type="curve" smooth="yes"/>
      <point x="-6" y="83"/>
      <point x="-10" y="66"/>
      <point x="4" y="49" type="curve" smooth="yes"/>
      <point x="18" y="31"/>
      <point x="70" y="-17"/>
    </contour>
    <contour>
      <point x="690" y="34" type="curve"/>
      <point x="748" y="40" type="line"/>
      <point x="739" y="353"/>
      <point x="545" y="414"/>
      <point x="411" y="414" type="curve" smooth="yes"/>
      <point x="289" y="414"/>
      <point x="200" y="351"/>
      <point x="200" y="264" type="curve" smooth="yes"/>
      <point x="200" y="164"/>
      <point x="304" y="114"/>
      <point x="440" y="114" type="curve" smooth="yes"/>
      <point x="581" y="114"/>
      <point x="695" y="154"/>
      <point x="893" y="220" type="curve" smooth="yes"/>
      <point x="914" y="228"/>
      <point x="920" y="245"/>
      <point x="910" y="271" type="curve" smooth="yes"/>
      <point x="903" y="294"/>
      <point x="888" y="301"/>
      <point x="871" y="295" type="curve" smooth="yes"/>
      <point x="691" y="233"/>
      <point x="603" y="191"/>
      <point x="454" y="191" type="curve" smooth="yes"/>
      <point x="358" y="191"/>
      <point x="289" y="213"/>
      <point x="289" y="268" type="curve" smooth="yes"/>
      <point x="289" y="310"/>
      <point x="331" y="336"/>
      <point x="400" y="336" type="curve" smooth="yes"/>
      <point x="521" y="336"/>
      <point x="674" y="294"/>
    </contour>
  </outline>
</glyph>
<glyph name="A.dec_locl.ini" format="2">
  <advance width="969"/>
  <anchor x="481" y="0" name="bottom"/>
  <anchor x="888" y="0" name="cnct"/>
  <anchor x="810" y="0" name="ogonek"/>
  <anchor x="728" y="838" name="top"/>
  <outline>
    <contour>
      <point x="138" y="-17" type="curve" smooth="yes"/>
      <point x="211" y="-17"/>
      <point x="282" y="11"/>
      <point x="448" y="266" type="curve"/>
      <point x="691" y="266" type="line"/>
      <point x="690" y="241"/>
      <point x="690" y="215"/>
      <point x="690" y="190" type="curve" smooth="yes"/>
      <point x="690" y="40"/>
      <point x="723" y="-17"/>
      <point x="801" y="-17" type="curve" smooth="yes"/>
      <point x="851" y="-17"/>
      <point x="870" y="58"/>
      <point x="820" y="58" type="curve" smooth="yes"/>
      <point x="789" y="58"/>
      <point x="776" y="96"/>
      <point x="776" y="190" type="curve" smooth="yes"/>
      <point x="776" y="411"/>
      <point x="791" y="636"/>
      <point x="818" y="849" type="curve"/>
      <point x="820" y="878"/>
      <point x="799" y="890"/>
      <point x="761" y="890" type="curve" smooth="yes"/>
      <point x="734" y="890"/>
      <point x="715" y="880"/>
      <point x="703" y="858" type="curve" smooth="yes"/>
      <point x="304" y="125"/>
      <point x="218" y="64"/>
      <point x="143" y="64" type="curve" smooth="yes"/>
      <point x="114" y="64"/>
      <point x="88" y="76"/>
      <point x="61" y="103" type="curve" smooth="yes"/>
      <point x="48" y="116"/>
      <point x="33" y="118"/>
      <point x="14" y="100" type="curve" smooth="yes"/>
      <point x="-6" y="83"/>
      <point x="-10" y="66"/>
      <point x="4" y="49" type="curve" smooth="yes"/>
      <point x="18" y="31"/>
      <point x="70" y="-17"/>
    </contour>
    <contour>
      <point x="498" y="344" type="line"/>
      <point x="560" y="444"/>
      <point x="633" y="573"/>
      <point x="722" y="736" type="curve"/>
      <point x="709" y="606"/>
      <point x="698" y="476"/>
      <point x="693" y="344" type="curve"/>
    </contour>
  </outline>
</glyph>
<glyph name="AE.cur" format="2">
  <advance width="1287"/>
  <anchor x="903" y="838" name="top"/>
  <outline>
    <contour>
      <point x="111" y="-17" type="curve" smooth="yes"/>
      <point x="195" y="-17"/>
      <point x="259" y="26"/>
      <point x="426" y="263" type="curve"/>
      <point x="656" y="263" type="line"/>
      <point x="654" y="247"/>
      <point x="653" y="231"/>
      <point x="651" y="215" type="curve" smooth="yes"/>
      <point x="649" y="191"/>
      <point x="663" y="181"/>
      <point x="691" y="188" type="curve" smooth="yes"/>
      <point x="724" y="195"/>
      <point x="738" y="209"/>
      <point x="740" y="233" type="curve" smooth="yes"/>
      <point x="764" y="464"/>
      <point x="793" y="628"/>
      <point x="848" y="834" type="curve" smooth="yes"/>
      <point x="859" y="875"/>
      <point x="844" y="890"/>
      <point x="805" y="890" type="curve" smooth="yes"/>
      <point x="769" y="890"/>
      <point x="740" y="883"/>
      <point x="714" y="843" type="curve" smooth="yes"/>
      <point x="268" y="163"/>
      <point x="190" y="64"/>
      <point x="116" y="64" type="curve" smooth="yes"/>
      <point x="95" y="64"/>
      <point x="75" y="73"/>
      <point x="56" y="89" type="curve" smooth="yes"/>
      <point x="43" y="100"/>
      <point x="28" y="104"/>
      <point x="9" y="86" type="curve" smooth="yes"/>
      <point x="-11" y="69"/>
      <point x="-12" y="54"/>
      <point x="-1" y="35" type="curve" smooth="yes"/>
      <point x="14" y="11"/>
      <point x="58" y="-17"/>
    </contour>
    <contour>
      <point x="482" y="343" type="line"/>
      <point x="551" y="445"/>
      <point x="636" y="575"/>
      <point x="742" y="740" type="curve"/>
      <point x="705" y="602"/>
      <point x="682" y="484"/>
      <point x="665" y="343" type="curve"/>
    </contour>
    <contour>
      <point x="878" y="-19" type="curve" smooth="yes"/>
      <point x="1025" y="-19"/>
      <point x="1138" y="48"/>
      <point x="1224" y="169" type="curve" smooth="yes"/>
      <point x="1240" y="193"/>
      <point x="1241" y="211"/>
      <point x="1225" y="224" type="curve" smooth="yes"/>
      <point x="1201" y="244"/>
      <point x="1183" y="244"/>
      <point x="1164" y="216" type="curve" smooth="yes"/>
      <point x="1098" y="124"/>
      <point x="1003" y="69"/>
      <point x="900" y="69" type="curve" smooth="yes"/>
      <point x="795" y="69"/>
      <point x="744" y="131"/>
      <point x="744" y="213" type="curve" smooth="yes"/>
      <point x="744" y="383"/>
      <point x="915" y="419"/>
      <point x="1064" y="419" type="curve" smooth="yes"/>
      <point x="1133" y="419" type="line" smooth="yes"/>
      <point x="1153" y="419"/>
      <point x="1164" y="430"/>
      <point x="1173" y="459" type="curve" smooth="yes"/>
      <point x="1181" y="489"/>
      <point x="1179" y="499"/>
      <point x="1156" y="499" type="curve" smooth="yes"/>
      <point x="1094" y="499" type="line" smooth="yes"/>
      <point x="984" y="499"/>
      <point x="939" y="573"/>
      <point x="939" y="645" type="curve" smooth="yes"/>
      <point x="939" y="729"/>
      <point x="1005" y="803"/>
      <point x="1098" y="803" type="curve" smooth="yes"/>
      <point x="1174" y="803"/>
      <point x="1226" y="775"/>
      <point x="1274" y="723" type="curve" smooth="yes"/>
      <point x="1294" y="701"/>
      <point x="1316" y="703"/>
      <point x="1334" y="719" type="curve" smooth="yes"/>
      <point x="1351" y="731"/>
      <point x="1354" y="749"/>
      <point x="1340" y="770" type="curve" smooth="yes"/>
      <point x="1298" y="838"/>
      <point x="1213" y="890"/>
      <point x="1113" y="890" type="curve" smooth="yes"/>
      <point x="953" y="890"/>
      <point x="848" y="779"/>
      <point x="848" y="643" type="curve" smooth="yes"/>
      <point x="848" y="579"/>
      <point x="881" y="504"/>
      <point x="950" y="476" type="curve"/>
      <point x="799" y="461"/>
      <point x="650" y="381"/>
      <point x="650" y="203" type="curve" smooth="yes"/>
      <point x="650" y="80"/>
      <point x="726" y="-19"/>
    </contour>
  </outline>
</glyph>
<glyph name="C.cur" format="2">
  <advance width="775"/>
  <anchor x="356" y="0" name="bottom"/>
  <anchor x="615" y="838" name="top"/>
  <outline>
    <contour>
      <point x="413" y="-19" type="curve" smooth="yes"/>
      <point x="496" y="-19"/>
      <point x="621" y="14"/>
      <point x="743" y="173" type="curve" smooth="yes"/>
      <point x="758" y="193"/>
      <point x="755" y="203"/>
      <point x="738" y="220" type="curve" smooth="yes"/>
      <point x="723" y="235"/>
      <point x="708" y="245"/>
      <point x="693" y="229" type="curve" smooth="yes"/>
      <point x="603" y="126"/>
      <point x="525" y="66"/>
      <point x="428" y="66" type="curve" smooth="yes"/>
      <point x="276" y="66"/>
      <point x="215" y="148"/>
      <point x="215" y="319" type="curve" smooth="yes"/>
      <point x="215" y="520"/>
      <point x="376" y="805"/>
      <point x="619" y="805" type="curve" smooth="yes"/>
      <point x="716" y="805"/>
      <point x="773" y="783"/>
      <point x="815" y="744" type="curve" smooth="yes"/>
      <point x="833" y="728"/>
      <point x="844" y="731"/>
      <point x="861" y="745" type="curve" smooth="yes"/>
      <point x="880" y="760"/>
      <point x="886" y="769"/>
      <point x="876" y="784" type="curve" smooth="yes"/>
      <point x="828" y="853"/>
      <point x="749" y="890"/>
      <point x="634" y="890" type="curve" smooth="yes"/>
      <point x="289" y="890"/>
      <point x="121" y="533"/>
      <point x="121" y="303" type="curve" smooth="yes"/>
      <point x="121" y="100"/>
      <point x="229" y="-19"/>
    </contour>
  </outline>
</glyph>
<glyph name="C.cur.ini" format="2">
  <advance width="775"/>
  <anchor x="356" y="0" name="bottom"/>
  <anchor x="694" y="0" name="cnct"/>
  <anchor x="615" y="838" name="top"/>
  <outline>
    <contour>
      <point x="409" y="-17" type="curve" smooth="yes"/>
      <point x="449" y="-17"/>
      <point x="459" y="60"/>
      <point x="419" y="60" type="curve" smooth="yes"/>
      <point x="292" y="60"/>
      <point x="215" y="140"/>
      <point x="215" y="299" type="curve" smooth="yes"/>
      <point x="215" y="520"/>
      <point x="376" y="805"/>
      <point x="619" y="805" type="curve" smooth="yes"/>
      <point x="716" y="805"/>
      <point x="773" y="783"/>
      <point x="815" y="744" type="curve" smooth="yes"/>
      <point x="833" y="728"/>
      <point x="844" y="731"/>
      <point x="861" y="745" type="curve" smooth="yes"/>
      <point x="880" y="760"/>
      <point x="886" y="769"/>
      <point x="876" y="784" type="curve" smooth="yes"/>
      <point x="828" y="853"/>
      <point x="749" y="890"/>
      <point x="634" y="890" type="curve" smooth="yes"/>
      <point x="289" y="890"/>
      <point x="121" y="533"/>
      <point x="121" y="293" type="curve" smooth="yes"/>
      <point x="121" y="100"/>
      <point x="230" y="-17"/>
    </contour>
  </outline>
</glyph>
<glyph name="D.cur" format="2">
  <advance width="1001"/>
  <guideline y="91"/>
  <guideline x="137" y="558" angle="250.37"/>
  <anchor x="471" y="0" name="bottom"/>
  <anchor x="418" y="438" name="center"/>
  <anchor x="704" y="838" name="top"/>
  <outline>
    <contour>
      <point x="490" y="-19" type="curve" smooth="yes"/>
      <point x="764" y="-19"/>
      <point x="1014" y="295"/>
      <point x="1014" y="569" type="curve" smooth="yes"/>
      <point x="1014" y="748"/>
      <point x="906" y="890"/>
      <point x="648" y="890" type="curve" smooth="yes"/>
      <point x="470" y="890"/>
      <point x="290" y="818"/>
      <point x="176" y="694" type="curve" smooth="yes"/>
      <point x="154" y="669"/>
      <point x="158" y="648"/>
      <point x="173" y="636" type="curve" smooth="yes"/>
      <point x="191" y="623"/>
      <point x="208" y="620"/>
      <point x="233" y="643" type="curve" smooth="yes"/>
      <point x="353" y="750"/>
      <point x="475" y="805"/>
      <point x="648" y="805" type="curve" smooth="yes"/>
      <point x="840" y="805"/>
      <point x="923" y="710"/>
      <point x="923" y="570" type="curve" smooth="yes"/>
      <point x="923" y="343"/>
      <point x="716" y="66"/>
      <point x="493" y="66" type="curve" smooth="yes"/>
      <point x="446" y="66"/>
      <point x="400" y="78"/>
      <point x="378" y="111" type="curve" smooth="yes"/>
      <point x="365" y="131"/>
      <point x="348" y="128"/>
      <point x="326" y="115" type="curve"/>
      <point x="306" y="100"/>
      <point x="306" y="89"/>
      <point x="314" y="74" type="curve" smooth="yes"/>
      <point x="338" y="24"/>
      <point x="391" y="-19"/>
    </contour>
    <contour>
      <point x="129" y="-17" type="curve" smooth="yes"/>
      <point x="218" y="-17"/>
      <point x="275" y="71"/>
      <point x="304" y="160" type="curve" smooth="yes"/>
      <point x="479" y="704" type="line" smooth="yes"/>
      <point x="486" y="725"/>
      <point x="470" y="734"/>
      <point x="440" y="734" type="curve" smooth="yes"/>
      <point x="410" y="734"/>
      <point x="395" y="725"/>
      <point x="389" y="706" type="curve" smooth="yes"/>
      <point x="215" y="165" type="line" smooth="yes"/>
      <point x="190" y="89"/>
      <point x="166" y="68"/>
      <point x="129" y="68" type="curve" smooth="yes"/>
      <point x="91" y="68"/>
      <point x="69" y="91"/>
      <point x="51" y="144" type="curve" smooth="yes"/>
      <point x="44" y="166"/>
      <point x="30" y="176"/>
      <point x="4" y="170" type="curve" smooth="yes"/>
      <point x="-27" y="163"/>
      <point x="-27" y="141"/>
      <point x="-22" y="116" type="curve" smooth="yes"/>
      <point x="-9" y="56"/>
      <point x="43" y="-17"/>
    </contour>
  </outline>
</glyph>
<glyph name="F.cur_locl" format="2">
  <advance width="821"/>
  <guideline x="221" y="611" angle="120.9638"/>
  <outline>
    <contour>
      <point x="213" y="-17" type="curve" smooth="yes"/>
      <point x="491" y="-17"/>
      <point x="775" y="421"/>
      <point x="775" y="684" type="curve" smooth="yes"/>
      <point x="775" y="813"/>
      <point x="708" y="890"/>
      <point x="563" y="890" type="curve" smooth="yes"/>
      <point x="444" y="890"/>
      <point x="325" y="834"/>
      <point x="240" y="770" type="curve" smooth="yes"/>
      <point x="216" y="753"/>
      <point x="213" y="735"/>
      <point x="226" y="715" type="curve" smooth="yes"/>
      <point x="245" y="688"/>
      <point x="259" y="683"/>
      <point x="281" y="700" type="curve" smooth="yes"/>
      <point x="351" y="750"/>
      <point x="450" y="805"/>
      <point x="559" y="805" type="curve" smooth="yes"/>
      <point x="648" y="805"/>
      <point x="684" y="756"/>
      <point x="684" y="680" type="curve" smooth="yes"/>
      <point x="684" y="463"/>
      <point x="431" y="63"/>
      <point x="220" y="63" type="curve" smooth="yes"/>
      <point x="170" y="63"/>
      <point x="141" y="96"/>
      <point x="141" y="153" type="curve" smooth="yes"/>
      <point x="141" y="361"/>
      <point x="373" y="493"/>
      <point x="829" y="533" type="curve"/>
      <point x="801" y="453" type="line" smooth="yes"/>
      <point x="793" y="428"/>
      <point x="804" y="416"/>
      <point x="839" y="416" type="curve" smooth="yes"/>
      <point x="865" y="416"/>
      <point x="880" y="428"/>
      <point x="889" y="453" type="curve" smooth="yes"/>
      <point x="924" y="560" type="line" smooth="yes"/>
      <point x="938" y="603"/>
      <point x="921" y="621"/>
      <point x="878" y="618" type="curve" smooth="yes"/>
      <point x="329" y="573"/>
      <point x="50" y="414"/>
      <point x="50" y="149" type="curve" smooth="yes"/>
      <point x="50" y="46"/>
      <point x="119" y="-17"/>
    </contour>
  </outline>
</glyph>
<glyph name="G.cur.ini" format="2">
  <advance width="863"/>
  <anchor x="260" y="0" name="bottom"/>
  <anchor x="781" y="0" name="cnct"/>
  <anchor x="619" y="838" name="top"/>
  <outline>
    <contour>
      <point x="416" y="-394" type="curve" smooth="yes"/>
      <point x="534" y="-394"/>
      <point x="586" y="-325"/>
      <point x="635" y="-172" type="curve" smooth="yes"/>
      <point x="844" y="478" type="line" smooth="yes"/>
      <point x="850" y="496"/>
      <point x="838" y="505"/>
      <point x="809" y="505" type="curve" smooth="yes"/>
      <point x="780" y="505"/>
      <point x="763" y="496"/>
      <point x="756" y="478" type="curve"/>
      <point x="649" y="235"/>
      <point x="500" y="98"/>
      <point x="363" y="98" type="curve" smooth="yes"/>
      <point x="249" y="98"/>
      <point x="190" y="174"/>
      <point x="190" y="300" type="curve" smooth="yes"/>
      <point x="190" y="560"/>
      <point x="398" y="805"/>
      <point x="639" y="805" type="curve" smooth="yes"/>
      <point x="720" y="805"/>
      <point x="805" y="788"/>
      <point x="870" y="743" type="curve" smooth="yes"/>
      <point x="883" y="734"/>
      <point x="901" y="733"/>
      <point x="918" y="749" type="curve" smooth="yes"/>
      <point x="934" y="765"/>
      <point x="935" y="783"/>
      <point x="924" y="794" type="curve" smooth="yes"/>
      <point x="860" y="858"/>
      <point x="764" y="890"/>
      <point x="649" y="890" type="curve" smooth="yes"/>
      <point x="355" y="890"/>
      <point x="98" y="621"/>
      <point x="98" y="301" type="curve" smooth="yes"/>
      <point x="98" y="138"/>
      <point x="188" y="13"/>
      <point x="355" y="13" type="curve" smooth="yes"/>
      <point x="468" y="13"/>
      <point x="570" y="76"/>
      <point x="666" y="203" type="curve"/>
      <point x="541" y="-184" type="line" smooth="yes"/>
      <point x="511" y="-277"/>
      <point x="479" y="-316"/>
      <point x="423" y="-316" type="curve" smooth="yes"/>
      <point x="390" y="-316"/>
      <point x="370" y="-301"/>
      <point x="370" y="-272" type="curve" smooth="yes"/>
      <point x="370" y="-222"/>
      <point x="279" y="-224"/>
      <point x="279" y="-274" type="curve" smooth="yes"/>
      <point x="279" y="-356"/>
      <point x="341" y="-394"/>
    </contour>
  </outline>
</glyph>
<glyph name="G.cur_locl" format="2">
  <advance width="901"/>
  <anchor x="179" y="0" name="bottom"/>
  <anchor x="550" y="838" name="top"/>
  <outline>
    <contour>
      <point x="348" y="-394" type="curve" smooth="yes"/>
      <point x="448" y="-394"/>
      <point x="536" y="-310"/>
      <point x="583" y="-171" type="curve" smooth="yes"/>
      <point x="786" y="448" type="line" smooth="yes"/>
      <point x="793" y="466"/>
      <point x="780" y="475"/>
      <point x="751" y="475" type="curve" smooth="yes"/>
      <point x="721" y="475"/>
      <point x="705" y="466"/>
      <point x="699" y="448" type="curve"/>
      <point x="571" y="235"/>
      <point x="390" y="99"/>
      <point x="270" y="99" type="curve" smooth="yes"/>
      <point x="188" y="99"/>
      <point x="143" y="140"/>
      <point x="143" y="223" type="curve" smooth="yes"/>
      <point x="143" y="413"/>
      <point x="440" y="803"/>
      <point x="618" y="803" type="curve" smooth="yes"/>
      <point x="664" y="803"/>
      <point x="684" y="781"/>
      <point x="684" y="750" type="curve" smooth="yes"/>
      <point x="684" y="628"/>
      <point x="383" y="411"/>
      <point x="-51" y="149" type="curve" smooth="yes"/>
      <point x="-70" y="138"/>
      <point x="-72" y="119"/>
      <point x="-59" y="98" type="curve" smooth="yes"/>
      <point x="-42" y="74"/>
      <point x="-25" y="69"/>
      <point x="-7" y="80" type="curve" smooth="yes"/>
      <point x="460" y="368"/>
      <point x="775" y="594"/>
      <point x="775" y="753" type="curve" smooth="yes"/>
      <point x="775" y="831"/>
      <point x="721" y="890"/>
      <point x="631" y="890" type="curve" smooth="yes"/>
      <point x="396" y="890"/>
      <point x="51" y="461"/>
      <point x="51" y="220" type="curve" smooth="yes"/>
      <point x="51" y="78"/>
      <point x="129" y="11"/>
      <point x="249" y="11" type="curve" smooth="yes"/>
      <point x="369" y="11"/>
      <point x="530" y="110"/>
      <point x="631" y="245" type="curve"/>
      <point x="499" y="-160" type="line" smooth="yes"/>
      <point x="469" y="-251"/>
      <point x="418" y="-306"/>
      <point x="360" y="-306" type="curve" smooth="yes"/>
      <point x="330" y="-306"/>
      <point x="315" y="-290"/>
      <point x="315" y="-267" type="curve" smooth="yes"/>
      <point x="315" y="-169"/>
      <point x="494" y="-62"/>
      <point x="870" y="140" type="curve" smooth="yes"/>
      <point x="890" y="150"/>
      <point x="893" y="170"/>
      <point x="878" y="200" type="curve" smooth="yes"/>
      <point x="868" y="218"/>
      <point x="854" y="221"/>
      <point x="834" y="210" type="curve" smooth="yes"/>
      <point x="421" y="-12"/>
      <point x="225" y="-126"/>
      <point x="225" y="-274" type="curve" smooth="yes"/>
      <point x="225" y="-344"/>
      <point x="273" y="-394"/>
    </contour>
  </outline>
</glyph>
<glyph name="G.cur_ro" format="2">
  <advance width="745"/>
  <outline>
    <contour>
      <point x="300" y="-20" type="curve" smooth="yes"/>
      <point x="480" y="-20"/>
      <point x="619" y="163"/>
      <point x="737" y="531" type="curve" smooth="yes"/>
      <point x="742" y="547"/>
      <point x="732" y="557"/>
      <point x="709" y="557" type="curve" smooth="yes"/>
      <point x="690" y="557"/>
      <point x="674" y="549"/>
      <point x="652" y="532" type="curve" smooth="yes"/>
      <point x="569" y="470"/>
      <point x="463" y="412"/>
      <point x="359" y="412" type="curve" smooth="yes"/>
      <point x="303" y="412"/>
      <point x="274" y="438"/>
      <point x="274" y="491" type="curve" smooth="yes"/>
      <point x="274" y="622"/>
      <point x="460" y="810"/>
      <point x="594" y="810" type="curve" smooth="yes"/>
      <point x="620" y="810"/>
      <point x="637" y="797"/>
      <point x="637" y="778" type="curve" smooth="yes"/>
      <point x="637" y="692"/>
      <point x="433" y="564"/>
      <point x="313" y="564" type="curve" smooth="yes"/>
      <point x="209" y="564"/>
      <point x="215" y="639"/>
      <point x="280" y="840" type="curve" smooth="yes"/>
      <point x="287" y="861"/>
      <point x="273" y="871"/>
      <point x="247" y="871" type="curve" smooth="yes"/>
      <point x="219" y="871"/>
      <point x="206" y="861"/>
      <point x="200" y="844" type="curve" smooth="yes"/>
      <point x="131" y="648"/>
      <point x="123" y="488"/>
      <point x="296" y="488" type="curve" smooth="yes"/>
      <point x="476" y="488"/>
      <point x="728" y="647"/>
      <point x="728" y="790" type="curve" smooth="yes"/>
      <point x="728" y="852"/>
      <point x="686" y="894"/>
      <point x="617" y="894" type="curve" smooth="yes"/>
      <point x="434" y="894"/>
      <point x="194" y="666"/>
      <point x="194" y="492" type="curve" smooth="yes"/>
      <point x="194" y="392"/>
      <point x="257" y="335"/>
      <point x="349" y="335" type="curve" smooth="yes"/>
      <point x="431" y="335"/>
      <point x="531" y="370"/>
      <point x="627" y="441" type="curve"/>
      <point x="536" y="195"/>
      <point x="430" y="60"/>
      <point x="304" y="60" type="curve" smooth="yes"/>
      <point x="243" y="60"/>
      <point x="191" y="93"/>
      <point x="161" y="191" type="curve" smooth="yes"/>
      <point x="155" y="210"/>
      <point x="147" y="216"/>
      <point x="120" y="210" type="curve" smooth="yes"/>
      <point x="98" y="205"/>
      <point x="86" y="194"/>
      <point x="91" y="175" type="curve" smooth="yes"/>
      <point x="123" y="41"/>
      <point x="216" y="-20"/>
    </contour>
  </outline>
</glyph>
<glyph name="G.dec" format="2">
  <advance width="1030"/>
  <anchor x="509" y="0" name="bottom"/>
  <anchor x="730" y="838" name="top"/>
  <outline>
    <contour>
      <point x="0" y="-12" type="curve" smooth="yes"/>
      <point x="391" y="-12"/>
      <point x="644" y="563"/>
      <point x="644" y="763" type="curve" smooth="yes"/>
      <point x="644" y="849"/>
      <point x="601" y="890"/>
      <point x="524" y="890" type="curve" smooth="yes"/>
      <point x="414" y="890"/>
      <point x="326" y="769"/>
      <point x="326" y="661" type="curve" smooth="yes"/>
      <point x="326" y="549"/>
      <point x="414" y="499"/>
      <point x="516" y="499" type="curve" smooth="yes"/>
      <point x="664" y="499"/>
      <point x="836" y="569"/>
      <point x="1004" y="710" type="curve"/>
      <point x="963" y="753" type="line"/>
      <point x="948" y="708"/>
      <point x="933" y="663"/>
      <point x="918" y="618" type="curve" smooth="yes"/>
      <point x="784" y="228"/>
      <point x="730" y="75"/>
      <point x="568" y="75" type="curve" smooth="yes"/>
      <point x="413" y="75"/>
      <point x="280" y="210"/>
      <point x="205" y="416" type="curve"/>
      <point x="146" y="400" type="line"/>
      <point x="415" y="270"/>
      <point x="669" y="216"/>
      <point x="1008" y="216" type="curve" smooth="yes"/>
      <point x="1025" y="216"/>
      <point x="1035" y="228"/>
      <point x="1041" y="251" type="curve" smooth="yes"/>
      <point x="1050" y="281"/>
      <point x="1046" y="296"/>
      <point x="1028" y="296" type="curve" smooth="yes"/>
      <point x="690" y="296"/>
      <point x="448" y="343"/>
      <point x="195" y="465" type="curve" smooth="yes"/>
      <point x="168" y="479"/>
      <point x="153" y="474"/>
      <point x="133" y="455" type="curve" smooth="yes"/>
      <point x="111" y="435"/>
      <point x="119" y="411"/>
      <point x="130" y="383" type="curve" smooth="yes"/>
      <point x="216" y="163"/>
      <point x="369" y="-12"/>
      <point x="565" y="-12" type="curve" smooth="yes"/>
      <point x="771" y="-12"/>
      <point x="864" y="170"/>
      <point x="1005" y="611" type="curve" smooth="yes"/>
      <point x="1020" y="659"/>
      <point x="1035" y="705"/>
      <point x="1044" y="731" type="curve" smooth="yes"/>
      <point x="1054" y="764"/>
      <point x="1034" y="783"/>
      <point x="1008" y="788" type="curve" smooth="yes"/>
      <point x="983" y="793"/>
      <point x="971" y="781"/>
      <point x="953" y="765" type="curve" smooth="yes"/>
      <point x="825" y="651"/>
      <point x="646" y="579"/>
      <point x="521" y="579" type="curve" smooth="yes"/>
      <point x="460" y="579"/>
      <point x="414" y="600"/>
      <point x="414" y="663" type="curve" smooth="yes"/>
      <point x="414" y="735"/>
      <point x="461" y="810"/>
      <point x="516" y="810" type="curve" smooth="yes"/>
      <point x="545" y="810"/>
      <point x="559" y="791"/>
      <point x="559" y="755" type="curve" smooth="yes"/>
      <point x="559" y="571"/>
      <point x="324" y="68"/>
      <point x="14" y="68" type="curve" smooth="yes"/>
      <point x="-9" y="68"/>
      <point x="-22" y="56"/>
      <point x="-29" y="34" type="curve" smooth="yes"/>
      <point x="-37" y="3"/>
      <point x="-30" y="-12"/>
    </contour>
  </outline>
</glyph>
<glyph name="H.dec" format="2">
  <advance width="1075"/>
  <anchor x="498" y="0" name="bottom"/>
  <anchor x="719" y="676" name="center"/>
  <anchor x="753" y="838" name="top"/>
  <outline>
    <contour>
      <point x="258" y="-14" type="curve" smooth="yes"/>
      <point x="288" y="-14"/>
      <point x="303" y="-5"/>
      <point x="309" y="14" type="curve" smooth="yes"/>
      <point x="584" y="860" type="line" smooth="yes"/>
      <point x="591" y="881"/>
      <point x="575" y="890"/>
      <point x="545" y="890" type="curve" smooth="yes"/>
      <point x="531" y="890"/>
      <point x="520" y="888"/>
      <point x="508" y="876" type="curve" smooth="yes"/>
      <point x="493" y="863"/>
      <point x="470" y="851"/>
      <point x="445" y="851" type="curve" smooth="yes"/>
      <point x="413" y="851"/>
      <point x="400" y="879"/>
      <point x="336" y="879" type="curve" smooth="yes"/>
      <point x="299" y="879"/>
      <point x="238" y="858"/>
      <point x="174" y="793" type="curve" smooth="yes"/>
      <point x="160" y="779"/>
      <point x="161" y="761"/>
      <point x="176" y="745" type="curve" smooth="yes"/>
      <point x="195" y="725"/>
      <point x="214" y="723"/>
      <point x="230" y="736" type="curve" smooth="yes"/>
      <point x="283" y="779"/>
      <point x="299" y="795"/>
      <point x="331" y="795" type="curve" smooth="yes"/>
      <point x="364" y="795"/>
      <point x="378" y="771"/>
      <point x="419" y="771" type="curve" smooth="yes"/>
      <point x="433" y="771"/>
      <point x="453" y="775"/>
      <point x="471" y="786" type="curve"/>
      <point x="219" y="16" type="line" smooth="yes"/>
      <point x="213" y="-4"/>
      <point x="228" y="-14"/>
    </contour>
    <contour>
      <point x="758" y="103" type="curve"/>
      <point x="828" y="110" type="line"/>
      <point x="910" y="369"/>
      <point x="826" y="526"/>
      <point x="598" y="526" type="curve" smooth="yes"/>
      <point x="463" y="526"/>
      <point x="364" y="456"/>
      <point x="364" y="360" type="curve" smooth="yes"/>
      <point x="364" y="279"/>
      <point x="446" y="229"/>
      <point x="608" y="229" type="curve" smooth="yes"/>
      <point x="771" y="229"/>
      <point x="853" y="271"/>
      <point x="1068" y="338" type="curve" smooth="yes"/>
      <point x="1089" y="344"/>
      <point x="1096" y="359"/>
      <point x="1090" y="384" type="curve" smooth="yes"/>
      <point x="1084" y="408"/>
      <point x="1070" y="418"/>
      <point x="1048" y="410" type="curve" smooth="yes"/>
      <point x="850" y="346"/>
      <point x="771" y="309"/>
      <point x="624" y="309" type="curve" smooth="yes"/>
      <point x="501" y="309"/>
      <point x="434" y="330"/>
      <point x="434" y="371" type="curve" smooth="yes"/>
      <point x="434" y="424"/>
      <point x="506" y="446"/>
      <point x="574" y="446" type="curve" smooth="yes"/>
      <point x="775" y="446"/>
      <point x="828" y="345"/>
    </contour>
    <contour>
      <point x="766" y="-14" type="curve" smooth="yes"/>
      <point x="796" y="-14"/>
      <point x="811" y="-5"/>
      <point x="818" y="14" type="curve" smooth="yes"/>
      <point x="1090" y="860" type="line" smooth="yes"/>
      <point x="1096" y="881"/>
      <point x="1081" y="890"/>
      <point x="1051" y="890" type="curve" smooth="yes"/>
      <point x="1021" y="890"/>
      <point x="1006" y="881"/>
      <point x="1000" y="863" type="curve" smooth="yes"/>
      <point x="728" y="16" type="line" smooth="yes"/>
      <point x="721" y="-5"/>
      <point x="736" y="-14"/>
    </contour>
  </outline>
</glyph>
<glyph name="I.cur" format="2">
  <advance width="908"/>
  <anchor x="574" y="0" name="bottom"/>
  <anchor x="678" y="-6" name="ogonek"/>
  <anchor x="689" y="838" name="top"/>
  <outline>
    <contour>
      <point x="931" y="661" type="curve" smooth="yes"/>
      <point x="931" y="804"/>
      <point x="858" y="891"/>
      <point x="736" y="891" type="curve" smooth="yes"/>
      <point x="598" y="891"/>
      <point x="513" y="758"/>
      <point x="513" y="525" type="curve" smooth="yes"/>
      <point x="513" y="401"/>
      <point x="539" y="271"/>
      <point x="579" y="153" type="curve"/>
      <point x="510" y="99"/>
      <point x="436" y="68"/>
      <point x="374" y="68" type="curve" smooth="yes"/>
      <point x="284" y="68"/>
      <point x="228" y="115"/>
      <point x="191" y="225" type="curve"/>
      <point x="253" y="211"/>
      <point x="315" y="206"/>
      <point x="378" y="206" type="curve" smooth="yes"/>
      <point x="399" y="206"/>
      <point x="411" y="216"/>
      <point x="416" y="244" type="curve" smooth="yes"/>
      <point x="421" y="271"/>
      <point x="410" y="281"/>
      <point x="385" y="281" type="curve" smooth="yes"/>
      <point x="299" y="281"/>
      <point x="209" y="293"/>
      <point x="160" y="309" type="curve" smooth="yes"/>
      <point x="139" y="316"/>
      <point x="123" y="318"/>
      <point x="111" y="309" type="curve" smooth="yes"/>
      <point x="93" y="296"/>
      <point x="85" y="283"/>
      <point x="91" y="259" type="curve" smooth="yes"/>
      <point x="139" y="66"/>
      <point x="221" y="-17"/>
      <point x="370" y="-17" type="curve" smooth="yes"/>
      <point x="443" y="-17"/>
      <point x="526" y="16"/>
      <point x="608" y="74" type="curve"/>
      <point x="616" y="51"/>
      <point x="626" y="28"/>
      <point x="638" y="5" type="curve" smooth="yes"/>
      <point x="648" y="-16"/>
      <point x="665" y="-22"/>
      <point x="690" y="-11" type="curve" smooth="yes"/>
      <point x="716" y="0"/>
      <point x="726" y="20"/>
      <point x="718" y="38" type="curve" smooth="yes"/>
      <point x="704" y="65"/>
      <point x="690" y="96"/>
      <point x="678" y="130" type="curve"/>
      <point x="818" y="256"/>
      <point x="931" y="451"/>
    </contour>
    <contour>
      <point x="604" y="525" type="curve" smooth="yes"/>
      <point x="604" y="706"/>
      <point x="654" y="809"/>
      <point x="735" y="809" type="curve" smooth="yes"/>
      <point x="800" y="809"/>
      <point x="840" y="753"/>
      <point x="840" y="659" type="curve" smooth="yes"/>
      <point x="840" y="489"/>
      <point x="756" y="328"/>
      <point x="650" y="216" type="curve"/>
      <point x="623" y="315"/>
      <point x="604" y="425"/>
    </contour>
  </outline>
</glyph>
<glyph name="I.cur.ini" format="2">
  <advance width="985"/>
  <anchor x="574" y="0" name="bottom"/>
  <anchor x="904" y="0" name="cnct"/>
  <anchor x="678" y="-6" name="ogonek"/>
  <anchor x="689" y="838" name="top"/>
  <outline>
    <contour>
      <point x="370" y="-17" type="curve" smooth="yes"/>
      <point x="598" y="-17"/>
      <point x="931" y="305"/>
      <point x="931" y="661" type="curve" smooth="yes"/>
      <point x="931" y="804"/>
      <point x="858" y="891"/>
      <point x="736" y="891" type="curve" smooth="yes"/>
      <point x="598" y="891"/>
      <point x="513" y="758"/>
      <point x="513" y="525" type="curve" smooth="yes"/>
      <point x="513" y="211"/>
      <point x="661" y="-17"/>
      <point x="818" y="-17" type="curve" smooth="yes"/>
      <point x="858" y="-17"/>
      <point x="876" y="58"/>
      <point x="836" y="58" type="curve" smooth="yes"/>
      <point x="721" y="58"/>
      <point x="604" y="254"/>
      <point x="604" y="525" type="curve" smooth="yes"/>
      <point x="604" y="706"/>
      <point x="654" y="809"/>
      <point x="735" y="809" type="curve" smooth="yes"/>
      <point x="800" y="809"/>
      <point x="840" y="753"/>
      <point x="840" y="659" type="curve" smooth="yes"/>
      <point x="840" y="347"/>
      <point x="561" y="68"/>
      <point x="374" y="68" type="curve" smooth="yes"/>
      <point x="284" y="68"/>
      <point x="228" y="115"/>
      <point x="191" y="225" type="curve"/>
      <point x="253" y="211"/>
      <point x="315" y="206"/>
      <point x="378" y="206" type="curve" smooth="yes"/>
      <point x="399" y="206"/>
      <point x="411" y="216"/>
      <point x="416" y="244" type="curve" smooth="yes"/>
      <point x="421" y="271"/>
      <point x="410" y="281"/>
      <point x="385" y="281" type="curve" smooth="yes"/>
      <point x="299" y="281"/>
      <point x="209" y="293"/>
      <point x="160" y="309" type="curve" smooth="yes"/>
      <point x="139" y="316"/>
      <point x="123" y="318"/>
      <point x="111" y="309" type="curve" smooth="yes"/>
      <point x="93" y="296"/>
      <point x="85" y="283"/>
      <point x="91" y="259" type="curve" smooth="yes"/>
      <point x="139" y="66"/>
      <point x="221" y="-17"/>
    </contour>
  </outline>
</glyph>
<glyph name="I.dec" format="2">
  <advance width="500"/>
  <anchor x="190" y="0" name="bottom"/>
  <anchor x="258" y="-5" name="ogonek"/>
  <anchor x="443" y="838" name="top"/>
  <outline>
    <contour>
      <point x="181" y="-19" type="curve" smooth="yes"/>
      <point x="273" y="-19"/>
      <point x="363" y="35"/>
      <point x="433" y="249" type="curve" smooth="yes"/>
      <point x="631" y="860" type="line" smooth="yes"/>
      <point x="639" y="881"/>
      <point x="623" y="890"/>
      <point x="593" y="890" type="curve" smooth="yes"/>
      <point x="579" y="890"/>
      <point x="568" y="888"/>
      <point x="555" y="876" type="curve" smooth="yes"/>
      <point x="539" y="863"/>
      <point x="514" y="851"/>
      <point x="486" y="851" type="curve" smooth="yes"/>
      <point x="453" y="851"/>
      <point x="439" y="879"/>
      <point x="371" y="879" type="curve" smooth="yes"/>
      <point x="333" y="879"/>
      <point x="268" y="859"/>
      <point x="203" y="793" type="curve" smooth="yes"/>
      <point x="189" y="779"/>
      <point x="190" y="761"/>
      <point x="205" y="745" type="curve" smooth="yes"/>
      <point x="224" y="725"/>
      <point x="243" y="723"/>
      <point x="259" y="736" type="curve" smooth="yes"/>
      <point x="314" y="780"/>
      <point x="331" y="795"/>
      <point x="366" y="795" type="curve" smooth="yes"/>
      <point x="401" y="795"/>
      <point x="416" y="771"/>
      <point x="460" y="771" type="curve" smooth="yes"/>
      <point x="483" y="771"/>
      <point x="494" y="778"/>
      <point x="519" y="785" type="curve"/>
      <point x="346" y="260" type="line" smooth="yes"/>
      <point x="299" y="114"/>
      <point x="248" y="66"/>
      <point x="185" y="66" type="curve" smooth="yes"/>
      <point x="131" y="66"/>
      <point x="104" y="104"/>
      <point x="75" y="150" type="curve" smooth="yes"/>
      <point x="60" y="175"/>
      <point x="45" y="178"/>
      <point x="24" y="168" type="curve" smooth="yes"/>
      <point x="1" y="158"/>
      <point x="-1" y="136"/>
      <point x="5" y="120" type="curve" smooth="yes"/>
      <point x="31" y="56"/>
      <point x="84" y="-19"/>
    </contour>
  </outline>
</glyph>
<glyph name="IJ.cur" format="2">
  <advance width="788"/>
  <anchor x="134" y="0" name="bottom"/>
  <anchor x="574" y="838" name="top"/>
  <outline>
    <contour>
      <point x="318" y="-394" type="curve" smooth="yes"/>
      <point x="429" y="-394"/>
      <point x="474" y="-326"/>
      <point x="524" y="-172" type="curve" smooth="yes"/>
      <point x="861" y="859" type="line" smooth="yes"/>
      <point x="869" y="880"/>
      <point x="853" y="889"/>
      <point x="823" y="889" type="curve" smooth="yes"/>
      <point x="793" y="889"/>
      <point x="778" y="880"/>
      <point x="771" y="861" type="curve" smooth="yes"/>
      <point x="645" y="471" type="line"/>
      <point x="544" y="279"/>
      <point x="404" y="138"/>
      <point x="278" y="138" type="curve" smooth="yes"/>
      <point x="195" y="138"/>
      <point x="181" y="190"/>
      <point x="215" y="293" type="curve" smooth="yes"/>
      <point x="401" y="859" type="line" smooth="yes"/>
      <point x="409" y="880"/>
      <point x="393" y="889"/>
      <point x="363" y="889" type="curve" smooth="yes"/>
      <point x="333" y="889"/>
      <point x="318" y="880"/>
      <point x="311" y="861" type="curve" smooth="yes"/>
      <point x="126" y="290" type="line" smooth="yes"/>
      <point x="75" y="133"/>
      <point x="131" y="51"/>
      <point x="255" y="51" type="curve" smooth="yes"/>
      <point x="369" y="51"/>
      <point x="483" y="130"/>
      <point x="574" y="251" type="curve"/>
      <point x="431" y="-184" type="line" smooth="yes"/>
      <point x="401" y="-275"/>
      <point x="374" y="-316"/>
      <point x="324" y="-316" type="curve" smooth="yes"/>
      <point x="299" y="-316"/>
      <point x="284" y="-301"/>
      <point x="284" y="-272" type="curve" smooth="yes"/>
      <point x="284" y="-174"/>
      <point x="428" y="-56"/>
      <point x="568" y="36" type="curve" smooth="yes"/>
      <point x="644" y="88"/>
      <point x="720" y="131"/>
      <point x="773" y="161" type="curve" smooth="yes"/>
      <point x="796" y="174"/>
      <point x="800" y="189"/>
      <point x="786" y="213" type="curve" smooth="yes"/>
      <point x="775" y="231"/>
      <point x="764" y="235"/>
      <point x="744" y="224" type="curve" smooth="yes"/>
      <point x="698" y="198"/>
      <point x="628" y="159"/>
      <point x="553" y="110" type="curve" smooth="yes"/>
      <point x="386" y="4"/>
      <point x="193" y="-147"/>
      <point x="193" y="-274" type="curve" smooth="yes"/>
      <point x="193" y="-356"/>
      <point x="249" y="-394"/>
    </contour>
  </outline>
</glyph>
<glyph name="I_locl" format="2">
  <advance width="375"/>
  <anchor x="106" y="0" name="bottom"/>
  <anchor x="157" y="13" name="ogonek"/>
  <anchor x="375" y="875" name="top"/>
  <outline>
    <contour>
      <point x="-34" y="0" type="curve" smooth="yes"/>
      <point x="246" y="0" type="line" smooth="yes"/>
      <point x="266" y="0"/>
      <point x="278" y="10"/>
      <point x="288" y="40" type="curve" smooth="yes"/>
      <point x="296" y="70"/>
      <point x="293" y="80"/>
      <point x="273" y="80" type="curve" smooth="yes"/>
      <point x="176" y="80" type="line"/>
      <point x="408" y="795" type="line"/>
      <point x="504" y="795" type="line" smooth="yes"/>
      <point x="524" y="795"/>
      <point x="535" y="805"/>
      <point x="544" y="835" type="curve" smooth="yes"/>
      <point x="554" y="865"/>
      <point x="550" y="875"/>
      <point x="530" y="875" type="curve" smooth="yes"/>
      <point x="250" y="875" type="line" smooth="yes"/>
      <point x="230" y="875"/>
      <point x="219" y="865"/>
      <point x="209" y="835" type="curve" smooth="yes"/>
      <point x="200" y="805"/>
      <point x="204" y="795"/>
      <point x="224" y="795" type="curve" smooth="yes"/>
      <point x="320" y="795" type="line"/>
      <point x="89" y="80" type="line"/>
      <point x="-7" y="80" type="line" smooth="yes"/>
      <point x="-27" y="80"/>
      <point x="-39" y="70"/>
      <point x="-47" y="40" type="curve" smooth="yes"/>
      <point x="-57" y="10"/>
      <point x="-54" y="0"/>
    </contour>
  </outline>
</glyph>
<glyph name="J.dec.ini" format="2">
  <advance width="526"/>
  <anchor x="55" y="-406" name="bottom"/>
  <anchor x="445" y="0" name="cnct"/>
  <anchor x="506" y="838" name="top"/>
  <outline>
    <contour>
      <point x="80" y="-394" type="curve" smooth="yes"/>
      <point x="198" y="-394"/>
      <point x="250" y="-325"/>
      <point x="299" y="-172" type="curve" smooth="yes"/>
      <point x="631" y="860" type="line" smooth="yes"/>
      <point x="639" y="881"/>
      <point x="623" y="890"/>
      <point x="593" y="890" type="curve" smooth="yes"/>
      <point x="579" y="890"/>
      <point x="568" y="888"/>
      <point x="555" y="876" type="curve" smooth="yes"/>
      <point x="539" y="863"/>
      <point x="514" y="851"/>
      <point x="486" y="851" type="curve" smooth="yes"/>
      <point x="453" y="851"/>
      <point x="439" y="879"/>
      <point x="371" y="879" type="curve" smooth="yes"/>
      <point x="333" y="879"/>
      <point x="268" y="859"/>
      <point x="203" y="793" type="curve" smooth="yes"/>
      <point x="189" y="779"/>
      <point x="190" y="761"/>
      <point x="205" y="745" type="curve" smooth="yes"/>
      <point x="224" y="725"/>
      <point x="243" y="723"/>
      <point x="259" y="736" type="curve" smooth="yes"/>
      <point x="313" y="784"/>
      <point x="331" y="795"/>
      <point x="366" y="795" type="curve" smooth="yes"/>
      <point x="401" y="795"/>
      <point x="416" y="771"/>
      <point x="460" y="771" type="curve" smooth="yes"/>
      <point x="483" y="771"/>
      <point x="509" y="783"/>
      <point x="519" y="785" type="curve"/>
      <point x="205" y="-184" type="line" smooth="yes"/>
      <point x="175" y="-277"/>
      <point x="143" y="-316"/>
      <point x="86" y="-316" type="curve" smooth="yes"/>
      <point x="54" y="-316"/>
      <point x="34" y="-301"/>
      <point x="34" y="-272" type="curve" smooth="yes"/>
      <point x="34" y="-222"/>
      <point x="-57" y="-224"/>
      <point x="-57" y="-274" type="curve" smooth="yes"/>
      <point x="-57" y="-356"/>
      <point x="5" y="-394"/>
    </contour>
  </outline>
</glyph>
<glyph name="L.cur.ini" format="2">
  <advance width="733"/>
  <anchor x="600" y="450" name="CAT"/>
  <anchor x="356" y="0" name="bottom"/>
  <anchor x="320" y="450" name="center"/>
  <anchor x="651" y="0" name="cnct"/>
  <anchor x="594" y="838" name="top"/>
  <anchor x="773" y="875" name="topright"/>
  <outline>
    <contour>
      <point x="75" y="-21" type="curve" smooth="yes"/>
      <point x="158" y="-21"/>
      <point x="233" y="30"/>
      <point x="275" y="161" type="curve" smooth="yes"/>
      <point x="439" y="666" type="line" smooth="yes"/>
      <point x="470" y="761"/>
      <point x="516" y="806"/>
      <point x="594" y="806" type="curve" smooth="yes"/>
      <point x="650" y="806"/>
      <point x="681" y="775"/>
      <point x="714" y="698" type="curve" smooth="yes"/>
      <point x="723" y="679"/>
      <point x="738" y="673"/>
      <point x="761" y="681" type="curve" smooth="yes"/>
      <point x="784" y="690"/>
      <point x="793" y="703"/>
      <point x="786" y="723" type="curve" smooth="yes"/>
      <point x="750" y="831"/>
      <point x="693" y="890"/>
      <point x="604" y="890" type="curve" smooth="yes"/>
      <point x="479" y="890"/>
      <point x="403" y="821"/>
      <point x="355" y="676" type="curve" smooth="yes"/>
      <point x="188" y="161" type="line" smooth="yes"/>
      <point x="163" y="86"/>
      <point x="114" y="54"/>
      <point x="78" y="54" type="curve" smooth="yes"/>
      <point x="58" y="54"/>
      <point x="45" y="68"/>
      <point x="45" y="84" type="curve" smooth="yes"/>
      <point x="45" y="108"/>
      <point x="74" y="121"/>
      <point x="103" y="121" type="curve" smooth="yes"/>
      <point x="240" y="121"/>
      <point x="425" y="-17"/>
      <point x="565" y="-17" type="curve" smooth="yes"/>
      <point x="615" y="-17"/>
      <point x="634" y="58"/>
      <point x="584" y="58" type="curve" smooth="yes"/>
      <point x="463" y="58"/>
      <point x="251" y="199"/>
      <point x="109" y="199" type="curve" smooth="yes"/>
      <point x="26" y="199"/>
      <point x="-42" y="146"/>
      <point x="-42" y="74" type="curve" smooth="yes"/>
      <point x="-42" y="16"/>
      <point x="4" y="-21"/>
    </contour>
  </outline>
</glyph>
<glyph name="L.dec" format="2">
  <advance width="814"/>
  <anchor x="625" y="413" name="CAT"/>
  <anchor x="383" y="0" name="bottom"/>
  <anchor x="323" y="363" name="center"/>
  <anchor x="620" y="838" name="top"/>
  <anchor x="819" y="875" name="topright"/>
  <outline>
    <contour>
      <point x="495" y="-11" type="curve" smooth="yes"/>
      <point x="623" y="-11"/>
      <point x="711" y="48"/>
      <point x="790" y="180" type="curve" smooth="yes"/>
      <point x="800" y="200"/>
      <point x="795" y="216"/>
      <point x="774" y="229" type="curve" smooth="yes"/>
      <point x="749" y="241"/>
      <point x="730" y="238"/>
      <point x="718" y="216" type="curve" smooth="yes"/>
      <point x="666" y="130"/>
      <point x="606" y="73"/>
      <point x="505" y="73" type="curve" smooth="yes"/>
      <point x="359" y="73"/>
      <point x="241" y="203"/>
      <point x="94" y="203" type="curve" smooth="yes"/>
      <point x="30" y="203"/>
      <point x="-19" y="163"/>
      <point x="-19" y="96" type="curve" smooth="yes"/>
      <point x="-19" y="40"/>
      <point x="40" y="-17"/>
      <point x="123" y="-17" type="curve" smooth="yes"/>
      <point x="193" y="-17"/>
      <point x="249" y="11"/>
      <point x="290" y="133" type="curve" smooth="yes"/>
      <point x="415" y="504" type="line" smooth="yes"/>
      <point x="483" y="704"/>
      <point x="569" y="805"/>
      <point x="673" y="805" type="curve" smooth="yes"/>
      <point x="715" y="805"/>
      <point x="741" y="785"/>
      <point x="741" y="753" type="curve" smooth="yes"/>
      <point x="741" y="671"/>
      <point x="655" y="613"/>
      <point x="535" y="613" type="curve" smooth="yes"/>
      <point x="405" y="613"/>
      <point x="305" y="639"/>
      <point x="218" y="686" type="curve" smooth="yes"/>
      <point x="198" y="698"/>
      <point x="181" y="695"/>
      <point x="169" y="673" type="curve" smooth="yes"/>
      <point x="154" y="649"/>
      <point x="156" y="630"/>
      <point x="175" y="619" type="curve" smooth="yes"/>
      <point x="289" y="553"/>
      <point x="394" y="530"/>
      <point x="534" y="530" type="curve" smooth="yes"/>
      <point x="708" y="530"/>
      <point x="833" y="625"/>
      <point x="833" y="756" type="curve" smooth="yes"/>
      <point x="833" y="834"/>
      <point x="766" y="890"/>
      <point x="676" y="890" type="curve" smooth="yes"/>
      <point x="530" y="890"/>
      <point x="415" y="768"/>
      <point x="334" y="525" type="curve" smooth="yes"/>
      <point x="205" y="141" type="line" smooth="yes"/>
      <point x="185" y="81"/>
      <point x="160" y="63"/>
      <point x="126" y="63" type="curve" smooth="yes"/>
      <point x="95" y="63"/>
      <point x="73" y="80"/>
      <point x="73" y="95" type="curve" smooth="yes"/>
      <point x="73" y="115"/>
      <point x="86" y="123"/>
      <point x="104" y="123" type="curve" smooth="yes"/>
      <point x="203" y="123"/>
      <point x="339" y="-11"/>
    </contour>
  </outline>
</glyph>
<glyph name="N.cur" format="2">
  <advance width="965"/>
  <anchor x="401" y="0" name="bottom"/>
  <anchor x="673" y="838" name="top"/>
  <outline>
    <contour>
      <point x="713" y="-17" type="curve" smooth="yes"/>
      <point x="791" y="-17"/>
      <point x="861" y="73"/>
      <point x="889" y="111" type="curve" smooth="yes"/>
      <point x="903" y="130"/>
      <point x="899" y="151"/>
      <point x="878" y="165" type="curve" smooth="yes"/>
      <point x="860" y="176"/>
      <point x="845" y="175"/>
      <point x="830" y="154" type="curve" smooth="yes"/>
      <point x="780" y="89"/>
      <point x="755" y="68"/>
      <point x="736" y="68" type="curve" smooth="yes"/>
      <point x="713" y="68"/>
      <point x="716" y="103"/>
      <point x="739" y="171" type="curve" smooth="yes"/>
      <point x="899" y="653" type="line" smooth="yes"/>
      <point x="949" y="801"/>
      <point x="919" y="891"/>
      <point x="781" y="891" type="curve" smooth="yes"/>
      <point x="706" y="891"/>
      <point x="568" y="838"/>
      <point x="448" y="677" type="curve"/>
      <point x="468" y="739" type="line" smooth="yes"/>
      <point x="500" y="839"/>
      <point x="474" y="891"/>
      <point x="394" y="891" type="curve" smooth="yes"/>
      <point x="350" y="891"/>
      <point x="284" y="875"/>
      <point x="188" y="740" type="curve"/>
      <point x="173" y="716"/>
      <point x="176" y="700"/>
      <point x="196" y="688" type="curve" smooth="yes"/>
      <point x="220" y="673"/>
      <point x="240" y="679"/>
      <point x="263" y="710" type="curve" smooth="yes"/>
      <point x="311" y="776"/>
      <point x="341" y="806"/>
      <point x="369" y="806" type="curve" smooth="yes"/>
      <point x="396" y="806"/>
      <point x="394" y="785"/>
      <point x="379" y="740" type="curve" smooth="yes"/>
      <point x="144" y="15" type="line" smooth="yes"/>
      <point x="138" y="-6"/>
      <point x="153" y="-15"/>
      <point x="183" y="-15" type="curve" smooth="yes"/>
      <point x="213" y="-15"/>
      <point x="228" y="-6"/>
      <point x="234" y="13" type="curve" smooth="yes"/>
      <point x="372" y="442" type="line"/>
      <point x="510" y="729"/>
      <point x="689" y="805"/>
      <point x="765" y="805" type="curve" smooth="yes"/>
      <point x="845" y="805"/>
      <point x="841" y="745"/>
      <point x="810" y="650" type="curve" smooth="yes"/>
      <point x="654" y="181" type="line" smooth="yes"/>
      <point x="608" y="44"/>
      <point x="636" y="-17"/>
    </contour>
  </outline>
</glyph>
<glyph name="O.dec" format="2">
  <advance width="985"/>
  <anchor x="381" y="0" name="bottom"/>
  <anchor x="524" y="438" name="center"/>
  <anchor x="755" y="13" name="ogonek"/>
  <anchor x="630" y="838" name="top"/>
  <anchor x="804" y="855" name="topright"/>
  <outline>
    <contour>
      <point x="646" y="890" type="curve" smooth="yes"/>
      <point x="498" y="890"/>
      <point x="396" y="780"/>
      <point x="396" y="670" type="curve" smooth="yes"/>
      <point x="396" y="540"/>
      <point x="500" y="474"/>
      <point x="698" y="474" type="curve" smooth="yes"/>
      <point x="804" y="474"/>
      <point x="916" y="493"/>
      <point x="1083" y="551" type="curve" smooth="yes"/>
      <point x="1113" y="561"/>
      <point x="1120" y="574"/>
      <point x="1113" y="601" type="curve" smooth="yes"/>
      <point x="1105" y="628"/>
      <point x="1089" y="634"/>
      <point x="1060" y="625" type="curve" smooth="yes"/>
      <point x="923" y="581"/>
      <point x="795" y="556"/>
      <point x="699" y="556" type="curve" smooth="yes"/>
      <point x="560" y="556"/>
      <point x="488" y="596"/>
      <point x="488" y="676" type="curve" smooth="yes"/>
      <point x="488" y="746"/>
      <point x="548" y="805"/>
      <point x="631" y="805" type="curve" smooth="yes"/>
      <point x="776" y="805"/>
      <point x="854" y="725"/>
      <point x="854" y="590" type="curve" smooth="yes"/>
      <point x="854" y="370"/>
      <point x="695" y="66"/>
      <point x="428" y="66" type="curve" smooth="yes"/>
      <point x="289" y="66"/>
      <point x="203" y="148"/>
      <point x="203" y="293" type="curve" smooth="yes"/>
      <point x="203" y="500"/>
      <point x="333" y="775"/>
      <point x="584" y="824" type="curve" smooth="yes"/>
      <point x="614" y="831"/>
      <point x="619" y="850"/>
      <point x="614" y="865" type="curve" smooth="yes"/>
      <point x="608" y="888"/>
      <point x="591" y="896"/>
      <point x="553" y="889" type="curve" smooth="yes"/>
      <point x="260" y="833"/>
      <point x="111" y="525"/>
      <point x="111" y="293" type="curve" smooth="yes"/>
      <point x="111" y="94"/>
      <point x="231" y="-19"/>
      <point x="419" y="-19" type="curve" smooth="yes"/>
      <point x="756" y="-19"/>
      <point x="945" y="333"/>
      <point x="945" y="590" type="curve" smooth="yes"/>
      <point x="945" y="774"/>
      <point x="841" y="890"/>
    </contour>
  </outline>
</glyph>
<glyph name="OE.cur.ini" format="2">
  <advance width="1308"/>
  <anchor x="1227" y="0" name="cnct"/>
  <anchor x="856" y="838" name="top"/>
  <outline>
    <contour>
      <point x="351" y="-19" type="curve" smooth="yes"/>
      <point x="670" y="-19"/>
      <point x="871" y="381"/>
      <point x="871" y="639" type="curve" smooth="yes"/>
      <point x="871" y="795"/>
      <point x="801" y="890"/>
      <point x="684" y="890" type="curve" smooth="yes"/>
      <point x="525" y="890"/>
      <point x="433" y="759"/>
      <point x="376" y="664" type="curve" smooth="yes"/>
      <point x="359" y="634"/>
      <point x="363" y="618"/>
      <point x="379" y="606" type="curve" smooth="yes"/>
      <point x="399" y="593"/>
      <point x="421" y="593"/>
      <point x="439" y="620" type="curve" smooth="yes"/>
      <point x="486" y="696"/>
      <point x="558" y="806"/>
      <point x="661" y="806" type="curve" smooth="yes"/>
      <point x="741" y="806"/>
      <point x="779" y="748"/>
      <point x="779" y="639" type="curve" smooth="yes"/>
      <point x="779" y="419"/>
      <point x="606" y="66"/>
      <point x="358" y="66" type="curve" smooth="yes"/>
      <point x="246" y="66"/>
      <point x="188" y="146"/>
      <point x="188" y="283" type="curve" smooth="yes"/>
      <point x="188" y="445"/>
      <point x="283" y="669"/>
      <point x="393" y="765" type="curve" smooth="yes"/>
      <point x="425" y="793"/>
      <point x="431" y="805"/>
      <point x="413" y="829" type="curve" smooth="yes"/>
      <point x="396" y="849"/>
      <point x="385" y="856"/>
      <point x="349" y="829" type="curve" smooth="yes"/>
      <point x="209" y="719"/>
      <point x="95" y="471"/>
      <point x="95" y="290" type="curve" smooth="yes"/>
      <point x="95" y="95"/>
      <point x="189" y="-19"/>
    </contour>
    <contour>
      <point x="941" y="-17" type="curve" smooth="yes"/>
      <point x="981" y="-17"/>
      <point x="991" y="60"/>
      <point x="951" y="60" type="curve" smooth="yes"/>
      <point x="846" y="60"/>
      <point x="795" y="126"/>
      <point x="795" y="203" type="curve" smooth="yes"/>
      <point x="795" y="383"/>
      <point x="966" y="419"/>
      <point x="1115" y="419" type="curve" smooth="yes"/>
      <point x="1184" y="419" type="line" smooth="yes"/>
      <point x="1204" y="419"/>
      <point x="1215" y="430"/>
      <point x="1224" y="459" type="curve" smooth="yes"/>
      <point x="1233" y="489"/>
      <point x="1230" y="499"/>
      <point x="1208" y="499" type="curve" smooth="yes"/>
      <point x="1145" y="499" type="line" smooth="yes"/>
      <point x="1035" y="499"/>
      <point x="986" y="573"/>
      <point x="986" y="645" type="curve" smooth="yes"/>
      <point x="986" y="739"/>
      <point x="1051" y="803"/>
      <point x="1141" y="803" type="curve" smooth="yes"/>
      <point x="1213" y="803"/>
      <point x="1261" y="775"/>
      <point x="1309" y="723" type="curve" smooth="yes"/>
      <point x="1329" y="701"/>
      <point x="1351" y="703"/>
      <point x="1369" y="719" type="curve" smooth="yes"/>
      <point x="1386" y="731"/>
      <point x="1389" y="749"/>
      <point x="1375" y="770" type="curve" smooth="yes"/>
      <point x="1333" y="838"/>
      <point x="1246" y="890"/>
      <point x="1153" y="890" type="curve" smooth="yes"/>
      <point x="999" y="890"/>
      <point x="895" y="789"/>
      <point x="895" y="643" type="curve" smooth="yes"/>
      <point x="895" y="579"/>
      <point x="933" y="504"/>
      <point x="1001" y="476" type="curve"/>
      <point x="850" y="461"/>
      <point x="701" y="381"/>
      <point x="701" y="203" type="curve" smooth="yes"/>
      <point x="701" y="81"/>
      <point x="782" y="-17"/>
    </contour>
  </outline>
</glyph>
<glyph name="P.cur" format="2">
  <advance width="831"/>
  <outline>
    <contour>
      <point x="423" y="329" type="curve" smooth="yes"/>
      <point x="670" y="338"/>
      <point x="935" y="429"/>
      <point x="935" y="661" type="curve" smooth="yes"/>
      <point x="935" y="793"/>
      <point x="834" y="890"/>
      <point x="634" y="890" type="curve" smooth="yes"/>
      <point x="536" y="890"/>
      <point x="318" y="844"/>
      <point x="180" y="694" type="curve" smooth="yes"/>
      <point x="158" y="669"/>
      <point x="161" y="648"/>
      <point x="176" y="636" type="curve" smooth="yes"/>
      <point x="195" y="623"/>
      <point x="211" y="620"/>
      <point x="236" y="643" type="curve" smooth="yes"/>
      <point x="381" y="774"/>
      <point x="530" y="810"/>
      <point x="626" y="810" type="curve" smooth="yes"/>
      <point x="746" y="810"/>
      <point x="844" y="764"/>
      <point x="844" y="661" type="curve" smooth="yes"/>
      <point x="844" y="480"/>
      <point x="628" y="409"/>
      <point x="441" y="405" type="curve" smooth="yes"/>
      <point x="420" y="405"/>
      <point x="409" y="388"/>
      <point x="403" y="368" type="curve" smooth="yes"/>
      <point x="396" y="348"/>
      <point x="400" y="328"/>
    </contour>
    <contour>
      <point x="129" y="-17" type="curve" smooth="yes"/>
      <point x="218" y="-17"/>
      <point x="275" y="71"/>
      <point x="304" y="160" type="curve" smooth="yes"/>
      <point x="479" y="704" type="line" smooth="yes"/>
      <point x="486" y="725"/>
      <point x="470" y="734"/>
      <point x="440" y="734" type="curve" smooth="yes"/>
      <point x="410" y="734"/>
      <point x="395" y="725"/>
      <point x="389" y="706" type="curve" smooth="yes"/>
      <point x="215" y="165" type="line" smooth="yes"/>
      <point x="190" y="89"/>
      <point x="166" y="68"/>
      <point x="129" y="68" type="curve" smooth="yes"/>
      <point x="91" y="68"/>
      <point x="69" y="91"/>
      <point x="51" y="144" type="curve" smooth="yes"/>
      <point x="44" y="166"/>
      <point x="30" y="176"/>
      <point x="4" y="170" type="curve" smooth="yes"/>
      <point x="-27" y="163"/>
      <point x="-27" y="141"/>
      <point x="-22" y="116" type="curve" smooth="yes"/>
      <point x="-9" y="56"/>
      <point x="43" y="-17"/>
    </contour>
  </outline>
</glyph>
<glyph name="Q.cur_locl" format="2">
  <advance width="954"/>
  <anchor x="381" y="0" name="bottom"/>
  <anchor x="524" y="438" name="center"/>
  <anchor x="755" y="13" name="ogonek"/>
  <anchor x="630" y="838" name="top"/>
  <anchor x="714" y="875" name="topright"/>
  <outline>
    <contour>
      <point x="724" y="-114" type="curve" smooth="yes"/>
      <point x="815" y="-114"/>
      <point x="874" y="-21"/>
      <point x="908" y="30" type="curve" smooth="yes"/>
      <point x="919" y="49"/>
      <point x="916" y="63"/>
      <point x="900" y="76" type="curve" smooth="yes"/>
      <point x="880" y="93"/>
      <point x="856" y="93"/>
      <point x="845" y="74" type="curve" smooth="yes"/>
      <point x="801" y="4"/>
      <point x="764" y="-30"/>
      <point x="731" y="-30" type="curve" smooth="yes"/>
      <point x="649" y="-30"/>
      <point x="573" y="284"/>
      <point x="429" y="284" type="curve" smooth="yes"/>
      <point x="379" y="284"/>
      <point x="376" y="200"/>
      <point x="426" y="200" type="curve" smooth="yes"/>
      <point x="516" y="200"/>
      <point x="586" y="-114"/>
    </contour>
    <component base="O"/>
  </outline>
</glyph>
<glyph name="Q.dec.ini" format="2">
  <advance width="954"/>
  <anchor x="873" y="0" name="cnct"/>
  <outline>
    <contour>
      <point x="374" y="-17" type="curve" smooth="yes"/>
      <point x="471" y="-17"/>
      <point x="569" y="25"/>
      <point x="655" y="93" type="curve"/>
      <point x="686" y="33"/>
      <point x="723" y="-17"/>
      <point x="786" y="-17" type="curve" smooth="yes"/>
      <point x="836" y="-17"/>
      <point x="855" y="58"/>
      <point x="805" y="58" type="curve" smooth="yes"/>
      <point x="765" y="58"/>
      <point x="740" y="95"/>
      <point x="716" y="144" type="curve"/>
      <point x="848" y="270"/>
      <point x="940" y="448"/>
      <point x="940" y="589" type="curve" smooth="yes"/>
      <point x="940" y="716"/>
      <point x="875" y="791"/>
      <point x="754" y="791" type="curve" smooth="yes"/>
      <point x="630" y="791"/>
      <point x="473" y="681"/>
      <point x="398" y="449" type="curve" smooth="yes"/>
      <point x="384" y="406"/>
      <point x="371" y="360"/>
      <point x="360" y="309" type="curve"/>
      <point x="334" y="291"/>
      <point x="319" y="266"/>
      <point x="319" y="245" type="curve" smooth="yes"/>
      <point x="319" y="220"/>
      <point x="336" y="196"/>
      <point x="373" y="196" type="curve" smooth="yes"/>
      <point x="413" y="196"/>
      <point x="429" y="225"/>
      <point x="439" y="271" type="curve"/>
      <point x="534" y="299"/>
      <point x="580" y="240"/>
      <point x="618" y="169" type="curve"/>
      <point x="545" y="109"/>
      <point x="464" y="70"/>
      <point x="384" y="70" type="curve" smooth="yes"/>
      <point x="259" y="70"/>
      <point x="200" y="144"/>
      <point x="200" y="266" type="curve" smooth="yes"/>
      <point x="200" y="478"/>
      <point x="350" y="749"/>
      <point x="621" y="818" type="curve" smooth="yes"/>
      <point x="638" y="823"/>
      <point x="643" y="838"/>
      <point x="636" y="863" type="curve" smooth="yes"/>
      <point x="630" y="886"/>
      <point x="618" y="895"/>
      <point x="598" y="890" type="curve" smooth="yes"/>
      <point x="288" y="810"/>
      <point x="109" y="524"/>
      <point x="109" y="263" type="curve" smooth="yes"/>
      <point x="109" y="88"/>
      <point x="205" y="-17"/>
    </contour>
    <contour>
      <point x="748" y="706" type="curve" smooth="yes"/>
      <point x="816" y="706"/>
      <point x="849" y="668"/>
      <point x="849" y="585" type="curve" smooth="yes"/>
      <point x="849" y="473"/>
      <point x="778" y="330"/>
      <point x="675" y="223" type="curve"/>
      <point x="635" y="294"/>
      <point x="576" y="358"/>
      <point x="455" y="340" type="curve"/>
      <point x="464" y="371"/>
      <point x="473" y="406"/>
      <point x="484" y="438" type="curve" smooth="yes"/>
      <point x="541" y="616"/>
      <point x="661" y="706"/>
    </contour>
  </outline>
</glyph>
<glyph name="Q.dec_pt" format="2">
  <advance width="869"/>
  <outline>
    <contour>
      <point x="701" y="453" type="curve" smooth="yes"/>
      <point x="816" y="770" type="line" smooth="yes"/>
      <point x="823" y="788"/>
      <point x="808" y="798"/>
      <point x="779" y="798" type="curve" smooth="yes"/>
      <point x="750" y="798"/>
      <point x="735" y="789"/>
      <point x="729" y="770" type="curve"/>
      <point x="618" y="550"/>
      <point x="483" y="459"/>
      <point x="389" y="459" type="curve" smooth="yes"/>
      <point x="335" y="459"/>
      <point x="316" y="498"/>
      <point x="316" y="541" type="curve" smooth="yes"/>
      <point x="316" y="645"/>
      <point x="410" y="806"/>
      <point x="505" y="806" type="curve" smooth="yes"/>
      <point x="525" y="806"/>
      <point x="536" y="796"/>
      <point x="536" y="779" type="curve" smooth="yes"/>
      <point x="536" y="718"/>
      <point x="439" y="670"/>
      <point x="365" y="670" type="curve" smooth="yes"/>
      <point x="299" y="670"/>
      <point x="256" y="686"/>
      <point x="213" y="705" type="curve" smooth="yes"/>
      <point x="194" y="713"/>
      <point x="175" y="711"/>
      <point x="163" y="688" type="curve" smooth="yes"/>
      <point x="150" y="664"/>
      <point x="159" y="650"/>
      <point x="180" y="638" type="curve" smooth="yes"/>
      <point x="224" y="613"/>
      <point x="264" y="590"/>
      <point x="361" y="590" type="curve" smooth="yes"/>
      <point x="480" y="590"/>
      <point x="628" y="678"/>
      <point x="628" y="786" type="curve" smooth="yes"/>
      <point x="628" y="851"/>
      <point x="585" y="890"/>
      <point x="516" y="890" type="curve" smooth="yes"/>
      <point x="359" y="890"/>
      <point x="225" y="686"/>
      <point x="225" y="533" type="curve" smooth="yes"/>
      <point x="225" y="446"/>
      <point x="278" y="371"/>
      <point x="374" y="371" type="curve" smooth="yes"/>
      <point x="462" y="371"/>
      <point x="554" y="423"/>
      <point x="641" y="529" type="curve"/>
      <point x="614" y="453" type="line" smooth="yes"/>
      <point x="520" y="195"/>
      <point x="445" y="54"/>
      <point x="308" y="54" type="curve" smooth="yes"/>
      <point x="274" y="54"/>
      <point x="249" y="73"/>
      <point x="249" y="93" type="curve" smooth="yes"/>
      <point x="249" y="109"/>
      <point x="256" y="121"/>
      <point x="280" y="121" type="curve" smooth="yes"/>
      <point x="370" y="121"/>
      <point x="425" y="-11"/>
      <point x="555" y="-11" type="curve" smooth="yes"/>
      <point x="636" y="-11"/>
      <point x="728" y="49"/>
      <point x="796" y="149" type="curve" smooth="yes"/>
      <point x="811" y="170"/>
      <point x="814" y="184"/>
      <point x="795" y="200" type="curve" smooth="yes"/>
      <point x="779" y="214"/>
      <point x="764" y="218"/>
      <point x="744" y="195" type="curve" smooth="yes"/>
      <point x="671" y="109"/>
      <point x="619" y="73"/>
      <point x="568" y="73" type="curve" smooth="yes"/>
      <point x="473" y="73"/>
      <point x="404" y="199"/>
      <point x="288" y="199" type="curve" smooth="yes"/>
      <point x="205" y="199"/>
      <point x="164" y="150"/>
      <point x="164" y="88" type="curve" smooth="yes"/>
      <point x="164" y="29"/>
      <point x="223" y="-21"/>
      <point x="295" y="-21" type="curve" smooth="yes"/>
      <point x="494" y="-21"/>
      <point x="591" y="148"/>
    </contour>
  </outline>
</glyph>
<glyph name="Q_locl" format="2">
  <advance width="901"/>
  <outline>
    <contour>
      <point x="295" y="-17" type="curve" smooth="yes"/>
      <point x="420" y="-17"/>
      <point x="558" y="81"/>
      <point x="688" y="254" type="curve"/>
      <point x="488" y="-360" type="line" smooth="yes"/>
      <point x="480" y="-381"/>
      <point x="496" y="-390"/>
      <point x="526" y="-390" type="curve" smooth="yes"/>
      <point x="556" y="-390"/>
      <point x="571" y="-381"/>
      <point x="578" y="-364" type="curve" smooth="yes"/>
      <point x="873" y="544" type="line" smooth="yes"/>
      <point x="879" y="565"/>
      <point x="864" y="574"/>
      <point x="834" y="574" type="curve" smooth="yes"/>
      <point x="804" y="574"/>
      <point x="789" y="565"/>
      <point x="783" y="546" type="curve"/>
      <point x="630" y="250"/>
      <point x="450" y="70"/>
      <point x="305" y="70" type="curve" smooth="yes"/>
      <point x="220" y="70"/>
      <point x="175" y="131"/>
      <point x="175" y="233" type="curve" smooth="yes"/>
      <point x="175" y="520"/>
      <point x="408" y="803"/>
      <point x="653" y="803" type="curve" smooth="yes"/>
      <point x="744" y="803"/>
      <point x="815" y="771"/>
      <point x="860" y="711" type="curve" smooth="yes"/>
      <point x="875" y="690"/>
      <point x="890" y="681"/>
      <point x="915" y="698" type="curve" smooth="yes"/>
      <point x="940" y="714"/>
      <point x="943" y="729"/>
      <point x="930" y="751" type="curve" smooth="yes"/>
      <point x="883" y="839"/>
      <point x="785" y="890"/>
      <point x="664" y="890" type="curve" smooth="yes"/>
      <point x="368" y="890"/>
      <point x="84" y="564"/>
      <point x="84" y="233" type="curve" smooth="yes"/>
      <point x="84" y="78"/>
      <point x="164" y="-17"/>
    </contour>
  </outline>
</glyph>
<glyph name="R.cur" format="2">
  <advance width="933"/>
  <anchor x="421" y="0" name="bottom"/>
  <anchor x="655" y="838" name="top"/>
  <outline>
    <contour>
      <point x="715" y="-19" type="curve" smooth="yes"/>
      <point x="788" y="-19"/>
      <point x="838" y="44"/>
      <point x="881" y="108" type="curve" smooth="yes"/>
      <point x="895" y="128"/>
      <point x="891" y="141"/>
      <point x="871" y="156" type="curve" smooth="yes"/>
      <point x="848" y="174"/>
      <point x="830" y="161"/>
      <point x="820" y="148" type="curve" smooth="yes"/>
      <point x="770" y="78"/>
      <point x="746" y="61"/>
      <point x="715" y="61" type="curve" smooth="yes"/>
      <point x="679" y="61"/>
      <point x="648" y="89"/>
      <point x="609" y="215" type="curve" smooth="yes"/>
      <point x="591" y="270"/>
      <point x="575" y="325"/>
      <point x="563" y="381" type="curve"/>
      <point x="755" y="415"/>
      <point x="918" y="510"/>
      <point x="918" y="679" type="curve" smooth="yes"/>
      <point x="918" y="798"/>
      <point x="825" y="890"/>
      <point x="629" y="890" type="curve" smooth="yes"/>
      <point x="536" y="890"/>
      <point x="318" y="844"/>
      <point x="180" y="694" type="curve" smooth="yes"/>
      <point x="158" y="669"/>
      <point x="161" y="648"/>
      <point x="176" y="636" type="curve" smooth="yes"/>
      <point x="195" y="623"/>
      <point x="211" y="620"/>
      <point x="236" y="643" type="curve" smooth="yes"/>
      <point x="381" y="774"/>
      <point x="530" y="810"/>
      <point x="621" y="810" type="curve" smooth="yes"/>
      <point x="738" y="810"/>
      <point x="826" y="769"/>
      <point x="826" y="679" type="curve" smooth="yes"/>
      <point x="826" y="553"/>
      <point x="696" y="479"/>
      <point x="549" y="453" type="curve"/>
      <point x="533" y="470"/>
      <point x="514" y="485"/>
      <point x="485" y="485" type="curve" smooth="yes"/>
      <point x="441" y="485"/>
      <point x="426" y="459"/>
      <point x="426" y="430" type="curve" smooth="yes"/>
      <point x="426" y="403"/>
      <point x="448" y="379"/>
      <point x="480" y="374" type="curve"/>
      <point x="495" y="301"/>
      <point x="516" y="228"/>
      <point x="539" y="155" type="curve" smooth="yes"/>
      <point x="580" y="23"/>
      <point x="639" y="-19"/>
    </contour>
    <contour>
      <point x="129" y="-17" type="curve" smooth="yes"/>
      <point x="218" y="-17"/>
      <point x="275" y="71"/>
      <point x="304" y="160" type="curve" smooth="yes"/>
      <point x="479" y="704" type="line" smooth="yes"/>
      <point x="486" y="725"/>
      <point x="470" y="734"/>
      <point x="440" y="734" type="curve" smooth="yes"/>
      <point x="410" y="734"/>
      <point x="395" y="725"/>
      <point x="389" y="706" type="curve" smooth="yes"/>
      <point x="215" y="165" type="line" smooth="yes"/>
      <point x="190" y="89"/>
      <point x="166" y="68"/>
      <point x="129" y="68" type="curve" smooth="yes"/>
      <point x="91" y="68"/>
      <point x="69" y="91"/>
      <point x="51" y="144" type="curve" smooth="yes"/>
      <point x="44" y="166"/>
      <point x="30" y="176"/>
      <point x="4" y="170" type="curve" smooth="yes"/>
      <point x="-27" y="163"/>
      <point x="-27" y="141"/>
      <point x="-22" y="116" type="curve" smooth="yes"/>
      <point x="-9" y="56"/>
      <point x="43" y="-17"/>
    </contour>
  </outline>
</glyph>
<glyph name="R.cur.ini" format="2">
  <advance width="889"/>
  <anchor x="421" y="0" name="bottom"/>
  <anchor x="808" y="0" name="cnct"/>
  <anchor x="655" y="838" name="top"/>
  <outline>
    <contour>
      <point x="719" y="-17" type="curve" smooth="yes"/>
      <point x="769" y="-17"/>
      <point x="789" y="58"/>
      <point x="739" y="58" type="curve" smooth="yes"/>
      <point x="679" y="58"/>
      <point x="648" y="89"/>
      <point x="609" y="215" type="curve" smooth="yes"/>
      <point x="591" y="270"/>
      <point x="575" y="325"/>
      <point x="563" y="381" type="curve"/>
      <point x="755" y="415"/>
      <point x="918" y="510"/>
      <point x="918" y="679" type="curve" smooth="yes"/>
      <point x="918" y="798"/>
      <point x="825" y="890"/>
      <point x="629" y="890" type="curve" smooth="yes"/>
      <point x="536" y="890"/>
      <point x="318" y="844"/>
      <point x="180" y="694" type="curve" smooth="yes"/>
      <point x="158" y="669"/>
      <point x="161" y="648"/>
      <point x="176" y="636" type="curve" smooth="yes"/>
      <point x="195" y="623"/>
      <point x="211" y="620"/>
      <point x="236" y="643" type="curve" smooth="yes"/>
      <point x="381" y="774"/>
      <point x="530" y="810"/>
      <point x="621" y="810" type="curve" smooth="yes"/>
      <point x="738" y="810"/>
      <point x="826" y="769"/>
      <point x="826" y="679" type="curve" smooth="yes"/>
      <point x="826" y="553"/>
      <point x="696" y="479"/>
      <point x="549" y="453" type="curve"/>
      <point x="533" y="470"/>
      <point x="514" y="485"/>
      <point x="485" y="485" type="curve" smooth="yes"/>
      <point x="441" y="485"/>
      <point x="426" y="459"/>
      <point x="426" y="430" type="curve" smooth="yes"/>
      <point x="426" y="403"/>
      <point x="448" y="379"/>
      <point x="480" y="374" type="curve"/>
      <point x="495" y="301"/>
      <point x="516" y="228"/>
      <point x="539" y="155" type="curve" smooth="yes"/>
      <point x="580" y="23"/>
      <point x="639" y="-17"/>
    </contour>
    <contour>
      <point x="129" y="-17" type="curve" smooth="yes"/>
      <point x="218" y="-17"/>
      <point x="275" y="71"/>
      <point x="304" y="160" type="curve" smooth="yes"/>
      <point x="479" y="704" type="line" smooth="yes"/>
      <point x="485" y="725"/>
      <point x="470" y="734"/>
      <point x="440" y="734" type="curve" smooth="yes"/>
      <point x="410" y="734"/>
      <point x="395" y="725"/>
      <point x="389" y="706" type="curve" smooth="yes"/>
      <point x="215" y="165" type="line" smooth="yes"/>
      <point x="190" y="89"/>
      <point x="166" y="68"/>
      <point x="129" y="68" type="curve" smooth="yes"/>
      <point x="91" y="68"/>
      <point x="65" y="99"/>
      <point x="43" y="169" type="curve" smooth="yes"/>
      <point x="36" y="191"/>
      <point x="23" y="201"/>
      <point x="-4" y="195" type="curve" smooth="yes"/>
      <point x="-35" y="188"/>
      <point x="-35" y="166"/>
      <point x="-29" y="141" type="curve" smooth="yes"/>
      <point x="-9" y="56"/>
      <point x="43" y="-17"/>
    </contour>
  </outline>
</glyph>
<glyph name="R.dec.ini" format="2">
  <advance width="900"/>
  <anchor x="421" y="0" name="bottom"/>
  <anchor x="819" y="0" name="cnct"/>
  <anchor x="655" y="838" name="top"/>
  <outline>
    <contour>
      <point x="170" y="-14" type="curve" smooth="yes"/>
      <point x="200" y="-14"/>
      <point x="215" y="-5"/>
      <point x="221" y="14" type="curve" smooth="yes"/>
      <point x="356" y="433" type="line"/>
      <point x="434" y="644"/>
      <point x="600" y="806"/>
      <point x="745" y="806" type="curve" smooth="yes"/>
      <point x="801" y="806"/>
      <point x="839" y="784"/>
      <point x="839" y="723" type="curve" smooth="yes"/>
      <point x="839" y="616"/>
      <point x="716" y="500"/>
      <point x="548" y="446" type="curve"/>
      <point x="533" y="461"/>
      <point x="511" y="474"/>
      <point x="480" y="474" type="curve" smooth="yes"/>
      <point x="445" y="474"/>
      <point x="420" y="453"/>
      <point x="420" y="425" type="curve" smooth="yes"/>
      <point x="420" y="395"/>
      <point x="448" y="371"/>
      <point x="485" y="368" type="curve"/>
      <point x="504" y="309"/>
      <point x="516" y="273"/>
      <point x="540" y="205" type="curve" smooth="yes"/>
      <point x="594" y="56"/>
      <point x="640" y="-17"/>
      <point x="730" y="-17" type="curve" smooth="yes"/>
      <point x="780" y="-17"/>
      <point x="800" y="58"/>
      <point x="750" y="58" type="curve" smooth="yes"/>
      <point x="706" y="58"/>
      <point x="671" y="89"/>
      <point x="621" y="230" type="curve" smooth="yes"/>
      <point x="600" y="290"/>
      <point x="585" y="331"/>
      <point x="570" y="381" type="curve"/>
      <point x="793" y="445"/>
      <point x="929" y="585"/>
      <point x="929" y="725" type="curve" smooth="yes"/>
      <point x="929" y="838"/>
      <point x="856" y="890"/>
      <point x="751" y="890" type="curve" smooth="yes"/>
      <point x="649" y="890"/>
      <point x="541" y="828"/>
      <point x="450" y="723" type="curve"/>
      <point x="494" y="860" type="line" smooth="yes"/>
      <point x="501" y="881"/>
      <point x="485" y="890"/>
      <point x="456" y="890" type="curve" smooth="yes"/>
      <point x="425" y="890"/>
      <point x="418" y="883"/>
      <point x="404" y="863" type="curve" smooth="yes"/>
      <point x="350" y="784"/>
      <point x="266" y="721"/>
      <point x="161" y="656" type="curve" smooth="yes"/>
      <point x="136" y="641"/>
      <point x="135" y="621"/>
      <point x="148" y="600" type="curve" smooth="yes"/>
      <point x="163" y="576"/>
      <point x="181" y="569"/>
      <point x="208" y="586" type="curve" smooth="yes"/>
      <point x="263" y="623"/>
      <point x="310" y="658"/>
      <point x="353" y="696" type="curve"/>
      <point x="131" y="16" type="line" smooth="yes"/>
      <point x="124" y="-5"/>
      <point x="140" y="-14"/>
    </contour>
  </outline>
</glyph>
<glyph name="S.dec" format="2">
  <advance width="844"/>
  <anchor x="234" y="0" name="bottom"/>
  <anchor x="778" y="875" name="top"/>
  <outline>
    <contour>
      <point x="245" y="-19" type="curve" smooth="yes"/>
      <point x="345" y="-19"/>
      <point x="409" y="39"/>
      <point x="453" y="175" type="curve" smooth="yes"/>
      <point x="561" y="506" type="line" smooth="yes"/>
      <point x="618" y="676"/>
      <point x="691" y="805"/>
      <point x="794" y="805" type="curve" smooth="yes"/>
      <point x="839" y="805"/>
      <point x="866" y="781"/>
      <point x="866" y="741" type="curve" smooth="yes"/>
      <point x="866" y="610"/>
      <point x="709" y="494"/>
      <point x="524" y="494" type="curve" smooth="yes"/>
      <point x="414" y="494"/>
      <point x="288" y="524"/>
      <point x="190" y="573" type="curve" smooth="yes"/>
      <point x="168" y="584"/>
      <point x="150" y="578"/>
      <point x="138" y="555" type="curve" smooth="yes"/>
      <point x="125" y="531"/>
      <point x="129" y="514"/>
      <point x="151" y="503" type="curve" smooth="yes"/>
      <point x="270" y="446"/>
      <point x="403" y="415"/>
      <point x="508" y="415" type="curve" smooth="yes"/>
      <point x="755" y="415"/>
      <point x="958" y="566"/>
      <point x="958" y="745" type="curve" smooth="yes"/>
      <point x="958" y="829"/>
      <point x="890" y="890"/>
      <point x="798" y="890" type="curve" smooth="yes"/>
      <point x="646" y="890"/>
      <point x="550" y="740"/>
      <point x="478" y="520" type="curve" smooth="yes"/>
      <point x="369" y="189" type="line" smooth="yes"/>
      <point x="340" y="103"/>
      <point x="304" y="66"/>
      <point x="244" y="66" type="curve" smooth="yes"/>
      <point x="186" y="66"/>
      <point x="144" y="113"/>
      <point x="113" y="154" type="curve" smooth="yes"/>
      <point x="94" y="179"/>
      <point x="79" y="186"/>
      <point x="56" y="173" type="curve" smooth="yes"/>
      <point x="33" y="159"/>
      <point x="28" y="140"/>
      <point x="41" y="118" type="curve" smooth="yes"/>
      <point x="91" y="31"/>
      <point x="160" y="-19"/>
    </contour>
  </outline>
</glyph>
<glyph name="T.cur" format="2">
  <advance width="721"/>
  <anchor x="371" y="0" name="bottom"/>
  <anchor x="319" y="438" name="center"/>
  <anchor x="581" y="838" name="top"/>
  <outline>
    <contour>
      <point x="393" y="-17" type="curve" smooth="yes"/>
      <point x="491" y="-17"/>
      <point x="581" y="35"/>
      <point x="653" y="134" type="curve" smooth="yes"/>
      <point x="671" y="159"/>
      <point x="674" y="175"/>
      <point x="650" y="195" type="curve" smooth="yes"/>
      <point x="633" y="210"/>
      <point x="618" y="209"/>
      <point x="594" y="180" type="curve" smooth="yes"/>
      <point x="529" y="101"/>
      <point x="471" y="68"/>
      <point x="400" y="68" type="curve" smooth="yes"/>
      <point x="328" y="68"/>
      <point x="283" y="109"/>
      <point x="283" y="185" type="curve" smooth="yes"/>
      <point x="283" y="340"/>
      <point x="385" y="521"/>
      <point x="629" y="795" type="curve"/>
      <point x="868" y="795" type="line" smooth="yes"/>
      <point x="888" y="795"/>
      <point x="898" y="806"/>
      <point x="908" y="835" type="curve" smooth="yes"/>
      <point x="918" y="865"/>
      <point x="914" y="875"/>
      <point x="894" y="875" type="curve" smooth="yes"/>
      <point x="428" y="875" type="line" smooth="yes"/>
      <point x="265" y="875"/>
      <point x="186" y="806"/>
      <point x="154" y="714" type="curve" smooth="yes"/>
      <point x="144" y="685"/>
      <point x="156" y="674"/>
      <point x="176" y="670" type="curve" smooth="yes"/>
      <point x="200" y="666"/>
      <point x="216" y="670"/>
      <point x="229" y="699" type="curve" smooth="yes"/>
      <point x="263" y="776"/>
      <point x="321" y="795"/>
      <point x="409" y="795" type="curve" smooth="yes"/>
      <point x="523" y="795" type="line"/>
      <point x="291" y="528"/>
      <point x="195" y="344"/>
      <point x="195" y="183" type="curve" smooth="yes"/>
      <point x="195" y="56"/>
      <point x="265" y="-17"/>
    </contour>
  </outline>
</glyph>
<glyph name="T.cur.ini" format="2">
  <advance width="671"/>
  <anchor x="371" y="0" name="bottom"/>
  <anchor x="448" y="438" name="center"/>
  <anchor x="590" y="0" name="cnct"/>
  <anchor x="601" y="838" name="top"/>
  <outline>
    <contour>
      <point x="393" y="-17" type="curve" smooth="yes"/>
      <point x="443" y="-17"/>
      <point x="453" y="60"/>
      <point x="403" y="60" type="curve" smooth="yes"/>
      <point x="328" y="60"/>
      <point x="283" y="99"/>
      <point x="283" y="185" type="curve" smooth="yes"/>
      <point x="283" y="340"/>
      <point x="385" y="521"/>
      <point x="629" y="795" type="curve"/>
      <point x="868" y="795" type="line" smooth="yes"/>
      <point x="888" y="795"/>
      <point x="898" y="806"/>
      <point x="908" y="835" type="curve" smooth="yes"/>
      <point x="918" y="865"/>
      <point x="914" y="875"/>
      <point x="894" y="875" type="curve" smooth="yes"/>
      <point x="428" y="875" type="line" smooth="yes"/>
      <point x="265" y="875"/>
      <point x="186" y="806"/>
      <point x="154" y="714" type="curve" smooth="yes"/>
      <point x="144" y="685"/>
      <point x="156" y="674"/>
      <point x="176" y="670" type="curve" smooth="yes"/>
      <point x="200" y="666"/>
      <point x="216" y="670"/>
      <point x="229" y="699" type="curve" smooth="yes"/>
      <point x="263" y="776"/>
      <point x="321" y="795"/>
      <point x="409" y="795" type="curve" smooth="yes"/>
      <point x="523" y="795" type="line"/>
      <point x="291" y="528"/>
      <point x="195" y="344"/>
      <point x="195" y="183" type="curve" smooth="yes"/>
      <point x="195" y="59"/>
      <point x="270" y="-17"/>
    </contour>
  </outline>
</glyph>
<glyph name="T.cur_locl.ini" format="2">
  <advance width="849"/>
  <anchor x="546" y="0" name="bottom"/>
  <anchor x="426" y="387" name="center"/>
  <anchor x="768" y="0" name="cnct"/>
  <anchor x="664" y="838" name="top"/>
  <outline>
    <contour>
      <point x="570" y="-17" type="curve" smooth="yes"/>
      <point x="620" y="-17"/>
      <point x="630" y="60"/>
      <point x="580" y="60" type="curve" smooth="yes"/>
      <point x="464" y="60"/>
      <point x="386" y="131"/>
      <point x="386" y="234" type="curve" smooth="yes"/>
      <point x="386" y="274"/>
      <point x="394" y="311"/>
      <point x="408" y="346" type="curve"/>
      <point x="639" y="346" type="line" smooth="yes"/>
      <point x="655" y="346"/>
      <point x="668" y="356"/>
      <point x="674" y="381" type="curve" smooth="yes"/>
      <point x="683" y="410"/>
      <point x="676" y="426"/>
      <point x="656" y="426" type="curve" smooth="yes"/>
      <point x="454" y="426" type="line"/>
      <point x="553" y="559"/>
      <point x="756" y="670"/>
      <point x="1040" y="815" type="curve"/>
      <point x="1056" y="825"/>
      <point x="1058" y="841"/>
      <point x="1045" y="864" type="curve" smooth="yes"/>
      <point x="1035" y="883"/>
      <point x="1018" y="888"/>
      <point x="1000" y="880" type="curve" smooth="yes"/>
      <point x="939" y="854"/>
      <point x="893" y="834"/>
      <point x="820" y="834" type="curve" smooth="yes"/>
      <point x="711" y="834"/>
      <point x="658" y="890"/>
      <point x="524" y="890" type="curve" smooth="yes"/>
      <point x="410" y="890"/>
      <point x="320" y="840"/>
      <point x="223" y="751" type="curve" smooth="yes"/>
      <point x="209" y="739"/>
      <point x="210" y="719"/>
      <point x="226" y="703" type="curve" smooth="yes"/>
      <point x="244" y="683"/>
      <point x="264" y="680"/>
      <point x="283" y="696" type="curve" smooth="yes"/>
      <point x="358" y="765"/>
      <point x="434" y="808"/>
      <point x="523" y="808" type="curve" smooth="yes"/>
      <point x="620" y="808"/>
      <point x="695" y="760"/>
      <point x="771" y="760" type="curve" smooth="yes"/>
      <point x="783" y="760"/>
      <point x="794" y="761"/>
      <point x="805" y="763" type="curve"/>
      <point x="595" y="668"/>
      <point x="434" y="558"/>
      <point x="353" y="426" type="curve"/>
      <point x="213" y="426" type="line" smooth="yes"/>
      <point x="196" y="426"/>
      <point x="184" y="416"/>
      <point x="178" y="391" type="curve" smooth="yes"/>
      <point x="169" y="363"/>
      <point x="175" y="346"/>
      <point x="195" y="346" type="curve" smooth="yes"/>
      <point x="315" y="346" type="line"/>
      <point x="301" y="309"/>
      <point x="295" y="270"/>
      <point x="295" y="230" type="curve" smooth="yes"/>
      <point x="295" y="83"/>
      <point x="405" y="-17"/>
    </contour>
  </outline>
</glyph>
<glyph name="U.cur" format="2">
  <advance width="953"/>
  <guideline x="195" y="143" angle="72.91"/>
  <anchor x="395" y="0" name="bottom"/>
  <anchor x="780" y="13" name="ogonek"/>
  <anchor x="654" y="838" name="top"/>
  <anchor x="919" y="889" name="topright"/>
  <outline>
    <contour>
      <point x="339" y="-17" type="curve" smooth="yes"/>
      <point x="447" y="-17"/>
      <point x="558" y="60"/>
      <point x="648" y="182" type="curve"/>
      <point x="646" y="176"/>
      <point x="644" y="169"/>
      <point x="642" y="163" type="curve" smooth="yes"/>
      <point x="606" y="39"/>
      <point x="633" y="-17"/>
      <point x="703" y="-17" type="curve" smooth="yes"/>
      <point x="785" y="-17"/>
      <point x="855" y="73"/>
      <point x="883" y="111" type="curve" smooth="yes"/>
      <point x="896" y="130"/>
      <point x="893" y="151"/>
      <point x="871" y="165" type="curve" smooth="yes"/>
      <point x="854" y="176"/>
      <point x="840" y="175"/>
      <point x="824" y="154" type="curve" smooth="yes"/>
      <point x="774" y="89"/>
      <point x="749" y="68"/>
      <point x="730" y="68" type="curve" smooth="yes"/>
      <point x="706" y="68"/>
      <point x="710" y="103"/>
      <point x="733" y="171" type="curve" smooth="yes"/>
      <point x="959" y="859" type="line" smooth="yes"/>
      <point x="966" y="880"/>
      <point x="950" y="889"/>
      <point x="920" y="889" type="curve" smooth="yes"/>
      <point x="890" y="889"/>
      <point x="875" y="880"/>
      <point x="869" y="861" type="curve" smooth="yes"/>
      <point x="720" y="402" type="line"/>
      <point x="619" y="209"/>
      <point x="481" y="69"/>
      <point x="365" y="69" type="curve" smooth="yes"/>
      <point x="283" y="69"/>
      <point x="268" y="123"/>
      <point x="300" y="224" type="curve" smooth="yes"/>
      <point x="468" y="739" type="line" smooth="yes"/>
      <point x="500" y="839"/>
      <point x="474" y="891"/>
      <point x="394" y="891" type="curve" smooth="yes"/>
      <point x="350" y="891"/>
      <point x="284" y="875"/>
      <point x="188" y="740" type="curve" smooth="yes"/>
      <point x="171" y="718"/>
      <point x="176" y="700"/>
      <point x="196" y="688" type="curve" smooth="yes"/>
      <point x="220" y="673"/>
      <point x="240" y="679"/>
      <point x="263" y="710" type="curve" smooth="yes"/>
      <point x="310" y="776"/>
      <point x="341" y="806"/>
      <point x="369" y="806" type="curve" smooth="yes"/>
      <point x="396" y="806"/>
      <point x="394" y="785"/>
      <point x="379" y="740" type="curve" smooth="yes"/>
      <point x="211" y="221" type="line" smooth="yes"/>
      <point x="161" y="65"/>
      <point x="205" y="-17"/>
    </contour>
  </outline>
</glyph>
<glyph name="V.cur" format="2">
  <advance width="909"/>
  <outline>
    <contour>
      <point x="294" y="-19" type="curve" smooth="yes"/>
      <point x="464" y="-19"/>
      <point x="646" y="169"/>
      <point x="818" y="520" type="curve" smooth="yes"/>
      <point x="870" y="626"/>
      <point x="901" y="721"/>
      <point x="918" y="789" type="curve"/>
      <point x="943" y="770"/>
      <point x="989" y="754"/>
      <point x="1026" y="751" type="curve" smooth="yes"/>
      <point x="1059" y="749"/>
      <point x="1079" y="815"/>
      <point x="1040" y="820" type="curve" smooth="yes"/>
      <point x="998" y="828"/>
      <point x="945" y="849"/>
      <point x="933" y="869" type="curve"/>
      <point x="920" y="905"/>
      <point x="888" y="926"/>
      <point x="858" y="926" type="curve" smooth="yes"/>
      <point x="820" y="926"/>
      <point x="803" y="901"/>
      <point x="803" y="876" type="curve" smooth="yes"/>
      <point x="803" y="855"/>
      <point x="815" y="834"/>
      <point x="839" y="825" type="curve"/>
      <point x="825" y="754"/>
      <point x="779" y="634"/>
      <point x="726" y="526" type="curve" smooth="yes"/>
      <point x="614" y="298"/>
      <point x="445" y="66"/>
      <point x="306" y="66" type="curve" smooth="yes"/>
      <point x="250" y="66"/>
      <point x="243" y="105"/>
      <point x="279" y="221" type="curve" smooth="yes"/>
      <point x="326" y="375"/>
      <point x="388" y="575"/>
      <point x="436" y="728" type="curve" smooth="yes"/>
      <point x="469" y="830"/>
      <point x="446" y="890"/>
      <point x="376" y="890" type="curve" smooth="yes"/>
      <point x="313" y="890"/>
      <point x="250" y="835"/>
      <point x="188" y="740" type="curve" smooth="yes"/>
      <point x="173" y="718"/>
      <point x="176" y="700"/>
      <point x="196" y="688" type="curve" smooth="yes"/>
      <point x="220" y="673"/>
      <point x="238" y="679"/>
      <point x="260" y="710" type="curve" smooth="yes"/>
      <point x="301" y="766"/>
      <point x="331" y="806"/>
      <point x="350" y="806" type="curve" smooth="yes"/>
      <point x="366" y="806"/>
      <point x="365" y="785"/>
      <point x="348" y="728" type="curve" smooth="yes"/>
      <point x="299" y="574"/>
      <point x="239" y="375"/>
      <point x="191" y="221" type="curve" smooth="yes"/>
      <point x="139" y="50"/>
      <point x="169" y="-19"/>
    </contour>
  </outline>
</glyph>
<glyph name="V.dec" format="2">
  <advance width="948"/>
  <outline>
    <contour>
      <point x="440" y="-17" type="curve" smooth="yes"/>
      <point x="468" y="-17"/>
      <point x="485" y="-12"/>
      <point x="501" y="20" type="curve" smooth="yes"/>
      <point x="829" y="683"/>
      <point x="924" y="810"/>
      <point x="1039" y="810" type="curve" smooth="yes"/>
      <point x="1061" y="810"/>
      <point x="1084" y="806"/>
      <point x="1101" y="800" type="curve" smooth="yes"/>
      <point x="1120" y="793"/>
      <point x="1134" y="801"/>
      <point x="1143" y="825" type="curve" smooth="yes"/>
      <point x="1151" y="848"/>
      <point x="1145" y="864"/>
      <point x="1123" y="873" type="curve" smooth="yes"/>
      <point x="1096" y="884"/>
      <point x="1074" y="890"/>
      <point x="1043" y="890" type="curve" smooth="yes"/>
      <point x="883" y="890"/>
      <point x="783" y="768"/>
      <point x="481" y="149" type="curve"/>
      <point x="528" y="764"/>
      <point x="481" y="890"/>
      <point x="339" y="890" type="curve" smooth="yes"/>
      <point x="230" y="890"/>
      <point x="186" y="794"/>
      <point x="189" y="691" type="curve" smooth="yes"/>
      <point x="189" y="684"/>
      <point x="189" y="675"/>
      <point x="190" y="664" type="curve" smooth="yes"/>
      <point x="193" y="639"/>
      <point x="198" y="629"/>
      <point x="229" y="629" type="curve" smooth="yes"/>
      <point x="260" y="629"/>
      <point x="271" y="643"/>
      <point x="269" y="666" type="curve" smooth="yes"/>
      <point x="268" y="679"/>
      <point x="268" y="689"/>
      <point x="268" y="699" type="curve" smooth="yes"/>
      <point x="268" y="753"/>
      <point x="279" y="808"/>
      <point x="334" y="808" type="curve" smooth="yes"/>
      <point x="411" y="808"/>
      <point x="434" y="678"/>
      <point x="395" y="23" type="curve" smooth="yes"/>
      <point x="394" y="-9"/>
      <point x="403" y="-17"/>
    </contour>
  </outline>
</glyph>
<glyph name="W.cur" format="2">
  <advance width="1276"/>
  <anchor x="558" y="0" name="bottom"/>
  <anchor x="816" y="838" name="top"/>
  <outline>
    <contour>
      <point x="294" y="-19" type="curve" smooth="yes"/>
      <point x="423" y="-19"/>
      <point x="566" y="119"/>
      <point x="668" y="358" type="curve"/>
      <point x="670" y="358" type="line"/>
      <point x="659" y="326"/>
      <point x="629" y="226"/>
      <point x="629" y="140" type="curve" smooth="yes"/>
      <point x="629" y="55"/>
      <point x="659" y="-19"/>
      <point x="744" y="-19" type="curve" smooth="yes"/>
      <point x="873" y="-19"/>
      <point x="1025" y="175"/>
      <point x="1193" y="520" type="curve" smooth="yes"/>
      <point x="1244" y="626"/>
      <point x="1276" y="721"/>
      <point x="1293" y="789" type="curve"/>
      <point x="1318" y="770"/>
      <point x="1364" y="754"/>
      <point x="1401" y="751" type="curve" smooth="yes"/>
      <point x="1421" y="750"/>
      <point x="1436" y="774"/>
      <point x="1436" y="794" type="curve" smooth="yes"/>
      <point x="1436" y="806"/>
      <point x="1430" y="818"/>
      <point x="1415" y="820" type="curve" smooth="yes"/>
      <point x="1373" y="825"/>
      <point x="1320" y="849"/>
      <point x="1308" y="869" type="curve"/>
      <point x="1295" y="905"/>
      <point x="1263" y="926"/>
      <point x="1233" y="926" type="curve" smooth="yes"/>
      <point x="1195" y="926"/>
      <point x="1178" y="901"/>
      <point x="1178" y="876" type="curve" smooth="yes"/>
      <point x="1178" y="855"/>
      <point x="1190" y="834"/>
      <point x="1214" y="825" type="curve"/>
      <point x="1200" y="749"/>
      <point x="1154" y="634"/>
      <point x="1101" y="526" type="curve" smooth="yes"/>
      <point x="991" y="303"/>
      <point x="853" y="66"/>
      <point x="756" y="66" type="curve" smooth="yes"/>
      <point x="724" y="66"/>
      <point x="708" y="101"/>
      <point x="708" y="163" type="curve" smooth="yes"/>
      <point x="708" y="258"/>
      <point x="744" y="414"/>
      <point x="805" y="601" type="curve"/>
      <point x="823" y="624"/>
      <point x="836" y="654"/>
      <point x="836" y="678" type="curve" smooth="yes"/>
      <point x="836" y="705"/>
      <point x="823" y="725"/>
      <point x="788" y="725" type="curve" smooth="yes"/>
      <point x="753" y="725"/>
      <point x="733" y="700"/>
      <point x="723" y="669" type="curve" smooth="yes"/>
      <point x="716" y="653"/>
      <point x="715" y="634"/>
      <point x="715" y="616" type="curve"/>
      <point x="574" y="266"/>
      <point x="424" y="66"/>
      <point x="315" y="66" type="curve" smooth="yes"/>
      <point x="254" y="66"/>
      <point x="245" y="113"/>
      <point x="279" y="223" type="curve" smooth="yes"/>
      <point x="326" y="375"/>
      <point x="389" y="578"/>
      <point x="436" y="728" type="curve" smooth="yes"/>
      <point x="469" y="830"/>
      <point x="446" y="890"/>
      <point x="376" y="890" type="curve" smooth="yes"/>
      <point x="313" y="890"/>
      <point x="250" y="835"/>
      <point x="188" y="740" type="curve" smooth="yes"/>
      <point x="173" y="718"/>
      <point x="176" y="700"/>
      <point x="196" y="688" type="curve" smooth="yes"/>
      <point x="220" y="673"/>
      <point x="238" y="679"/>
      <point x="260" y="710" type="curve" smooth="yes"/>
      <point x="301" y="766"/>
      <point x="331" y="806"/>
      <point x="350" y="806" type="curve" smooth="yes"/>
      <point x="366" y="806"/>
      <point x="365" y="785"/>
      <point x="348" y="728" type="curve" smooth="yes"/>
      <point x="301" y="574"/>
      <point x="239" y="375"/>
      <point x="191" y="221" type="curve" smooth="yes"/>
      <point x="140" y="53"/>
      <point x="170" y="-19"/>
    </contour>
  </outline>
</glyph>
<glyph name="X.dec_ro" format="2">
  <advance width="888"/>
  <outline>
    <contour>
      <point x="287" y="410" type="curve" smooth="yes"/>
      <point x="703" y="410" type="line" smooth="yes"/>
      <point x="719" y="410"/>
      <point x="732" y="420"/>
      <point x="738" y="445" type="curve" smooth="yes"/>
      <point x="747" y="474"/>
      <point x="740" y="490"/>
      <point x="720" y="490" type="curve" smooth="yes"/>
      <point x="304" y="490" type="line" smooth="yes"/>
      <point x="288" y="490"/>
      <point x="275" y="480"/>
      <point x="269" y="455" type="curve" smooth="yes"/>
      <point x="260" y="426"/>
      <point x="267" y="410"/>
    </contour>
    <component base="X.dec"/>
  </outline>
</glyph>
<glyph name="X.dec_ro.ini" format="2">
  <advance width="825"/>
  <anchor x="744" y="0" name="cnct"/>
  <outline>
    <contour>
      <point x="287" y="410" type="curve" smooth="yes"/>
      <point x="703" y="410" type="line" smooth="yes"/>
      <point x="719" y="410"/>
      <point x="732" y="420"/>
      <point x="738" y="445" type="curve" smooth="yes"/>
      <point x="747" y="474"/>
      <point x="740" y="490"/>
      <point x="720" y="490" type="curve" smooth="yes"/>
      <point x="304" y="490" type="line" smooth="yes"/>
      <point x="288" y="490"/>
      <point x="275" y="480"/>
      <point x="269" y="455" type="curve" smooth="yes"/>
      <point x="260" y="426"/>
      <point x="267" y="410"/>
    </contour>
    <component base="X.dec.ini"/>
  </outline>
</glyph>
<glyph name="Y.cur.ini" format="2">
  <advance width="850"/>
  <anchor x="778" y="0" name="bottom"/>
  <anchor x="769" y="0" name="cnct"/>
  <anchor x="614" y="838" name="top"/>
  <outline>
    <contour>
      <point x="360" y="51" type="curve" smooth="yes"/>
      <point x="468" y="51"/>
      <point x="579" y="129"/>
      <point x="670" y="251" type="curve"/>
      <point x="529" y="-184" type="line" smooth="yes"/>
      <point x="499" y="-277"/>
      <point x="466" y="-316"/>
      <point x="410" y="-316" type="curve" smooth="yes"/>
      <point x="378" y="-316"/>
      <point x="358" y="-301"/>
      <point x="358" y="-272" type="curve" smooth="yes"/>
      <point x="358" y="-222"/>
      <point x="266" y="-224"/>
      <point x="266" y="-274" type="curve" smooth="yes"/>
      <point x="266" y="-356"/>
      <point x="329" y="-394"/>
      <point x="404" y="-394" type="curve" smooth="yes"/>
      <point x="521" y="-394"/>
      <point x="573" y="-326"/>
      <point x="623" y="-172" type="curve" smooth="yes"/>
      <point x="958" y="859" type="line" smooth="yes"/>
      <point x="965" y="880"/>
      <point x="949" y="889"/>
      <point x="919" y="889" type="curve" smooth="yes"/>
      <point x="889" y="889"/>
      <point x="874" y="880"/>
      <point x="868" y="861" type="curve" smooth="yes"/>
      <point x="741" y="471" type="line"/>
      <point x="640" y="278"/>
      <point x="503" y="138"/>
      <point x="386" y="138" type="curve" smooth="yes"/>
      <point x="304" y="138"/>
      <point x="289" y="191"/>
      <point x="321" y="293" type="curve" smooth="yes"/>
      <point x="466" y="739" type="line" smooth="yes"/>
      <point x="499" y="839"/>
      <point x="473" y="891"/>
      <point x="393" y="891" type="curve" smooth="yes"/>
      <point x="349" y="891"/>
      <point x="283" y="875"/>
      <point x="186" y="740" type="curve" smooth="yes"/>
      <point x="170" y="718"/>
      <point x="175" y="700"/>
      <point x="195" y="688" type="curve" smooth="yes"/>
      <point x="219" y="673"/>
      <point x="239" y="679"/>
      <point x="261" y="710" type="curve" smooth="yes"/>
      <point x="309" y="776"/>
      <point x="340" y="806"/>
      <point x="368" y="806" type="curve" smooth="yes"/>
      <point x="395" y="806"/>
      <point x="393" y="785"/>
      <point x="378" y="740" type="curve" smooth="yes"/>
      <point x="233" y="290" type="line" smooth="yes"/>
      <point x="183" y="134"/>
      <point x="226" y="51"/>
    </contour>
  </outline>
</glyph>
<glyph name="Y_locl" format="2">
  <advance width="686"/>
  <anchor x="269" y="0" name="bottom"/>
  <anchor x="520" y="838" name="top"/>
  <outline>
    <contour>
      <point x="169" y="4" type="curve" smooth="yes"/>
      <point x="854" y="816" type="line" smooth="yes"/>
      <point x="873" y="838"/>
      <point x="871" y="856"/>
      <point x="848" y="876" type="curve" smooth="yes"/>
      <point x="826" y="894"/>
      <point x="806" y="893"/>
      <point x="788" y="871" type="curve" smooth="yes"/>
      <point x="416" y="430" type="line"/>
      <point x="296" y="855" type="line" smooth="yes"/>
      <point x="289" y="881"/>
      <point x="271" y="890"/>
      <point x="240" y="880" type="curve" smooth="yes"/>
      <point x="211" y="871"/>
      <point x="204" y="851"/>
      <point x="211" y="826" type="curve" smooth="yes"/>
      <point x="349" y="349" type="line"/>
      <point x="105" y="60" type="line" smooth="yes"/>
      <point x="86" y="38"/>
      <point x="89" y="20"/>
      <point x="110" y="1" type="curve" smooth="yes"/>
      <point x="130" y="-16"/>
      <point x="149" y="-19"/>
    </contour>
  </outline>
</glyph>
<glyph name="Z.cur" format="2">
  <advance width="798"/>
  <anchor x="280" y="0" name="bottom"/>
  <anchor x="423" y="438" name="center"/>
  <anchor x="551" y="838" name="top"/>
  <outline>
    <contour>
      <point x="201" y="-394" type="curve" smooth="yes"/>
      <point x="386" y="-394"/>
      <point x="496" y="-96"/>
      <point x="496" y="58" type="curve" smooth="yes"/>
      <point x="496" y="148"/>
      <point x="454" y="210"/>
      <point x="379" y="228" type="curve"/>
      <point x="379" y="229" type="line"/>
      <point x="701" y="356"/>
      <point x="838" y="501"/>
      <point x="838" y="680" type="curve" smooth="yes"/>
      <point x="838" y="810"/>
      <point x="746" y="890"/>
      <point x="598" y="890" type="curve" smooth="yes"/>
      <point x="473" y="890"/>
      <point x="353" y="849"/>
      <point x="218" y="745" type="curve" smooth="yes"/>
      <point x="200" y="730"/>
      <point x="199" y="711"/>
      <point x="216" y="689" type="curve" smooth="yes"/>
      <point x="235" y="668"/>
      <point x="251" y="663"/>
      <point x="266" y="675" type="curve" smooth="yes"/>
      <point x="370" y="755"/>
      <point x="479" y="805"/>
      <point x="586" y="805" type="curve" smooth="yes"/>
      <point x="689" y="805"/>
      <point x="746" y="756"/>
      <point x="746" y="676" type="curve" smooth="yes"/>
      <point x="746" y="530"/>
      <point x="614" y="400"/>
      <point x="284" y="265" type="curve" smooth="yes"/>
      <point x="248" y="250"/>
      <point x="250" y="188"/>
      <point x="279" y="184" type="curve" smooth="yes"/>
      <point x="389" y="170"/>
      <point x="409" y="125"/>
      <point x="409" y="55" type="curve" smooth="yes"/>
      <point x="406" y="-55"/>
      <point x="333" y="-309"/>
      <point x="209" y="-309" type="curve" smooth="yes"/>
      <point x="175" y="-309"/>
      <point x="156" y="-289"/>
      <point x="156" y="-257" type="curve" smooth="yes"/>
      <point x="156" y="-151"/>
      <point x="293" y="-55"/>
      <point x="690" y="129" type="curve" smooth="yes"/>
      <point x="713" y="139"/>
      <point x="716" y="160"/>
      <point x="703" y="185" type="curve" smooth="yes"/>
      <point x="691" y="208"/>
      <point x="674" y="211"/>
      <point x="654" y="201" type="curve" smooth="yes"/>
      <point x="216" y="-5"/>
      <point x="66" y="-121"/>
      <point x="66" y="-265" type="curve" smooth="yes"/>
      <point x="66" y="-341"/>
      <point x="121" y="-394"/>
    </contour>
  </outline>
</glyph>
<glyph name="Z.cur.ini" format="2">
  <advance width="725"/>
  <anchor x="280" y="0" name="bottom"/>
  <anchor x="423" y="438" name="center"/>
  <anchor x="644" y="0" name="cnct"/>
  <anchor x="551" y="838" name="top"/>
  <outline>
    <contour>
      <point x="269" y="-394" type="curve" smooth="yes"/>
      <point x="409" y="-394"/>
      <point x="544" y="-234"/>
      <point x="544" y="18" type="curve" smooth="yes"/>
      <point x="544" y="148"/>
      <point x="471" y="210"/>
      <point x="379" y="228" type="curve"/>
      <point x="379" y="229" type="line"/>
      <point x="693" y="356"/>
      <point x="825" y="501"/>
      <point x="825" y="680" type="curve" smooth="yes"/>
      <point x="825" y="810"/>
      <point x="730" y="890"/>
      <point x="585" y="890" type="curve" smooth="yes"/>
      <point x="460" y="890"/>
      <point x="345" y="848"/>
      <point x="211" y="745" type="curve" smooth="yes"/>
      <point x="193" y="731"/>
      <point x="193" y="711"/>
      <point x="210" y="689" type="curve" smooth="yes"/>
      <point x="229" y="668"/>
      <point x="245" y="663"/>
      <point x="260" y="675" type="curve" smooth="yes"/>
      <point x="363" y="754"/>
      <point x="466" y="805"/>
      <point x="574" y="805" type="curve" smooth="yes"/>
      <point x="673" y="805"/>
      <point x="734" y="756"/>
      <point x="734" y="676" type="curve" smooth="yes"/>
      <point x="734" y="530"/>
      <point x="606" y="398"/>
      <point x="284" y="265" type="curve" smooth="yes"/>
      <point x="248" y="250"/>
      <point x="250" y="188"/>
      <point x="279" y="184" type="curve" smooth="yes"/>
      <point x="403" y="168"/>
      <point x="456" y="125"/>
      <point x="456" y="18" type="curve" smooth="yes"/>
      <point x="456" y="-184"/>
      <point x="358" y="-309"/>
      <point x="276" y="-309" type="curve" smooth="yes"/>
      <point x="251" y="-309"/>
      <point x="233" y="-294"/>
      <point x="233" y="-272" type="curve" smooth="yes"/>
      <point x="233" y="-222"/>
      <point x="141" y="-222"/>
      <point x="141" y="-272" type="curve" smooth="yes"/>
      <point x="141" y="-342"/>
      <point x="195" y="-394"/>
    </contour>
  </outline>
</glyph>
<glyph name="Z.dec_locl.ini" format="2">
  <advance width="803"/>
  <anchor x="345" y="0" name="bottom"/>
  <anchor x="488" y="438" name="center"/>
  <anchor x="721" y="0" name="cnct"/>
  <anchor x="556" y="838" name="top"/>
  <outline>
    <contour>
      <point x="524" y="-17" type="curve" smooth="yes"/>
      <point x="574" y="-17"/>
      <point x="584" y="60"/>
      <point x="534" y="60" type="curve" smooth="yes"/>
      <point x="426" y="60"/>
      <point x="365" y="128"/>
      <point x="230" y="128" type="curve" smooth="yes"/>
      <point x="220" y="128"/>
      <point x="211" y="128"/>
      <point x="203" y="126" type="curve"/>
      <point x="488" y="409" type="line"/>
      <point x="699" y="409" type="line" smooth="yes"/>
      <point x="715" y="409"/>
      <point x="728" y="419"/>
      <point x="734" y="444" type="curve" smooth="yes"/>
      <point x="741" y="473"/>
      <point x="736" y="489"/>
      <point x="716" y="489" type="curve" smooth="yes"/>
      <point x="569" y="489" type="line"/>
      <point x="911" y="829" type="line" smooth="yes"/>
      <point x="924" y="841"/>
      <point x="923" y="853"/>
      <point x="908" y="869" type="curve" smooth="yes"/>
      <point x="896" y="880"/>
      <point x="886" y="883"/>
      <point x="871" y="875" type="curve" smooth="yes"/>
      <point x="821" y="849"/>
      <point x="780" y="838"/>
      <point x="739" y="838" type="curve" smooth="yes"/>
      <point x="654" y="838"/>
      <point x="638" y="890"/>
      <point x="538" y="890" type="curve" smooth="yes"/>
      <point x="455" y="890"/>
      <point x="371" y="845"/>
      <point x="271" y="765" type="curve" smooth="yes"/>
      <point x="253" y="749"/>
      <point x="253" y="731"/>
      <point x="270" y="714" type="curve"/>
      <point x="285" y="694"/>
      <point x="303" y="693"/>
      <point x="323" y="709" type="curve" smooth="yes"/>
      <point x="391" y="765"/>
      <point x="479" y="806"/>
      <point x="533" y="806" type="curve" smooth="yes"/>
      <point x="604" y="806"/>
      <point x="616" y="759"/>
      <point x="700" y="759" type="curve" smooth="yes"/>
      <point x="709" y="759"/>
      <point x="720" y="760"/>
      <point x="730" y="763" type="curve"/>
      <point x="455" y="489" type="line"/>
      <point x="273" y="489" type="line" smooth="yes"/>
      <point x="256" y="489"/>
      <point x="244" y="479"/>
      <point x="238" y="454" type="curve" smooth="yes"/>
      <point x="230" y="424"/>
      <point x="235" y="409"/>
      <point x="255" y="409" type="curve" smooth="yes"/>
      <point x="374" y="409" type="line"/>
      <point x="5" y="43" type="line" smooth="yes"/>
      <point x="-14" y="25"/>
      <point x="-15" y="13"/>
      <point x="-4" y="-1" type="curve" smooth="yes"/>
      <point x="9" y="-20"/>
      <point x="31" y="-19"/>
      <point x="50" y="-6" type="curve" smooth="yes"/>
      <point x="101" y="28"/>
      <point x="151" y="45"/>
      <point x="193" y="45" type="curve" smooth="yes"/>
      <point x="331" y="45"/>
      <point x="390" y="-17"/>
    </contour>
  </outline>
</glyph>
<glyph name="ae.ful.ini" format="2">
  <advance width="776"/>
  <anchor x="693" y="0" name="cnct"/>
  <anchor x="488" y="500" name="top"/>
  <outline>
    <contour>
      <point x="167" y="-17" type="curve" smooth="yes"/>
      <point x="232" y="-17"/>
      <point x="304" y="24"/>
      <point x="398" y="143" type="curve"/>
      <point x="394" y="253" type="line"/>
      <point x="321" y="148"/>
      <point x="244" y="63"/>
      <point x="181" y="63" type="curve" smooth="yes"/>
      <point x="144" y="63"/>
      <point x="127" y="86"/>
      <point x="127" y="133" type="curve" smooth="yes"/>
      <point x="127" y="253"/>
      <point x="223" y="440"/>
      <point x="389" y="440" type="curve" smooth="yes"/>
      <point x="421" y="440"/>
      <point x="451" y="434"/>
      <point x="473" y="418" type="curve"/>
      <point x="544" y="476" type="line"/>
      <point x="497" y="506"/>
      <point x="447" y="519"/>
      <point x="396" y="519" type="curve" smooth="yes"/>
      <point x="164" y="519"/>
      <point x="34" y="286"/>
      <point x="34" y="131" type="curve" smooth="yes"/>
      <point x="34" y="45"/>
      <point x="76" y="-17"/>
    </contour>
    <contour>
      <point x="617" y="519" type="curve" smooth="yes"/>
      <point x="567" y="519"/>
      <point x="544" y="439"/>
      <point x="594" y="439" type="curve" smooth="yes"/>
      <point x="621" y="439"/>
      <point x="636" y="424"/>
      <point x="636" y="400" type="curve" smooth="yes"/>
      <point x="636" y="328"/>
      <point x="558" y="278"/>
      <point x="407" y="254" type="curve"/>
      <point x="416" y="175" type="line"/>
      <point x="621" y="218"/>
      <point x="726" y="298"/>
      <point x="726" y="411" type="curve" smooth="yes"/>
      <point x="726" y="474"/>
      <point x="679" y="519"/>
    </contour>
  </outline>
</glyph>
<glyph name="b.ful" format="2">
  <advance width="581"/>
  <guideline x="140" y="-15" angle="75.47"/>
  <guideline x="-23" y="161" angle="0"/>
  <guideline x="410" y="332" angle="192.09"/>
  <guideline x="400" y="400" angle="184.24"/>
  <anchor x="233" y="0" name="bottom"/>
  <anchor x="315" y="250" name="center"/>
  <anchor x="396" y="500" name="top"/>
  <outline>
    <contour>
      <point x="191" y="-19" type="curve" smooth="yes"/>
      <point x="378" y="-19"/>
      <point x="531" y="233"/>
      <point x="531" y="415" type="curve" smooth="yes"/>
      <point x="531" y="435"/>
      <point x="530" y="454"/>
      <point x="526" y="471" type="curve" smooth="yes"/>
      <point x="518" y="506"/>
      <point x="503" y="519"/>
      <point x="478" y="519" type="curve" smooth="yes"/>
      <point x="447" y="519"/>
      <point x="435" y="500"/>
      <point x="441" y="465" type="curve" smooth="yes"/>
      <point x="445" y="441"/>
      <point x="446" y="416"/>
      <point x="446" y="400" type="curve" smooth="yes"/>
      <point x="446" y="259"/>
      <point x="320" y="61"/>
      <point x="211" y="61" type="curve" smooth="yes"/>
      <point x="137" y="61"/>
      <point x="152" y="135"/>
      <point x="173" y="201" type="curve" smooth="yes"/>
      <point x="385" y="851" type="line" smooth="yes"/>
      <point x="392" y="876"/>
      <point x="387" y="890"/>
      <point x="343" y="890" type="curve" smooth="yes"/>
      <point x="310" y="890"/>
      <point x="305" y="878"/>
      <point x="298" y="858" type="curve" smooth="yes"/>
      <point x="86" y="201" type="line" smooth="yes"/>
      <point x="53" y="100"/>
      <point x="61" y="-19"/>
    </contour>
  </outline>
</glyph>
<glyph name="b.ful.ini" format="2">
  <advance width="581"/>
  <guideline x="-23" y="247" angle="0"/>
  <anchor x="233" y="0" name="bottom"/>
  <anchor x="315" y="250" name="center"/>
  <anchor x="500" y="0" name="cnct"/>
  <anchor x="396" y="500" name="top"/>
  <outline>
    <contour>
      <point x="191" y="-19" type="curve" smooth="yes"/>
      <point x="378" y="-19"/>
      <point x="531" y="233"/>
      <point x="531" y="415" type="curve" smooth="yes"/>
      <point x="531" y="473"/>
      <point x="512" y="519"/>
      <point x="467" y="519" type="curve" smooth="yes"/>
      <point x="435" y="519"/>
      <point x="412" y="496"/>
      <point x="412" y="464" type="curve" smooth="yes"/>
      <point x="412" y="436"/>
      <point x="426" y="418"/>
      <point x="451" y="398" type="curve"/>
      <point x="451" y="370"/>
      <point x="442" y="339"/>
      <point x="433" y="309" type="curve" smooth="yes"/>
      <point x="396" y="186"/>
      <point x="297" y="61"/>
      <point x="211" y="61" type="curve" smooth="yes"/>
      <point x="137" y="61"/>
      <point x="152" y="135"/>
      <point x="173" y="201" type="curve" smooth="yes"/>
      <point x="385" y="851" type="line" smooth="yes"/>
      <point x="392" y="876"/>
      <point x="387" y="890"/>
      <point x="343" y="890" type="curve" smooth="yes"/>
      <point x="310" y="890"/>
      <point x="305" y="878"/>
      <point x="298" y="858" type="curve" smooth="yes"/>
      <point x="86" y="201" type="line" smooth="yes"/>
      <point x="53" y="100"/>
      <point x="61" y="-19"/>
    </contour>
  </outline>
</glyph>
<glyph name="b.ful.med" format="2">
  <advance width="604"/>
  <anchor x="256" y="0" name="bottom"/>
  <anchor x="338" y="250" name="center"/>
  <anchor x="523" y="0" name="cnct"/>
  <anchor x="419" y="500" name="top"/>
  <outline>
    <contour>
      <point x="214" y="-19" type="curve" smooth="yes"/>
      <point x="401" y="-19"/>
      <point x="554" y="233"/>
      <point x="554" y="415" type="curve" smooth="yes"/>
      <point x="554" y="473"/>
      <point x="535" y="519"/>
      <point x="490" y="519" type="curve" smooth="yes"/>
      <point x="458" y="519"/>
      <point x="435" y="496"/>
      <point x="435" y="464" type="curve" smooth="yes"/>
      <point x="435" y="436"/>
      <point x="449" y="418"/>
      <point x="474" y="398" type="curve"/>
      <point x="474" y="370"/>
      <point x="465" y="339"/>
      <point x="456" y="309" type="curve" smooth="yes"/>
      <point x="419" y="186"/>
      <point x="320" y="61"/>
      <point x="234" y="61" type="curve" smooth="yes"/>
      <point x="160" y="61"/>
      <point x="175" y="135"/>
      <point x="196" y="201" type="curve" smooth="yes"/>
      <point x="408" y="851" type="line" smooth="yes"/>
      <point x="415" y="876"/>
      <point x="410" y="890"/>
      <point x="366" y="890" type="curve" smooth="yes"/>
      <point x="333" y="890"/>
      <point x="328" y="878"/>
      <point x="321" y="858" type="curve" smooth="yes"/>
      <point x="109" y="201" type="line" smooth="yes"/>
      <point x="76" y="100"/>
      <point x="84" y="-19"/>
    </contour>
  </outline>
</glyph>
<glyph name="b.jmc_dk.fin" format="2">
  <advance width="623"/>
  <anchor x="275" y="0" name="bottom"/>
  <anchor x="352" y="250" name="center"/>
  <anchor x="573" y="500" name="top"/>
  <outline>
    <contour>
      <point x="84" y="-15" type="curve" smooth="yes"/>
      <point x="114" y="-15"/>
      <point x="125" y="-7"/>
      <point x="131" y="11" type="curve" smooth="yes"/>
      <point x="365" y="734" type="line" smooth="yes"/>
      <point x="384" y="790"/>
      <point x="403" y="809"/>
      <point x="425" y="809" type="curve" smooth="yes"/>
      <point x="446" y="809"/>
      <point x="460" y="793"/>
      <point x="460" y="765" type="curve" smooth="yes"/>
      <point x="460" y="670"/>
      <point x="321" y="544"/>
      <point x="181" y="414" type="curve"/>
      <point x="165" y="334" type="line"/>
      <point x="401" y="529"/>
      <point x="549" y="651"/>
      <point x="549" y="770" type="curve" smooth="yes"/>
      <point x="549" y="845"/>
      <point x="501" y="894"/>
      <point x="440" y="894" type="curve" smooth="yes"/>
      <point x="365" y="894"/>
      <point x="315" y="850"/>
      <point x="280" y="743" type="curve" smooth="yes"/>
      <point x="46" y="18" type="line" smooth="yes"/>
      <point x="38" y="-7"/>
      <point x="63" y="-15"/>
    </contour>
    <contour>
      <point x="132" y="16" type="curve" smooth="yes"/>
      <point x="172" y="-4"/>
      <point x="216" y="-17"/>
      <point x="257" y="-17" type="curve" smooth="yes"/>
      <point x="459" y="-17"/>
      <point x="584" y="219"/>
      <point x="584" y="371" type="curve" smooth="yes"/>
      <point x="584" y="463"/>
      <point x="539" y="519"/>
      <point x="471" y="519" type="curve" smooth="yes"/>
      <point x="399" y="519"/>
      <point x="320" y="462"/>
      <point x="236" y="345" type="curve"/>
      <point x="172" y="138" type="line"/>
      <point x="275" y="333"/>
      <point x="370" y="439"/>
      <point x="442" y="439" type="curve" smooth="yes"/>
      <point x="474" y="439"/>
      <point x="492" y="406"/>
      <point x="492" y="355" type="curve" smooth="yes"/>
      <point x="492" y="250"/>
      <point x="407" y="61"/>
      <point x="267" y="61" type="curve" smooth="yes"/>
      <point x="234" y="61"/>
      <point x="197" y="66"/>
      <point x="155" y="84" type="curve" smooth="yes"/>
      <point x="124" y="97"/>
      <point x="99" y="33"/>
    </contour>
  </outline>
</glyph>
<glyph name="b.jmc_dk" format="2">
  <advance width="664"/>
  <anchor x="275" y="0" name="bottom"/>
  <anchor x="394" y="250" name="center"/>
  <anchor x="573" y="500" name="top"/>
  <outline>
    <contour>
      <point x="-159" y="-17" type="curve" smooth="yes"/>
      <point x="-87" y="-17"/>
      <point x="3" y="75"/>
      <point x="223" y="394" type="curve" smooth="yes"/>
      <point x="246" y="428"/>
      <point x="209" y="460"/>
      <point x="185" y="429" type="curve" smooth="yes"/>
      <point x="-15" y="155"/>
      <point x="-101" y="58"/>
      <point x="-159" y="58" type="curve" smooth="yes"/>
      <point x="-209" y="58"/>
      <point x="-209" y="-17"/>
    </contour>
    <component base="b.jmc_dk.fin"/>
  </outline>
</glyph>
<glyph name="b.jmc_dk.ini" format="2">
  <advance width="623"/>
  <anchor x="542" y="0" name="cnct"/>
  <anchor x="275" y="0" name="bottom"/>
  <anchor x="352" y="250" name="center"/>
  <anchor x="573" y="500" name="top"/>
  <outline>
    <contour>
      <point x="457" y="-17" type="curve" smooth="yes"/>
      <point x="489" y="-17"/>
      <point x="500" y="58"/>
      <point x="475" y="58" type="curve" smooth="yes"/>
      <point x="445" y="58"/>
      <point x="396" y="49"/>
      <point x="282" y="20" type="curve"/>
      <point x="269" y="-15" type="line"/>
      <point x="351" y="-4"/>
      <point x="399" y="-17"/>
    </contour>
    <component base="b.jmc_dk"/>
  </outline>
</glyph>
<glyph name="b.jmc_dk.med" format="2">
  <advance width="664"/>
  <anchor x="581" y="0" name="cnct"/>
  <anchor x="275" y="0" name="bottom"/>
  <anchor x="394" y="250" name="center"/>
  <anchor x="573" y="500" name="top"/>
  <outline>
    <contour>
      <point x="496" y="-17" type="curve" smooth="yes"/>
      <point x="546" y="-17"/>
      <point x="565" y="58"/>
      <point x="515" y="58" type="curve" smooth="yes"/>
      <point x="486" y="58"/>
      <point x="419" y="64"/>
      <point x="291" y="30" type="curve"/>
      <point x="253" y="-2" type="line"/>
      <point x="371" y="23"/>
      <point x="441" y="-17"/>
    </contour>
    <component base="b.jmc_dk.fin"/>
  </outline>
</glyph>
<glyph name="b.lop.fin" format="2">
  <advance width="614"/>
  <anchor x="254" y="0" name="bottom"/>
  <anchor x="335" y="250" name="center"/>
  <anchor x="416" y="500" name="top"/>
  <outline>
    <contour>
      <point x="218" y="-19" type="curve" smooth="yes"/>
      <point x="409" y="-19"/>
      <point x="564" y="233"/>
      <point x="564" y="415" type="curve" smooth="yes"/>
      <point x="564" y="435"/>
      <point x="563" y="454"/>
      <point x="559" y="471" type="curve" smooth="yes"/>
      <point x="551" y="506"/>
      <point x="536" y="519"/>
      <point x="511" y="519" type="curve" smooth="yes"/>
      <point x="480" y="519"/>
      <point x="468" y="500"/>
      <point x="474" y="465" type="curve" smooth="yes"/>
      <point x="478" y="441"/>
      <point x="479" y="416"/>
      <point x="479" y="400" type="curve" smooth="yes"/>
      <point x="479" y="259"/>
      <point x="349" y="61"/>
      <point x="238" y="61" type="curve" smooth="yes"/>
      <point x="156" y="61"/>
      <point x="173" y="135"/>
      <point x="194" y="201" type="curve" smooth="yes"/>
      <point x="339" y="649" type="line" smooth="yes"/>
      <point x="383" y="785"/>
      <point x="408" y="814"/>
      <point x="438" y="814" type="curve" smooth="yes"/>
      <point x="465" y="814"/>
      <point x="471" y="790"/>
      <point x="471" y="759" type="curve" smooth="yes"/>
      <point x="471" y="709"/>
      <point x="555" y="709"/>
      <point x="555" y="759" type="curve" smooth="yes"/>
      <point x="555" y="838"/>
      <point x="511" y="894"/>
      <point x="450" y="894" type="curve" smooth="yes"/>
      <point x="365" y="894"/>
      <point x="309" y="826"/>
      <point x="258" y="669" type="curve" smooth="yes"/>
      <point x="106" y="201" type="line" smooth="yes"/>
      <point x="74" y="100"/>
      <point x="81" y="-19"/>
    </contour>
  </outline>
</glyph>
<glyph name="b.mlp.fin" format="2">
  <advance width="689"/>
  <anchor x="279" y="0" name="bottom"/>
  <anchor x="360" y="250" name="center"/>
  <anchor x="441" y="500" name="top"/>
  <outline>
    <contour>
      <point x="244" y="-19" type="curve" smooth="yes"/>
      <point x="431" y="-19"/>
      <point x="648" y="245"/>
      <point x="648" y="428" type="curve" smooth="yes"/>
      <point x="648" y="494"/>
      <point x="608" y="536"/>
      <point x="546" y="536" type="curve" smooth="yes"/>
      <point x="471" y="536"/>
      <point x="438" y="478"/>
      <point x="438" y="425" type="curve" smooth="yes"/>
      <point x="438" y="371"/>
      <point x="480" y="324"/>
      <point x="571" y="324" type="curve" smooth="yes"/>
      <point x="659" y="324"/>
      <point x="726" y="348"/>
      <point x="786" y="378" type="curve" smooth="yes"/>
      <point x="811" y="390"/>
      <point x="783" y="454"/>
      <point x="753" y="438" type="curve" smooth="yes"/>
      <point x="704" y="411"/>
      <point x="641" y="390"/>
      <point x="578" y="390" type="curve" smooth="yes"/>
      <point x="531" y="390"/>
      <point x="503" y="403"/>
      <point x="503" y="434" type="curve" smooth="yes"/>
      <point x="503" y="456"/>
      <point x="516" y="478"/>
      <point x="536" y="478" type="curve" smooth="yes"/>
      <point x="555" y="478"/>
      <point x="569" y="468"/>
      <point x="569" y="431" type="curve" smooth="yes"/>
      <point x="569" y="279"/>
      <point x="381" y="61"/>
      <point x="250" y="61" type="curve" smooth="yes"/>
      <point x="174" y="61"/>
      <point x="169" y="124"/>
      <point x="201" y="224" type="curve" smooth="yes"/>
      <point x="339" y="649" type="line" smooth="yes"/>
      <point x="383" y="785"/>
      <point x="408" y="814"/>
      <point x="438" y="814" type="curve" smooth="yes"/>
      <point x="465" y="814"/>
      <point x="471" y="790"/>
      <point x="471" y="759" type="curve" smooth="yes"/>
      <point x="471" y="709"/>
      <point x="555" y="709"/>
      <point x="555" y="759" type="curve" smooth="yes"/>
      <point x="555" y="838"/>
      <point x="511" y="894"/>
      <point x="450" y="894" type="curve" smooth="yes"/>
      <point x="365" y="894"/>
      <point x="309" y="826"/>
      <point x="258" y="669" type="curve" smooth="yes"/>
      <point x="118" y="235" type="line" smooth="yes"/>
      <point x="73" y="95"/>
      <point x="105" y="-19"/>
    </contour>
  </outline>
</glyph>
<glyph name="b.mlp.ini" format="2">
  <advance width="689"/>
  <anchor x="606" y="0" name="cnct"/>
  <anchor x="279" y="0" name="bottom"/>
  <anchor x="360" y="250" name="center"/>
  <anchor x="441" y="500" name="top"/>
  <outline>
    <contour>
      <point x="-184" y="-17" type="curve" smooth="yes"/>
      <point x="-16" y="-17"/>
      <point x="555" y="481"/>
      <point x="555" y="759" type="curve" smooth="yes"/>
      <point x="555" y="796"/>
      <point x="471" y="796"/>
      <point x="471" y="759" type="curve" smooth="yes"/>
      <point x="471" y="493"/>
      <point x="-36" y="58"/>
      <point x="-166" y="58" type="curve" smooth="yes"/>
      <point x="-210" y="58"/>
      <point x="-234" y="-17"/>
    </contour>
    <component base="b.mlp.med"/>
  </outline>
</glyph>
<glyph name="brevecomb.case" format="2">
  <anchor x="189" y="838" name="_top"/>
  <anchor x="276" y="1105" name="top"/>
  <outline>
    <contour>
      <point x="233" y="930" type="curve" smooth="yes"/>
      <point x="345" y="930"/>
      <point x="403" y="968"/>
      <point x="449" y="1105" type="curve" smooth="yes"/>
      <point x="455" y="1125"/>
      <point x="441" y="1139"/>
      <point x="418" y="1139" type="curve" smooth="yes"/>
      <point x="399" y="1139"/>
      <point x="389" y="1133"/>
      <point x="378" y="1109" type="curve" smooth="yes"/>
      <point x="354" y="1056"/>
      <point x="309" y="1016"/>
      <point x="248" y="1016" type="curve" smooth="yes"/>
      <point x="198" y="1016"/>
      <point x="163" y="1044"/>
      <point x="164" y="1111" type="curve" smooth="yes"/>
      <point x="164" y="1128"/>
      <point x="150" y="1139"/>
      <point x="130" y="1139" type="curve" smooth="yes"/>
      <point x="110" y="1139"/>
      <point x="98" y="1131"/>
      <point x="95" y="1111" type="curve" smooth="yes"/>
      <point x="81" y="989"/>
      <point x="136" y="930"/>
    </contour>
  </outline>
</glyph>
<glyph name="c.mod.med" format="2">
  <advance width="535"/>
  <anchor x="211" y="0" name="bottom"/>
  <anchor x="454" y="0" name="cnct"/>
  <anchor x="363" y="500" name="top"/>
  <outline>
    <contour>
      <point x="269" y="-17" type="curve" smooth="yes"/>
      <point x="306" y="-17"/>
      <point x="316" y="60"/>
      <point x="279" y="60" type="curve" smooth="yes"/>
      <point x="188" y="60"/>
      <point x="153" y="120"/>
      <point x="153" y="185" type="curve" smooth="yes"/>
      <point x="153" y="285"/>
      <point x="221" y="439"/>
      <point x="355" y="439" type="curve" smooth="yes"/>
      <point x="415" y="439"/>
      <point x="450" y="424"/>
      <point x="475" y="396" type="curve" smooth="yes"/>
      <point x="493" y="376"/>
      <point x="510" y="380"/>
      <point x="528" y="394" type="curve" smooth="yes"/>
      <point x="544" y="408"/>
      <point x="554" y="424"/>
      <point x="534" y="448" type="curve" smooth="yes"/>
      <point x="494" y="494"/>
      <point x="443" y="519"/>
      <point x="364" y="519" type="curve" smooth="yes"/>
      <point x="168" y="519"/>
      <point x="63" y="329"/>
      <point x="63" y="189" type="curve" smooth="yes"/>
      <point x="63" y="68"/>
      <point x="133" y="-17"/>
    </contour>
  </outline>
</glyph>
<glyph name="circumflexcomb.case" format="2">
  <anchor x="189" y="838" name="_top"/>
  <anchor x="276" y="1105" name="top"/>
  <outline>
    <contour>
      <point x="84" y="931" type="curve" smooth="yes"/>
      <point x="95" y="931"/>
      <point x="105" y="936"/>
      <point x="114" y="941" type="curve" smooth="yes"/>
      <point x="265" y="1038" type="line"/>
      <point x="356" y="948" type="line" smooth="yes"/>
      <point x="365" y="939"/>
      <point x="374" y="931"/>
      <point x="388" y="931" type="curve" smooth="yes"/>
      <point x="400" y="931"/>
      <point x="423" y="944"/>
      <point x="423" y="960" type="curve" smooth="yes"/>
      <point x="423" y="966"/>
      <point x="423" y="973"/>
      <point x="416" y="983" type="curve" smooth="yes"/>
      <point x="326" y="1113" type="line" smooth="yes"/>
      <point x="315" y="1130"/>
      <point x="301" y="1139"/>
      <point x="284" y="1139" type="curve" smooth="yes"/>
      <point x="263" y="1139"/>
      <point x="246" y="1133"/>
      <point x="226" y="1116" type="curve" smooth="yes"/>
      <point x="66" y="990" type="line" smooth="yes"/>
      <point x="60" y="985"/>
      <point x="55" y="979"/>
      <point x="55" y="966" type="curve" smooth="yes"/>
      <point x="55" y="951"/>
      <point x="68" y="931"/>
    </contour>
  </outline>
</glyph>
<glyph name="cnct.cnt_C_n" format="2">
  <anchor x="-81" y="0" name="_cnct"/>
  <outline>
    <contour>
      <point x="-366" y="-17" type="curve" smooth="yes"/>
      <point x="-141" y="-17"/>
      <point x="-2" y="165"/>
      <point x="102" y="301" type="curve" smooth="yes"/>
      <point x="163" y="381"/>
      <point x="213" y="444"/>
      <point x="258" y="444" type="curve" smooth="yes"/>
      <point x="298" y="444"/>
      <point x="311" y="519"/>
      <point x="284" y="519" type="curve" smooth="yes"/>
      <point x="196" y="519"/>
      <point x="153" y="476"/>
      <point x="33" y="324" type="curve" smooth="yes"/>
      <point x="-66" y="199"/>
      <point x="-176" y="60"/>
      <point x="-356" y="60" type="curve" smooth="yes"/>
      <point x="-396" y="60"/>
      <point x="-406" y="-17"/>
    </contour>
  </outline>
</glyph>
<glyph name="cnct.cnt_C_z" format="2">
  <anchor x="-81" y="0" name="_cnct"/>
  <outline>
    <contour>
      <point x="-366" y="-17" type="curve" smooth="yes"/>
      <point x="-125" y="-17"/>
      <point x="10" y="142"/>
      <point x="121" y="273" type="curve" smooth="yes"/>
      <point x="197" y="363"/>
      <point x="263" y="440"/>
      <point x="343" y="440" type="curve" smooth="yes"/>
      <point x="378" y="440"/>
      <point x="381" y="519"/>
      <point x="345" y="519" type="curve" smooth="yes"/>
      <point x="239" y="519"/>
      <point x="159" y="428"/>
      <point x="77" y="328" type="curve" smooth="yes"/>
      <point x="-27" y="201"/>
      <point x="-143" y="60"/>
      <point x="-356" y="60" type="curve" smooth="yes"/>
      <point x="-396" y="60"/>
      <point x="-406" y="-17"/>
    </contour>
  </outline>
</glyph>
<glyph name="cnct.cnt_G_n" format="2">
  <anchor x="-81" y="0" name="_cnct"/>
  <outline>
    <contour>
      <point x="-584" y="-274" type="curve" smooth="yes"/>
      <point x="-584" y="-324"/>
      <point x="-492" y="-322"/>
      <point x="-492" y="-272" type="curve" smooth="yes"/>
      <point x="-492" y="-182"/>
      <point x="-372" y="-125"/>
      <point x="-184" y="-40" type="curve" smooth="yes"/>
      <point x="110" y="94"/>
      <point x="228" y="444"/>
      <point x="339" y="444" type="curve" smooth="yes"/>
      <point x="409" y="444"/>
      <point x="413" y="519"/>
      <point x="364" y="519" type="curve" smooth="yes"/>
      <point x="143" y="519"/>
      <point x="95" y="160"/>
      <point x="-206" y="26" type="curve" smooth="yes"/>
      <point x="-442" y="-77"/>
      <point x="-584" y="-161"/>
    </contour>
  </outline>
</glyph>
<glyph name="cnct.cnt_G_z" format="2">
  <anchor x="-81" y="0" name="_cnct"/>
  <outline>
    <contour>
      <point x="-584" y="-274" type="curve" smooth="yes"/>
      <point x="-584" y="-324"/>
      <point x="-492" y="-322"/>
      <point x="-492" y="-272" type="curve" smooth="yes"/>
      <point x="-492" y="-182"/>
      <point x="-375" y="-124"/>
      <point x="-190" y="-40" type="curve" smooth="yes"/>
      <point x="196" y="135"/>
      <point x="205" y="440"/>
      <point x="386" y="440" type="curve" smooth="yes"/>
      <point x="428" y="440"/>
      <point x="431" y="519"/>
      <point x="389" y="519" type="curve" smooth="yes"/>
      <point x="145" y="519"/>
      <point x="145" y="183"/>
      <point x="-212" y="26" type="curve" smooth="yes"/>
      <point x="-445" y="-76"/>
      <point x="-584" y="-161"/>
    </contour>
  </outline>
</glyph>
<glyph name="cnct.cnt_b_z" format="2">
  <anchor x="-81" y="0" name="_cnct"/>
  <outline>
    <contour>
      <point x="33" y="336" type="curve" smooth="yes"/>
      <point x="140" y="336"/>
      <point x="210" y="440"/>
      <point x="300" y="440" type="curve" smooth="yes"/>
      <point x="318" y="440"/>
      <point x="325" y="519"/>
      <point x="303" y="519" type="curve" smooth="yes"/>
      <point x="183" y="519"/>
      <point x="121" y="418"/>
      <point x="35" y="418" type="curve" smooth="yes"/>
      <point x="-11" y="418"/>
      <point x="-45" y="429"/>
      <point x="-82" y="464" type="curve" smooth="yes"/>
      <point x="-96" y="476"/>
      <point x="-117" y="401"/>
      <point x="-101" y="388" type="curve" smooth="yes"/>
      <point x="-59" y="351"/>
      <point x="-16" y="336"/>
    </contour>
  </outline>
</glyph>
<glyph name="cnct.cnt_g_z" format="2">
  <anchor x="-81" y="0" name="_cnct"/>
  <outline>
    <contour>
      <point x="-225" y="-51" type="curve" smooth="yes"/>
      <point x="129" y="178"/>
      <point x="150" y="440"/>
      <point x="324" y="440" type="curve" smooth="yes"/>
      <point x="365" y="440"/>
      <point x="369" y="519"/>
      <point x="326" y="519" type="curve" smooth="yes"/>
      <point x="89" y="519"/>
      <point x="106" y="239"/>
      <point x="-259" y="8" type="curve" smooth="yes"/>
      <point x="-334" y="-40"/>
      <point x="-264" y="-76"/>
    </contour>
  </outline>
</glyph>
<glyph name="cnct.cnt_n_n" format="2">
  <anchor x="-81" y="0" name="_cnct"/>
  <outline>
    <contour>
      <point x="-165" y="-17" type="curve" smooth="yes"/>
      <point x="-104" y="-17"/>
      <point x="-26" y="10"/>
      <point x="100" y="260" type="curve" smooth="yes"/>
      <point x="185" y="426"/>
      <point x="228" y="444"/>
      <point x="258" y="444" type="curve" smooth="yes"/>
      <point x="298" y="444"/>
      <point x="311" y="519"/>
      <point x="284" y="519" type="curve" smooth="yes"/>
      <point x="209" y="519"/>
      <point x="144" y="496"/>
      <point x="25" y="266" type="curve" smooth="yes"/>
      <point x="-42" y="136"/>
      <point x="-100" y="58"/>
      <point x="-149" y="58" type="curve" smooth="yes"/>
      <point x="-181" y="58"/>
      <point x="-209" y="-17"/>
    </contour>
  </outline>
</glyph>
<glyph name="cnct.cnt_t.lop_de_n" format="2">
  <anchor x="-81" y="0" name="_cnct"/>
  <outline>
    <contour>
      <point x="-320" y="36" type="curve" smooth="yes"/>
      <point x="-135" y="36"/>
      <point x="-64" y="161"/>
      <point x="18" y="273" type="curve" smooth="yes"/>
      <point x="78" y="354"/>
      <point x="145" y="444"/>
      <point x="195" y="444" type="curve" smooth="yes"/>
      <point x="245" y="444"/>
      <point x="270" y="519"/>
      <point x="220" y="519" type="curve" smooth="yes"/>
      <point x="111" y="519"/>
      <point x="38" y="408"/>
      <point x="-36" y="309" type="curve" smooth="yes"/>
      <point x="-115" y="203"/>
      <point x="-175" y="99"/>
      <point x="-299" y="99" type="curve" smooth="yes"/>
      <point x="-350" y="99"/>
      <point x="-374" y="106"/>
      <point x="-374" y="120" type="curve" smooth="yes"/>
      <point x="-374" y="128"/>
      <point x="-369" y="131"/>
      <point x="-360" y="131" type="curve" smooth="yes"/>
      <point x="-342" y="131"/>
      <point x="-322" y="116"/>
      <point x="-331" y="89" type="curve"/>
      <point x="-291" y="105" type="line"/>
      <point x="-279" y="148"/>
      <point x="-319" y="189"/>
      <point x="-371" y="189" type="curve" smooth="yes"/>
      <point x="-416" y="189"/>
      <point x="-444" y="156"/>
      <point x="-444" y="119" type="curve" smooth="yes"/>
      <point x="-444" y="63"/>
      <point x="-384" y="36"/>
    </contour>
  </outline>
</glyph>
<glyph name="cnct.ful_C_s" format="2">
  <anchor x="-81" y="0" name="_cnct"/>
  <outline>
    <contour>
      <point x="-366" y="-17" type="curve" smooth="yes"/>
      <point x="-167" y="-17"/>
      <point x="87" y="135"/>
      <point x="291" y="458" type="curve" smooth="yes"/>
      <point x="319" y="502"/>
      <point x="251" y="513"/>
      <point x="231" y="483" type="curve" smooth="yes"/>
      <point x="37" y="192"/>
      <point x="-193" y="60"/>
      <point x="-356" y="60" type="curve" smooth="yes"/>
      <point x="-396" y="60"/>
      <point x="-406" y="-17"/>
    </contour>
  </outline>
</glyph>
<glyph name="cnct.ful_C_z" format="2">
  <anchor x="-81" y="0" name="_cnct"/>
  <outline>
    <contour>
      <point x="-366" y="-17" type="curve"/>
      <point x="-170" y="-17"/>
      <point x="20" y="133"/>
      <point x="229" y="436" type="curve" smooth="yes"/>
      <point x="255" y="475"/>
      <point x="192" y="504"/>
      <point x="173" y="475" type="curve" smooth="yes"/>
      <point x="-34" y="168"/>
      <point x="-213" y="60"/>
      <point x="-356" y="60" type="curve" smooth="yes"/>
      <point x="-396" y="60"/>
      <point x="-406" y="-17"/>
    </contour>
  </outline>
</glyph>
